<?xml version="1.0" encoding="UTF-8" standalone="no"?><svg xmlns="http://www.w3.org/2000/svg" xmlns:xlink="http://www.w3.org/1999/xlink" contentScriptType="application/ecmascript" contentStyleType="text/css" height="1699px" preserveAspectRatio="none" style="width:1707px;height:1699px;background:#FFFFFF;" version="1.1" viewBox="0 0 1707 1699" width="1707px" zoomAndPan="magnify"><defs><filter height="300%" id="f11dzo7mlaq1hx" width="300%" x="-1" y="-1"><feGaussianBlur result="blurOut" stdDeviation="2.0"/><feColorMatrix in="blurOut" result="blurOut2" type="matrix" values="0 0 0 0 0 0 0 0 0 0 0 0 0 0 0 0 0 0 .4 0"/><feOffset dx="4.0" dy="4.0" in="blurOut2" result="blurOut3"/><feBlend in="SourceGraphic" in2="blurOut3" mode="normal"/></filter></defs><g><text fill="#000000" font-family="sans-serif" font-size="18" lengthAdjust="spacing" textLength="272" x="711.25" y="16.708">diagrama de clases de diseño</text><!--MD5=[b6dcce5e5ef3c84b0b048d11301373dd]
class Game--><rect codeLine="5" fill="#FEFECE" filter="url(#f11dzo7mlaq1hx)" height="124.8281" id="Game" style="stroke:#A80036;stroke-width:1.5;" width="180" x="301.5" y="27.9531"/><ellipse cx="369.75" cy="43.9531" fill="#ADD1B2" rx="11" ry="11" style="stroke:#A80036;stroke-width:1.0;"/><path d="M372.0938,39.625 C371.1563,39.1875 370.5625,39.0469 369.6875,39.0469 C367.0625,39.0469 365.0625,41.125 365.0625,43.8438 L365.0625,44.9688 C365.0625,47.5469 367.1719,49.4375 370.0625,49.4375 C371.2813,49.4375 372.4375,49.1406 373.1875,48.5938 C373.7656,48.1875 374.0938,47.7344 374.0938,47.3438 C374.0938,46.8906 373.7031,46.5 373.2344,46.5 C373.0156,46.5 372.8125,46.5781 372.625,46.7656 C372.1719,47.25 372.1719,47.25 371.9844,47.3438 C371.5625,47.6094 370.875,47.7344 370.1094,47.7344 C368.0625,47.7344 366.7656,46.6406 366.7656,44.9375 L366.7656,43.8438 C366.7656,42.0625 368.0156,40.75 369.75,40.75 C370.3281,40.75 370.9375,40.9063 371.4063,41.1563 C371.8906,41.4375 372.0625,41.6563 372.1563,42.0625 C372.2188,42.4688 372.25,42.5938 372.3906,42.7188 C372.5313,42.8594 372.7656,42.9688 372.9844,42.9688 C373.25,42.9688 373.5156,42.8281 373.6875,42.6094 C373.7969,42.4531 373.8281,42.2656 373.8281,41.8438 L373.8281,40.4219 C373.8281,39.9844 373.8125,39.8594 373.7188,39.7031 C373.5625,39.4375 373.2813,39.2969 372.9844,39.2969 C372.6875,39.2969 372.4844,39.3906 372.2656,39.7031 L372.0938,39.625 Z " fill="#000000"/><text fill="#000000" font-family="sans-serif" font-size="12" lengthAdjust="spacing" textLength="35" x="390.25" y="48.1074">Game</text><line style="stroke:#A80036;stroke-width:1.5;" x1="302.5" x2="480.5" y1="59.9531" y2="59.9531"/><line style="stroke:#A80036;stroke-width:1.5;" x1="302.5" x2="480.5" y1="67.9531" y2="67.9531"/><ellipse cx="312.5" cy="78.9531" fill="#84BE84" rx="3" ry="3" style="stroke:#038048;stroke-width:1.0;"/><text fill="#000000" font-family="sans-serif" font-size="11" lengthAdjust="spacing" textLength="115" x="321.5" y="82.1636">set(GameMemento)</text><ellipse cx="312.5" cy="91.7578" fill="#84BE84" rx="3" ry="3" style="stroke:#038048;stroke-width:1.0;"/><text fill="#000000" font-family="sans-serif" font-size="11" lengthAdjust="spacing" textLength="154" x="321.5" y="94.9683">executeAction(string input)</text><ellipse cx="312.5" cy="104.5625" fill="#84BE84" rx="3" ry="3" style="stroke:#038048;stroke-width:1.0;"/><text fill="#000000" font-family="sans-serif" font-size="11" lengthAdjust="spacing" textLength="81" x="321.5" y="107.7729">getMemento()</text><ellipse cx="312.5" cy="117.3672" fill="#84BE84" rx="3" ry="3" style="stroke:#038048;stroke-width:1.0;"/><text fill="#000000" font-family="sans-serif" font-size="11" lengthAdjust="spacing" textLength="58" x="321.5" y="120.5776">takeTurn()</text><ellipse cx="312.5" cy="130.1719" fill="#84BE84" rx="3" ry="3" style="stroke:#038048;stroke-width:1.0;"/><text fill="#000000" font-family="sans-serif" font-size="11" lengthAdjust="spacing" textLength="75" x="321.5" y="133.3823">changeTurn()</text><ellipse cx="312.5" cy="142.9766" fill="#84BE84" rx="3" ry="3" style="stroke:#038048;stroke-width:1.0;"/><text fill="#000000" font-family="sans-serif" font-size="11" lengthAdjust="spacing" textLength="68" x="321.5" y="146.187">hasWinner()</text><!--MD5=[dd91eae41778c45e12552e5329e240e8]
class Turn--><rect codeLine="25" fill="#FEFECE" filter="url(#f11dzo7mlaq1hx)" height="188.8516" id="Turn" style="stroke:#A80036;stroke-width:1.5;" width="203" x="184" y="213.9531"/><ellipse cx="268.25" cy="229.9531" fill="#ADD1B2" rx="11" ry="11" style="stroke:#A80036;stroke-width:1.0;"/><path d="M270.5938,225.625 C269.6563,225.1875 269.0625,225.0469 268.1875,225.0469 C265.5625,225.0469 263.5625,227.125 263.5625,229.8438 L263.5625,230.9688 C263.5625,233.5469 265.6719,235.4375 268.5625,235.4375 C269.7813,235.4375 270.9375,235.1406 271.6875,234.5938 C272.2656,234.1875 272.5938,233.7344 272.5938,233.3438 C272.5938,232.8906 272.2031,232.5 271.7344,232.5 C271.5156,232.5 271.3125,232.5781 271.125,232.7656 C270.6719,233.25 270.6719,233.25 270.4844,233.3438 C270.0625,233.6094 269.375,233.7344 268.6094,233.7344 C266.5625,233.7344 265.2656,232.6406 265.2656,230.9375 L265.2656,229.8438 C265.2656,228.0625 266.5156,226.75 268.25,226.75 C268.8281,226.75 269.4375,226.9063 269.9063,227.1563 C270.3906,227.4375 270.5625,227.6563 270.6563,228.0625 C270.7188,228.4688 270.75,228.5938 270.8906,228.7188 C271.0313,228.8594 271.2656,228.9688 271.4844,228.9688 C271.75,228.9688 272.0156,228.8281 272.1875,228.6094 C272.2969,228.4531 272.3281,228.2656 272.3281,227.8438 L272.3281,226.4219 C272.3281,225.9844 272.3125,225.8594 272.2188,225.7031 C272.0625,225.4375 271.7813,225.2969 271.4844,225.2969 C271.1875,225.2969 270.9844,225.3906 270.7656,225.7031 L270.5938,225.625 Z " fill="#000000"/><text fill="#000000" font-family="sans-serif" font-size="12" lengthAdjust="spacing" textLength="26" x="288.75" y="234.1074">Turn</text><line style="stroke:#A80036;stroke-width:1.5;" x1="185" x2="386" y1="245.9531" y2="245.9531"/><rect fill="none" height="6" style="stroke:#C82930;stroke-width:1.0;" width="6" x="192" y="253.9531"/><text fill="#000000" font-family="sans-serif" font-size="11" lengthAdjust="spacing" textLength="75" x="204" y="260.1636">currentPlayer</text><rect fill="none" height="6" style="stroke:#C82930;stroke-width:1.0;" width="6" x="192" y="266.7578"/><text fill="#000000" font-family="sans-serif" font-size="11" lengthAdjust="spacing" textLength="132" x="204" y="272.9683">turnsAfterEmptyPounch</text><line style="stroke:#A80036;stroke-width:1.5;" x1="185" x2="386" y1="279.5625" y2="279.5625"/><ellipse cx="195" cy="290.5625" fill="#84BE84" rx="3" ry="3" style="stroke:#038048;stroke-width:1.0;"/><text fill="#000000" font-family="sans-serif" font-size="11" lengthAdjust="spacing" textLength="75" x="204" y="293.7729">take(): Player</text><ellipse cx="195" cy="303.3672" fill="#84BE84" rx="3" ry="3" style="stroke:#038048;stroke-width:1.0;"/><text fill="#000000" font-family="sans-serif" font-size="11" lengthAdjust="spacing" textLength="50" x="204" y="306.5776">change()</text><ellipse cx="195" cy="316.1719" fill="#84BE84" rx="3" ry="3" style="stroke:#038048;stroke-width:1.0;"/><text fill="#000000" font-family="sans-serif" font-size="11" lengthAdjust="spacing" textLength="69" x="204" y="319.3823">isEnd(): bool</text><ellipse cx="195" cy="328.9766" fill="#84BE84" rx="3" ry="3" style="stroke:#038048;stroke-width:1.0;"/><text fill="#000000" font-family="sans-serif" font-size="11" lengthAdjust="spacing" textLength="157" x="204" y="332.187">getWinnerByPoints(): Player</text><ellipse cx="195" cy="341.7813" fill="#84BE84" rx="3" ry="3" style="stroke:#038048;stroke-width:1.0;"/><text fill="#000000" font-family="sans-serif" font-size="11" lengthAdjust="spacing" textLength="147" x="204" y="344.9917">hasWinnerByPoints(): bool</text><ellipse cx="195" cy="354.5859" fill="#84BE84" rx="3" ry="3" style="stroke:#038048;stroke-width:1.0;"/><text fill="#000000" font-family="sans-serif" font-size="11" lengthAdjust="spacing" textLength="98" x="204" y="357.7964">save(): SnapShot</text><ellipse cx="195" cy="367.3906" fill="#84BE84" rx="3" ry="3" style="stroke:#038048;stroke-width:1.0;"/><text fill="#000000" font-family="sans-serif" font-size="11" lengthAdjust="spacing" textLength="102" x="204" y="370.6011">restore(Snapshot)</text><ellipse cx="195" cy="380.1953" fill="#84BE84" rx="3" ry="3" style="stroke:#038048;stroke-width:1.0;"/><text fill="#000000" font-family="sans-serif" font-size="11" lengthAdjust="spacing" textLength="177" x="204" y="383.4058">getMemento(): GameMemento</text><ellipse cx="195" cy="393" fill="#84BE84" rx="3" ry="3" style="stroke:#038048;stroke-width:1.0;"/><text fill="#000000" font-family="sans-serif" font-size="11" lengthAdjust="spacing" textLength="138" x="204" y="396.2104">restore(GameMemento)</text><!--MD5=[c0b936abb008b3271898d4186b5531e4]
class Table--><rect codeLine="41" fill="#FEFECE" filter="url(#f11dzo7mlaq1hx)" height="150.4375" id="Table" style="stroke:#A80036;stroke-width:1.5;" width="365" x="22" y="674.9531"/><ellipse cx="183.75" cy="690.9531" fill="#ADD1B2" rx="11" ry="11" style="stroke:#A80036;stroke-width:1.0;"/><path d="M186.0938,686.625 C185.1563,686.1875 184.5625,686.0469 183.6875,686.0469 C181.0625,686.0469 179.0625,688.125 179.0625,690.8438 L179.0625,691.9688 C179.0625,694.5469 181.1719,696.4375 184.0625,696.4375 C185.2813,696.4375 186.4375,696.1406 187.1875,695.5938 C187.7656,695.1875 188.0938,694.7344 188.0938,694.3438 C188.0938,693.8906 187.7031,693.5 187.2344,693.5 C187.0156,693.5 186.8125,693.5781 186.625,693.7656 C186.1719,694.25 186.1719,694.25 185.9844,694.3438 C185.5625,694.6094 184.875,694.7344 184.1094,694.7344 C182.0625,694.7344 180.7656,693.6406 180.7656,691.9375 L180.7656,690.8438 C180.7656,689.0625 182.0156,687.75 183.75,687.75 C184.3281,687.75 184.9375,687.9063 185.4063,688.1563 C185.8906,688.4375 186.0625,688.6563 186.1563,689.0625 C186.2188,689.4688 186.25,689.5938 186.3906,689.7188 C186.5313,689.8594 186.7656,689.9688 186.9844,689.9688 C187.25,689.9688 187.5156,689.8281 187.6875,689.6094 C187.7969,689.4531 187.8281,689.2656 187.8281,688.8438 L187.8281,687.4219 C187.8281,686.9844 187.8125,686.8594 187.7188,686.7031 C187.5625,686.4375 187.2813,686.2969 186.9844,686.2969 C186.6875,686.2969 186.4844,686.3906 186.2656,686.7031 L186.0938,686.625 Z " fill="#000000"/><text fill="#000000" font-family="sans-serif" font-size="12" lengthAdjust="spacing" textLength="33" x="204.25" y="695.1074">Table</text><line style="stroke:#A80036;stroke-width:1.5;" x1="23" x2="386" y1="706.9531" y2="706.9531"/><line style="stroke:#A80036;stroke-width:1.5;" x1="23" x2="386" y1="714.9531" y2="714.9531"/><ellipse cx="33" cy="725.9531" fill="#84BE84" rx="3" ry="3" style="stroke:#038048;stroke-width:1.0;"/><text fill="#000000" font-family="sans-serif" font-size="11" lengthAdjust="spacing" textLength="48" x="42" y="729.1636">extract()</text><ellipse cx="33" cy="738.7578" fill="#84BE84" rx="3" ry="3" style="stroke:#038048;stroke-width:1.0;"/><text fill="#000000" font-family="sans-serif" font-size="11" lengthAdjust="spacing" textLength="187" x="42" y="741.9683">addTileToGroup(tile, groupIndex)</text><ellipse cx="33" cy="751.5625" fill="#84BE84" rx="3" ry="3" style="stroke:#038048;stroke-width:1.0;"/><text fill="#000000" font-family="sans-serif" font-size="11" lengthAdjust="spacing" textLength="183" x="42" y="754.7729">isValidInsertion(tile, groupIndex)</text><ellipse cx="33" cy="764.3672" fill="#84BE84" rx="3" ry="3" style="stroke:#038048;stroke-width:1.0;"/><text fill="#000000" font-family="sans-serif" font-size="11" lengthAdjust="spacing" textLength="339" x="42" y="767.5776">moveTileFromOriginToTarget(tile, originGroup, targetGroup)</text><ellipse cx="33" cy="777.1719" fill="#84BE84" rx="3" ry="3" style="stroke:#038048;stroke-width:1.0;"/><text fill="#000000" font-family="sans-serif" font-size="11" lengthAdjust="spacing" textLength="116" x="42" y="780.3823">isValidGroups(): bool</text><ellipse cx="33" cy="789.9766" fill="#84BE84" rx="3" ry="3" style="stroke:#038048;stroke-width:1.0;"/><text fill="#000000" font-family="sans-serif" font-size="11" lengthAdjust="spacing" textLength="124" x="42" y="793.187">isEmptyPounch(): bool</text><ellipse cx="33" cy="802.7813" fill="#84BE84" rx="3" ry="3" style="stroke:#038048;stroke-width:1.0;"/><text fill="#000000" font-family="sans-serif" font-size="11" lengthAdjust="spacing" textLength="159" x="42" y="805.9917">hasGroup(indexGroup): bool</text><ellipse cx="33" cy="815.5859" fill="#84BE84" rx="3" ry="3" style="stroke:#038048;stroke-width:1.0;"/><text fill="#000000" font-family="sans-serif" font-size="11" lengthAdjust="spacing" textLength="148" x="42" y="818.7964">existTileInTable(tile): bool</text><!--MD5=[2cb47ba637a0d19583e6199456f6ad0b]
class Player--><rect codeLine="57" fill="#FEFECE" filter="url(#f11dzo7mlaq1hx)" height="150.4375" id="Player" style="stroke:#A80036;stroke-width:1.5;" width="145" x="368" y="463.9531"/><ellipse cx="418.25" cy="479.9531" fill="#ADD1B2" rx="11" ry="11" style="stroke:#A80036;stroke-width:1.0;"/><path d="M420.5938,475.625 C419.6563,475.1875 419.0625,475.0469 418.1875,475.0469 C415.5625,475.0469 413.5625,477.125 413.5625,479.8438 L413.5625,480.9688 C413.5625,483.5469 415.6719,485.4375 418.5625,485.4375 C419.7813,485.4375 420.9375,485.1406 421.6875,484.5938 C422.2656,484.1875 422.5938,483.7344 422.5938,483.3438 C422.5938,482.8906 422.2031,482.5 421.7344,482.5 C421.5156,482.5 421.3125,482.5781 421.125,482.7656 C420.6719,483.25 420.6719,483.25 420.4844,483.3438 C420.0625,483.6094 419.375,483.7344 418.6094,483.7344 C416.5625,483.7344 415.2656,482.6406 415.2656,480.9375 L415.2656,479.8438 C415.2656,478.0625 416.5156,476.75 418.25,476.75 C418.8281,476.75 419.4375,476.9063 419.9063,477.1563 C420.3906,477.4375 420.5625,477.6563 420.6563,478.0625 C420.7188,478.4688 420.75,478.5938 420.8906,478.7188 C421.0313,478.8594 421.2656,478.9688 421.4844,478.9688 C421.75,478.9688 422.0156,478.8281 422.1875,478.6094 C422.2969,478.4531 422.3281,478.2656 422.3281,477.8438 L422.3281,476.4219 C422.3281,475.9844 422.3125,475.8594 422.2188,475.7031 C422.0625,475.4375 421.7813,475.2969 421.4844,475.2969 C421.1875,475.2969 420.9844,475.3906 420.7656,475.7031 L420.5938,475.625 Z " fill="#000000"/><text fill="#000000" font-family="sans-serif" font-size="12" lengthAdjust="spacing" textLength="36" x="438.75" y="484.1074">Player</text><line style="stroke:#A80036;stroke-width:1.5;" x1="369" x2="512" y1="495.9531" y2="495.9531"/><line style="stroke:#A80036;stroke-width:1.5;" x1="369" x2="512" y1="503.9531" y2="503.9531"/><ellipse cx="379" cy="514.9531" fill="#84BE84" rx="3" ry="3" style="stroke:#038048;stroke-width:1.0;"/><text fill="#000000" font-family="sans-serif" font-size="11" lengthAdjust="spacing" textLength="69" x="388" y="518.1636">extractTile()</text><ellipse cx="379" cy="527.7578" fill="#84BE84" rx="3" ry="3" style="stroke:#038048;stroke-width:1.0;"/><text fill="#000000" font-family="sans-serif" font-size="11" lengthAdjust="spacing" textLength="91" x="388" y="530.9683">executeAction()</text><ellipse cx="379" cy="540.5625" fill="#84BE84" rx="3" ry="3" style="stroke:#038048;stroke-width:1.0;"/><text fill="#000000" font-family="sans-serif" font-size="11" lengthAdjust="spacing" textLength="57" x="388" y="543.7729">isWinner()</text><ellipse cx="379" cy="553.3672" fill="#84BE84" rx="3" ry="3" style="stroke:#038048;stroke-width:1.0;"/><text fill="#000000" font-family="sans-serif" font-size="11" lengthAdjust="spacing" textLength="60" x="388" y="556.5776">getPoints()</text><ellipse cx="379" cy="566.1719" fill="#84BE84" rx="3" ry="3" style="stroke:#038048;stroke-width:1.0;"/><text fill="#000000" font-family="sans-serif" font-size="11" lengthAdjust="spacing" textLength="64" x="388" y="569.3823">isResume()</text><ellipse cx="379" cy="578.9766" fill="#84BE84" rx="3" ry="3" style="stroke:#038048;stroke-width:1.0;"/><text fill="#000000" font-family="sans-serif" font-size="11" lengthAdjust="spacing" textLength="38" x="388" y="582.187">isEnd()</text><ellipse cx="379" cy="591.7813" fill="#84BE84" rx="3" ry="3" style="stroke:#038048;stroke-width:1.0;"/><text fill="#000000" font-family="sans-serif" font-size="11" lengthAdjust="spacing" textLength="85" x="388" y="594.9917">getLastAction()</text><ellipse cx="379" cy="604.5859" fill="#84BE84" rx="3" ry="3" style="stroke:#038048;stroke-width:1.0;"/><text fill="#000000" font-family="sans-serif" font-size="11" lengthAdjust="spacing" textLength="119" x="388" y="607.7964">executeAction(input)</text><!--MD5=[dc7c7e128afb943b6ff798915202b1a3]
class Pounch--><rect codeLine="52" fill="#FEFECE" filter="url(#f11dzo7mlaq1hx)" height="73.6094" id="Pounch" style="stroke:#A80036;stroke-width:1.5;" width="110" x="277.5" y="923.9531"/><ellipse cx="308.7" cy="939.9531" fill="#ADD1B2" rx="11" ry="11" style="stroke:#A80036;stroke-width:1.0;"/><path d="M311.0438,935.625 C310.1063,935.1875 309.5125,935.0469 308.6375,935.0469 C306.0125,935.0469 304.0125,937.125 304.0125,939.8438 L304.0125,940.9688 C304.0125,943.5469 306.1219,945.4375 309.0125,945.4375 C310.2313,945.4375 311.3875,945.1406 312.1375,944.5938 C312.7156,944.1875 313.0438,943.7344 313.0438,943.3438 C313.0438,942.8906 312.6531,942.5 312.1844,942.5 C311.9656,942.5 311.7625,942.5781 311.575,942.7656 C311.1219,943.25 311.1219,943.25 310.9344,943.3438 C310.5125,943.6094 309.825,943.7344 309.0594,943.7344 C307.0125,943.7344 305.7156,942.6406 305.7156,940.9375 L305.7156,939.8438 C305.7156,938.0625 306.9656,936.75 308.7,936.75 C309.2781,936.75 309.8875,936.9063 310.3563,937.1563 C310.8406,937.4375 311.0125,937.6563 311.1063,938.0625 C311.1688,938.4688 311.2,938.5938 311.3406,938.7188 C311.4813,938.8594 311.7156,938.9688 311.9344,938.9688 C312.2,938.9688 312.4656,938.8281 312.6375,938.6094 C312.7469,938.4531 312.7781,938.2656 312.7781,937.8438 L312.7781,936.4219 C312.7781,935.9844 312.7625,935.8594 312.6688,935.7031 C312.5125,935.4375 312.2313,935.2969 311.9344,935.2969 C311.6375,935.2969 311.4344,935.3906 311.2156,935.7031 L311.0438,935.625 Z " fill="#000000"/><text fill="#000000" font-family="sans-serif" font-size="12" lengthAdjust="spacing" textLength="42" x="326.3" y="944.1074">Pounch</text><line style="stroke:#A80036;stroke-width:1.5;" x1="278.5" x2="386.5" y1="955.9531" y2="955.9531"/><line style="stroke:#A80036;stroke-width:1.5;" x1="278.5" x2="386.5" y1="963.9531" y2="963.9531"/><ellipse cx="288.5" cy="974.9531" fill="#84BE84" rx="3" ry="3" style="stroke:#038048;stroke-width:1.0;"/><text fill="#000000" font-family="sans-serif" font-size="11" lengthAdjust="spacing" textLength="48" x="297.5" y="978.1636">extract()</text><ellipse cx="288.5" cy="987.7578" fill="#84BE84" rx="3" ry="3" style="stroke:#038048;stroke-width:1.0;"/><text fill="#000000" font-family="sans-serif" font-size="11" lengthAdjust="spacing" textLength="84" x="297.5" y="990.9683">isEmpty(): bool</text><!--MD5=[3bdfdc669000278f0162822a74784876]
class TilesGroup--><rect codeLine="68" fill="#FEFECE" filter="url(#f11dzo7mlaq1hx)" height="112.0234" id="TilesGroup" style="stroke:#A80036;stroke-width:1.5;" width="179" x="63" y="904.9531"/><ellipse cx="116.75" cy="920.9531" fill="#A9DCDF" rx="11" ry="11" style="stroke:#A80036;stroke-width:1.0;"/><path d="M118.8281,922.7656 L119.2188,923.75 L118.8281,923.75 C118.375,923.75 118.2656,923.7656 118.1094,923.875 C117.8594,924.0313 117.7031,924.3125 117.7031,924.6094 C117.7031,924.875 117.8438,925.125 118.0625,925.2813 C118.2031,925.4063 118.4063,925.4531 118.8281,925.4531 L121.1875,925.4531 C121.5469,925.4531 121.7656,925.4219 121.9063,925.3281 C122.1563,925.1875 122.3125,924.8906 122.3125,924.6094 C122.3125,924.3281 122.1719,924.0781 121.9531,923.9219 C121.7813,923.7813 121.625,923.75 121.1563,923.75 L117.7656,915.5469 L114.0938,915.5469 C113.6406,915.5469 113.5156,915.5625 113.3594,915.6563 C113.1094,915.8281 112.9531,916.1094 112.9531,916.3906 C112.9531,916.6719 113.0938,916.9219 113.3125,917.0938 C113.4844,917.2031 113.6563,917.2344 114.0938,917.2344 L115.1719,917.2344 L112.5313,923.75 C112.1094,923.75 111.9531,923.7656 111.7969,923.875 C111.5469,924.0313 111.3906,924.3125 111.3906,924.6094 C111.3906,925.1719 111.7656,925.4531 112.5156,925.4531 L114.7813,925.4531 C115.1406,925.4531 115.3594,925.4219 115.4844,925.3281 C115.75,925.1875 115.8906,924.8906 115.8906,924.6094 C115.8906,924.3281 115.7656,924.0781 115.5469,923.9063 C115.375,923.7813 115.2344,923.75 114.7813,923.75 L114.3906,923.75 L114.7813,922.7656 L118.8281,922.7656 Z M118.125,921.0625 L115.4531,921.0625 L116.7969,917.7969 L118.125,921.0625 Z " fill="#000000"/><text fill="#000000" font-family="sans-serif" font-size="12" font-style="italic" lengthAdjust="spacing" textLength="63" x="137.25" y="925.1074">TilesGroup</text><line style="stroke:#A80036;stroke-width:1.5;" x1="64" x2="241" y1="936.9531" y2="936.9531"/><line style="stroke:#A80036;stroke-width:1.5;" x1="64" x2="241" y1="944.9531" y2="944.9531"/><ellipse cx="74" cy="955.9531" fill="#84BE84" rx="3" ry="3" style="stroke:#038048;stroke-width:1.0;"/><text fill="#000000" font-family="sans-serif" font-size="11" lengthAdjust="spacing" textLength="68" x="83" y="959.1636">addTile(tile)</text><ellipse cx="74" cy="968.7578" fill="#84BE84" rx="3" ry="3" style="stroke:#038048;stroke-width:1.0;"/><text fill="#000000" font-family="sans-serif" font-size="11" lengthAdjust="spacing" textLength="45" x="83" y="971.9683">isValid()</text><ellipse cx="74" cy="981.5625" fill="#84BE84" rx="3" ry="3" style="stroke:#038048;stroke-width:1.0;"/><text fill="#000000" font-family="sans-serif" font-size="11" lengthAdjust="spacing" textLength="95" x="83" y="984.7729">removeTile(Tile)</text><ellipse cx="74" cy="994.3672" fill="#84BE84" rx="3" ry="3" style="stroke:#038048;stroke-width:1.0;"/><text fill="#000000" font-family="sans-serif" font-size="11" lengthAdjust="spacing" textLength="153" x="83" y="997.5776">hasIndex(indexGroup):bool</text><ellipse cx="74" cy="1007.1719" fill="#84BE84" rx="3" ry="3" style="stroke:#038048;stroke-width:1.0;"/><text fill="#000000" font-family="sans-serif" font-size="11" lengthAdjust="spacing" textLength="94" x="83" y="1010.3823">getTile(tile): Tile</text><!--MD5=[18e4d9ca2a6cdced7b66e5fef94ef6f6]
class Tile--><rect codeLine="76" fill="#FEFECE" filter="url(#f11dzo7mlaq1hx)" height="163.2422" id="Tile" style="stroke:#A80036;stroke-width:1.5;" width="204" x="121.5" y="1103.4531"/><ellipse cx="208.75" cy="1119.4531" fill="#ADD1B2" rx="11" ry="11" style="stroke:#A80036;stroke-width:1.0;"/><path d="M211.0938,1115.125 C210.1563,1114.6875 209.5625,1114.5469 208.6875,1114.5469 C206.0625,1114.5469 204.0625,1116.625 204.0625,1119.3438 L204.0625,1120.4688 C204.0625,1123.0469 206.1719,1124.9375 209.0625,1124.9375 C210.2813,1124.9375 211.4375,1124.6406 212.1875,1124.0938 C212.7656,1123.6875 213.0938,1123.2344 213.0938,1122.8438 C213.0938,1122.3906 212.7031,1122 212.2344,1122 C212.0156,1122 211.8125,1122.0781 211.625,1122.2656 C211.1719,1122.75 211.1719,1122.75 210.9844,1122.8438 C210.5625,1123.1094 209.875,1123.2344 209.1094,1123.2344 C207.0625,1123.2344 205.7656,1122.1406 205.7656,1120.4375 L205.7656,1119.3438 C205.7656,1117.5625 207.0156,1116.25 208.75,1116.25 C209.3281,1116.25 209.9375,1116.4063 210.4063,1116.6563 C210.8906,1116.9375 211.0625,1117.1563 211.1563,1117.5625 C211.2188,1117.9688 211.25,1118.0938 211.3906,1118.2188 C211.5313,1118.3594 211.7656,1118.4688 211.9844,1118.4688 C212.25,1118.4688 212.5156,1118.3281 212.6875,1118.1094 C212.7969,1117.9531 212.8281,1117.7656 212.8281,1117.3438 L212.8281,1115.9219 C212.8281,1115.4844 212.8125,1115.3594 212.7188,1115.2031 C212.5625,1114.9375 212.2813,1114.7969 211.9844,1114.7969 C211.6875,1114.7969 211.4844,1114.8906 211.2656,1115.2031 L211.0938,1115.125 Z " fill="#000000"/><text fill="#000000" font-family="sans-serif" font-size="12" lengthAdjust="spacing" textLength="21" x="229.25" y="1123.6074">Tile</text><line style="stroke:#A80036;stroke-width:1.5;" x1="122.5" x2="324.5" y1="1135.4531" y2="1135.4531"/><line style="stroke:#A80036;stroke-width:1.5;" x1="122.5" x2="324.5" y1="1143.4531" y2="1143.4531"/><ellipse cx="132.5" cy="1154.4531" fill="#84BE84" rx="3" ry="3" style="stroke:#038048;stroke-width:1.0;"/><text fill="#000000" font-family="sans-serif" font-size="11" lengthAdjust="spacing" textLength="72" x="141.5" y="1157.6636">getNumber()</text><ellipse cx="132.5" cy="1167.2578" fill="#84BE84" rx="3" ry="3" style="stroke:#038048;stroke-width:1.0;"/><text fill="#000000" font-family="sans-serif" font-size="11" lengthAdjust="spacing" textLength="134" x="141.5" y="1170.4683">isNumberLessThan(tile)</text><ellipse cx="132.5" cy="1180.0625" fill="#84BE84" rx="3" ry="3" style="stroke:#038048;stroke-width:1.0;"/><text fill="#000000" font-family="sans-serif" font-size="11" lengthAdjust="spacing" textLength="152" x="141.5" y="1183.2729">isNumberGreaterThan(tile)</text><ellipse cx="132.5" cy="1192.8672" fill="#84BE84" rx="3" ry="3" style="stroke:#038048;stroke-width:1.0;"/><text fill="#000000" font-family="sans-serif" font-size="11" lengthAdjust="spacing" textLength="115" x="141.5" y="1196.0776">isColorEqualsTo(tile)</text><ellipse cx="132.5" cy="1205.6719" fill="#84BE84" rx="3" ry="3" style="stroke:#038048;stroke-width:1.0;"/><text fill="#000000" font-family="sans-serif" font-size="11" lengthAdjust="spacing" textLength="136" x="141.5" y="1208.8823">isNumberDistinctTo(tile)</text><ellipse cx="132.5" cy="1218.4766" fill="#84BE84" rx="3" ry="3" style="stroke:#038048;stroke-width:1.0;"/><text fill="#000000" font-family="sans-serif" font-size="11" lengthAdjust="spacing" textLength="178" x="141.5" y="1221.687">isNumberLessOrEqualThan(tile)</text><ellipse cx="132.5" cy="1231.2813" fill="#84BE84" rx="3" ry="3" style="stroke:#038048;stroke-width:1.0;"/><text fill="#000000" font-family="sans-serif" font-size="11" lengthAdjust="spacing" textLength="106" x="141.5" y="1234.4917">isColorDistinct(tile)</text><ellipse cx="132.5" cy="1244.0859" fill="#84BE84" rx="3" ry="3" style="stroke:#038048;stroke-width:1.0;"/><text fill="#000000" font-family="sans-serif" font-size="11" lengthAdjust="spacing" textLength="125" x="141.5" y="1247.2964">isNumberEqualTo(tile)</text><ellipse cx="132.5" cy="1256.8906" fill="#84BE84" rx="3" ry="3" style="stroke:#038048;stroke-width:1.0;"/><text fill="#000000" font-family="sans-serif" font-size="11" lengthAdjust="spacing" textLength="57" x="141.5" y="1260.1011">clone(tile)</text><!--MD5=[de2e2682f4ba254da1b1f1a3ec16a03f]
class GameMemento--><rect codeLine="181" fill="#FEFECE" filter="url(#f11dzo7mlaq1hx)" height="124.8281" id="GameMemento" style="stroke:#A80036;stroke-width:1.5;" width="225" x="7" y="476.4531"/><ellipse cx="69.75" cy="492.4531" fill="#ADD1B2" rx="11" ry="11" style="stroke:#A80036;stroke-width:1.0;"/><path d="M72.0938,488.125 C71.1563,487.6875 70.5625,487.5469 69.6875,487.5469 C67.0625,487.5469 65.0625,489.625 65.0625,492.3438 L65.0625,493.4688 C65.0625,496.0469 67.1719,497.9375 70.0625,497.9375 C71.2813,497.9375 72.4375,497.6406 73.1875,497.0938 C73.7656,496.6875 74.0938,496.2344 74.0938,495.8438 C74.0938,495.3906 73.7031,495 73.2344,495 C73.0156,495 72.8125,495.0781 72.625,495.2656 C72.1719,495.75 72.1719,495.75 71.9844,495.8438 C71.5625,496.1094 70.875,496.2344 70.1094,496.2344 C68.0625,496.2344 66.7656,495.1406 66.7656,493.4375 L66.7656,492.3438 C66.7656,490.5625 68.0156,489.25 69.75,489.25 C70.3281,489.25 70.9375,489.4063 71.4063,489.6563 C71.8906,489.9375 72.0625,490.1563 72.1563,490.5625 C72.2188,490.9688 72.25,491.0938 72.3906,491.2188 C72.5313,491.3594 72.7656,491.4688 72.9844,491.4688 C73.25,491.4688 73.5156,491.3281 73.6875,491.1094 C73.7969,490.9531 73.8281,490.7656 73.8281,490.3438 L73.8281,488.9219 C73.8281,488.4844 73.8125,488.3594 73.7188,488.2031 C73.5625,487.9375 73.2813,487.7969 72.9844,487.7969 C72.6875,487.7969 72.4844,487.8906 72.2656,488.2031 L72.0938,488.125 Z " fill="#000000"/><text fill="#000000" font-family="sans-serif" font-size="12" lengthAdjust="spacing" textLength="91" x="90.25" y="496.6074">GameMemento</text><line style="stroke:#A80036;stroke-width:1.5;" x1="8" x2="231" y1="508.4531" y2="508.4531"/><line style="stroke:#A80036;stroke-width:1.5;" x1="8" x2="231" y1="516.4531" y2="516.4531"/><ellipse cx="18" cy="527.4531" fill="#84BE84" rx="3" ry="3" style="stroke:#038048;stroke-width:1.0;"/><text fill="#000000" font-family="sans-serif" font-size="11" lengthAdjust="spacing" textLength="134" x="27" y="530.6636">getPlayersNumber(): int</text><ellipse cx="18" cy="540.2578" fill="#84BE84" rx="3" ry="3" style="stroke:#038048;stroke-width:1.0;"/><text fill="#000000" font-family="sans-serif" font-size="11" lengthAdjust="spacing" textLength="125" x="27" y="543.4683">getCurrentPlayer(): int</text><ellipse cx="18" cy="553.0625" fill="#84BE84" rx="3" ry="3" style="stroke:#038048;stroke-width:1.0;"/><text fill="#000000" font-family="sans-serif" font-size="11" lengthAdjust="spacing" textLength="183" x="27" y="556.2729">getTurnsAfterEmptyPounch(): int</text><ellipse cx="18" cy="565.8672" fill="#84BE84" rx="3" ry="3" style="stroke:#038048;stroke-width:1.0;"/><text fill="#000000" font-family="sans-serif" font-size="11" lengthAdjust="spacing" textLength="199" x="27" y="569.0776">getPlayerState(playerIndex): string</text><ellipse cx="18" cy="578.6719" fill="#84BE84" rx="3" ry="3" style="stroke:#038048;stroke-width:1.0;"/><text fill="#000000" font-family="sans-serif" font-size="11" lengthAdjust="spacing" textLength="132" x="27" y="581.8823">getTilesPounch(): string</text><ellipse cx="18" cy="591.4766" fill="#84BE84" rx="3" ry="3" style="stroke:#038048;stroke-width:1.0;"/><text fill="#000000" font-family="sans-serif" font-size="11" lengthAdjust="spacing" textLength="126" x="27" y="594.687">getTilesGroup(): string</text><!--MD5=[ed26f6b12c6467a8f3040c59fc5b4465]
class CommandParser--><rect fill="#FEFECE" filter="url(#f11dzo7mlaq1hx)" height="48" id="CommandParser" style="stroke:#A80036;stroke-width:1.5;" width="130" x="969.5" y="725.9531"/><ellipse cx="984.5" cy="741.9531" fill="#ADD1B2" rx="11" ry="11" style="stroke:#A80036;stroke-width:1.0;"/><path d="M986.8438,737.625 C985.9063,737.1875 985.3125,737.0469 984.4375,737.0469 C981.8125,737.0469 979.8125,739.125 979.8125,741.8438 L979.8125,742.9688 C979.8125,745.5469 981.9219,747.4375 984.8125,747.4375 C986.0313,747.4375 987.1875,747.1406 987.9375,746.5938 C988.5156,746.1875 988.8438,745.7344 988.8438,745.3438 C988.8438,744.8906 988.4531,744.5 987.9844,744.5 C987.7656,744.5 987.5625,744.5781 987.375,744.7656 C986.9219,745.25 986.9219,745.25 986.7344,745.3438 C986.3125,745.6094 985.625,745.7344 984.8594,745.7344 C982.8125,745.7344 981.5156,744.6406 981.5156,742.9375 L981.5156,741.8438 C981.5156,740.0625 982.7656,738.75 984.5,738.75 C985.0781,738.75 985.6875,738.9063 986.1563,739.1563 C986.6406,739.4375 986.8125,739.6563 986.9063,740.0625 C986.9688,740.4688 987,740.5938 987.1406,740.7188 C987.2813,740.8594 987.5156,740.9688 987.7344,740.9688 C988,740.9688 988.2656,740.8281 988.4375,740.6094 C988.5469,740.4531 988.5781,740.2656 988.5781,739.8438 L988.5781,738.4219 C988.5781,737.9844 988.5625,737.8594 988.4688,737.7031 C988.3125,737.4375 988.0313,737.2969 987.7344,737.2969 C987.4375,737.2969 987.2344,737.3906 987.0156,737.7031 L986.8438,737.625 Z " fill="#000000"/><text fill="#000000" font-family="sans-serif" font-size="12" lengthAdjust="spacing" textLength="98" x="998.5" y="746.1074">CommandParser</text><line style="stroke:#A80036;stroke-width:1.5;" x1="970.5" x2="1098.5" y1="757.9531" y2="757.9531"/><line style="stroke:#A80036;stroke-width:1.5;" x1="970.5" x2="1098.5" y1="765.9531" y2="765.9531"/><!--MD5=[a0f202f3fdecae7e3cf78223de49c9d8]
class IExpression--><rect codeLine="91" fill="#FEFECE" filter="url(#f11dzo7mlaq1hx)" height="60.8047" id="IExpression" style="stroke:#A80036;stroke-width:1.5;" width="179" x="753" y="930.4531"/><ellipse cx="803.75" cy="946.4531" fill="#B4A7E5" rx="11" ry="11" style="stroke:#A80036;stroke-width:1.0;"/><path d="M804.7031,943.2344 L806.4219,943.2344 C806.8125,943.2344 807,943.2031 807.125,943.125 C807.3906,942.9688 807.5313,942.6875 807.5313,942.3906 C807.5313,942.125 807.4219,941.8594 807.1875,941.6875 C807.0156,941.5781 806.875,941.5469 806.4219,941.5469 L801.2813,941.5469 C800.8438,941.5469 800.7188,941.5625 800.5625,941.6563 C800.3125,941.8125 800.1563,942.1094 800.1563,942.3906 C800.1563,942.6719 800.2969,942.9219 800.5156,943.0938 C800.6719,943.2031 800.8594,943.2344 801.2813,943.2344 L803,943.2344 L803,949.75 L801.2813,949.75 C800.8438,949.75 800.7188,949.7656 800.5625,949.875 C800.3125,950.0313 800.1563,950.3125 800.1563,950.6094 C800.1563,950.8594 800.2969,951.125 800.5156,951.2813 C800.6719,951.4063 800.875,951.4531 801.2813,951.4531 L806.4219,951.4531 C807.1719,951.4531 807.5313,951.1719 807.5313,950.6094 C807.5313,950.3281 807.4219,950.0781 807.1875,949.9063 C807.0156,949.7813 806.875,949.75 806.4219,949.75 L804.7031,949.75 L804.7031,943.2344 Z " fill="#000000"/><text fill="#000000" font-family="sans-serif" font-size="12" font-style="italic" lengthAdjust="spacing" textLength="69" x="824.25" y="950.6074">IExpression</text><line style="stroke:#A80036;stroke-width:1.5;" x1="754" x2="931" y1="962.4531" y2="962.4531"/><line style="stroke:#A80036;stroke-width:1.5;" x1="754" x2="931" y1="970.4531" y2="970.4531"/><ellipse cx="764" cy="981.4531" fill="#84BE84" rx="3" ry="3" style="stroke:#038048;stroke-width:1.0;"/><text fill="#000000" font-family="sans-serif" font-size="11" lengthAdjust="spacing" textLength="153" x="773" y="984.6636">interpret(IPlayerCommand)</text><!--MD5=[a8702ba2756e1a9e03637e958093e0e3]
class CommandString--><rect codeLine="165" fill="#FEFECE" filter="url(#f11dzo7mlaq1hx)" height="150.4375" id="CommandString" style="stroke:#A80036;stroke-width:1.5;" width="134" x="967.5" y="885.9531"/><ellipse cx="985.65" cy="901.9531" fill="#EB937F" rx="11" ry="11" style="stroke:#A80036;stroke-width:1.0;"/><path d="M984.4469,902.8281 L985.9,902.8281 L985.9,902.9375 C985.9,903.3438 985.9313,903.5 986.0094,903.6563 C986.1656,903.9063 986.4469,904.0625 986.7438,904.0625 C986.9938,904.0625 987.2594,903.9219 987.4156,903.7031 C987.5406,903.5469 987.5719,903.3906 987.5719,902.9375 L987.5719,901.0156 C987.5719,900.8594 987.5719,900.8125 987.5563,900.6563 C987.4938,900.1875 987.1813,899.875 986.7281,899.875 C986.4781,899.875 986.2125,900.0156 986.0406,900.2344 C985.9313,900.4063 985.9,900.5625 985.9,901.0156 L985.9,901.1406 L984.4469,901.1406 L984.4469,898.7344 L988.4313,898.7344 L988.4313,899.5938 C988.4313,900 988.4625,900.1719 988.5406,900.3281 C988.7125,900.5781 988.9938,900.7344 989.275,900.7344 C989.5406,900.7344 989.8063,900.5938 989.9781,900.375 C990.0875,900.2031 990.1188,900.0625 990.1188,899.5938 L990.1188,897.0469 L982.4938,897.0469 C982.0563,897.0469 981.9313,897.0625 981.775,897.1563 C981.525,897.3125 981.3688,897.6094 981.3688,897.8906 C981.3688,898.1719 981.5094,898.4219 981.7281,898.5938 C981.8844,898.7031 982.0719,898.7344 982.4938,898.7344 L982.7438,898.7344 L982.7438,905.25 L982.4938,905.25 C982.0875,905.25 981.9313,905.2656 981.775,905.375 C981.525,905.5469 981.3688,905.8125 981.3688,906.1094 C981.3688,906.375 981.5094,906.625 981.7281,906.7813 C981.8688,906.9063 982.1031,906.9531 982.4938,906.9531 L990.4938,906.9531 L990.4938,904.375 C990.4938,903.9375 990.4625,903.7969 990.3844,903.6406 C990.2125,903.3906 989.9313,903.2344 989.65,903.2344 C989.3844,903.2344 989.1188,903.3438 988.9469,903.5938 C988.8375,903.75 988.8063,903.8906 988.8063,904.375 L988.8063,905.25 L984.4469,905.25 L984.4469,902.8281 Z " fill="#000000"/><text fill="#000000" font-family="sans-serif" font-size="12" lengthAdjust="spacing" textLength="95" x="1000.35" y="906.1074">CommandString</text><line style="stroke:#A80036;stroke-width:1.5;" x1="968.5" x2="1100.5" y1="917.9531" y2="917.9531"/><text fill="#000000" font-family="sans-serif" font-size="11" lengthAdjust="spacing" textLength="72" x="973.5" y="932.1636">PUT = "PUT",</text><text fill="#000000" font-family="sans-serif" font-size="11" lengthAdjust="spacing" textLength="82" x="973.5" y="944.9683">MOV = "MOV";</text><text fill="#000000" font-family="sans-serif" font-size="11" lengthAdjust="spacing" textLength="78" x="973.5" y="957.7729">END = "END";</text><text fill="#000000" font-family="sans-serif" font-size="11" lengthAdjust="spacing" textLength="84" x="973.5" y="970.5776">HELP = "HELP";</text><text fill="#000000" font-family="sans-serif" font-size="11" lengthAdjust="spacing" textLength="98" x="973.5" y="983.3823">UNDO = "UNDO";</text><text fill="#000000" font-family="sans-serif" font-size="11" lengthAdjust="spacing" textLength="94" x="973.5" y="996.187">REDO = "REDO";</text><text fill="#000000" font-family="sans-serif" font-size="11" lengthAdjust="spacing" textLength="122" x="973.5" y="1008.9917">RESUME = "RESUME";</text><text fill="#000000" font-family="sans-serif" font-size="11" lengthAdjust="spacing" textLength="80" x="973.5" y="1021.7964">EXIT = "EXIT";</text><line style="stroke:#A80036;stroke-width:1.5;" x1="968.5" x2="1100.5" y1="1028.3906" y2="1028.3906"/><!--MD5=[dc87e4dbc95b7c20c16cda94435ab20d]
class SubcommandString--><rect codeLine="175" fill="#FEFECE" filter="url(#f11dzo7mlaq1hx)" height="73.6094" id="SubcommandString" style="stroke:#A80036;stroke-width:1.5;" width="149" x="1137" y="923.9531"/><ellipse cx="1152" cy="939.9531" fill="#EB937F" rx="11" ry="11" style="stroke:#A80036;stroke-width:1.0;"/><path d="M1150.7969,940.8281 L1152.25,940.8281 L1152.25,940.9375 C1152.25,941.3438 1152.2813,941.5 1152.3594,941.6563 C1152.5156,941.9063 1152.7969,942.0625 1153.0938,942.0625 C1153.3438,942.0625 1153.6094,941.9219 1153.7656,941.7031 C1153.8906,941.5469 1153.9219,941.3906 1153.9219,940.9375 L1153.9219,939.0156 C1153.9219,938.8594 1153.9219,938.8125 1153.9063,938.6563 C1153.8438,938.1875 1153.5313,937.875 1153.0781,937.875 C1152.8281,937.875 1152.5625,938.0156 1152.3906,938.2344 C1152.2813,938.4063 1152.25,938.5625 1152.25,939.0156 L1152.25,939.1406 L1150.7969,939.1406 L1150.7969,936.7344 L1154.7813,936.7344 L1154.7813,937.5938 C1154.7813,938 1154.8125,938.1719 1154.8906,938.3281 C1155.0625,938.5781 1155.3438,938.7344 1155.625,938.7344 C1155.8906,938.7344 1156.1563,938.5938 1156.3281,938.375 C1156.4375,938.2031 1156.4688,938.0625 1156.4688,937.5938 L1156.4688,935.0469 L1148.8438,935.0469 C1148.4063,935.0469 1148.2813,935.0625 1148.125,935.1563 C1147.875,935.3125 1147.7188,935.6094 1147.7188,935.8906 C1147.7188,936.1719 1147.8594,936.4219 1148.0781,936.5938 C1148.2344,936.7031 1148.4219,936.7344 1148.8438,936.7344 L1149.0938,936.7344 L1149.0938,943.25 L1148.8438,943.25 C1148.4375,943.25 1148.2813,943.2656 1148.125,943.375 C1147.875,943.5469 1147.7188,943.8125 1147.7188,944.1094 C1147.7188,944.375 1147.8594,944.625 1148.0781,944.7813 C1148.2188,944.9063 1148.4531,944.9531 1148.8438,944.9531 L1156.8438,944.9531 L1156.8438,942.375 C1156.8438,941.9375 1156.8125,941.7969 1156.7344,941.6406 C1156.5625,941.3906 1156.2813,941.2344 1156,941.2344 C1155.7344,941.2344 1155.4688,941.3438 1155.2969,941.5938 C1155.1875,941.75 1155.1563,941.8906 1155.1563,942.375 L1155.1563,943.25 L1150.7969,943.25 L1150.7969,940.8281 Z " fill="#000000"/><text fill="#000000" font-family="sans-serif" font-size="12" lengthAdjust="spacing" textLength="117" x="1166" y="944.1074">SubcommandString</text><line style="stroke:#A80036;stroke-width:1.5;" x1="1138" x2="1285" y1="955.9531" y2="955.9531"/><text fill="#000000" font-family="sans-serif" font-size="11" lengthAdjust="spacing" textLength="52" x="1143" y="970.1636">IN = "IN",</text><text fill="#000000" font-family="sans-serif" font-size="11" lengthAdjust="spacing" textLength="89" x="1143" y="982.9683">FROM = "FROM"</text><line style="stroke:#A80036;stroke-width:1.5;" x1="1138" x2="1285" y1="989.5625" y2="989.5625"/><!--MD5=[f668058babd18269e61fdcabcf4b837a]
class ExpPut--><rect fill="#FEFECE" filter="url(#f11dzo7mlaq1hx)" height="48" id="ExpPut" style="stroke:#A80036;stroke-width:1.5;" width="71" x="647" y="1160.9531"/><ellipse cx="662" cy="1176.9531" fill="#ADD1B2" rx="11" ry="11" style="stroke:#A80036;stroke-width:1.0;"/><path d="M664.3438,1172.625 C663.4063,1172.1875 662.8125,1172.0469 661.9375,1172.0469 C659.3125,1172.0469 657.3125,1174.125 657.3125,1176.8438 L657.3125,1177.9688 C657.3125,1180.5469 659.4219,1182.4375 662.3125,1182.4375 C663.5313,1182.4375 664.6875,1182.1406 665.4375,1181.5938 C666.0156,1181.1875 666.3438,1180.7344 666.3438,1180.3438 C666.3438,1179.8906 665.9531,1179.5 665.4844,1179.5 C665.2656,1179.5 665.0625,1179.5781 664.875,1179.7656 C664.4219,1180.25 664.4219,1180.25 664.2344,1180.3438 C663.8125,1180.6094 663.125,1180.7344 662.3594,1180.7344 C660.3125,1180.7344 659.0156,1179.6406 659.0156,1177.9375 L659.0156,1176.8438 C659.0156,1175.0625 660.2656,1173.75 662,1173.75 C662.5781,1173.75 663.1875,1173.9063 663.6563,1174.1563 C664.1406,1174.4375 664.3125,1174.6563 664.4063,1175.0625 C664.4688,1175.4688 664.5,1175.5938 664.6406,1175.7188 C664.7813,1175.8594 665.0156,1175.9688 665.2344,1175.9688 C665.5,1175.9688 665.7656,1175.8281 665.9375,1175.6094 C666.0469,1175.4531 666.0781,1175.2656 666.0781,1174.8438 L666.0781,1173.4219 C666.0781,1172.9844 666.0625,1172.8594 665.9688,1172.7031 C665.8125,1172.4375 665.5313,1172.2969 665.2344,1172.2969 C664.9375,1172.2969 664.7344,1172.3906 664.5156,1172.7031 L664.3438,1172.625 Z " fill="#000000"/><text fill="#000000" font-family="sans-serif" font-size="12" lengthAdjust="spacing" textLength="39" x="676" y="1181.1074">ExpPut</text><line style="stroke:#A80036;stroke-width:1.5;" x1="648" x2="717" y1="1192.9531" y2="1192.9531"/><line style="stroke:#A80036;stroke-width:1.5;" x1="648" x2="717" y1="1200.9531" y2="1200.9531"/><!--MD5=[9177be8ae58b8a1de6d6a4e2b3bf2d6d]
class ExpMov--><rect fill="#FEFECE" filter="url(#f11dzo7mlaq1hx)" height="48" id="ExpMov" style="stroke:#A80036;stroke-width:1.5;" width="79" x="896" y="1160.9531"/><ellipse cx="911" cy="1176.9531" fill="#ADD1B2" rx="11" ry="11" style="stroke:#A80036;stroke-width:1.0;"/><path d="M913.3438,1172.625 C912.4063,1172.1875 911.8125,1172.0469 910.9375,1172.0469 C908.3125,1172.0469 906.3125,1174.125 906.3125,1176.8438 L906.3125,1177.9688 C906.3125,1180.5469 908.4219,1182.4375 911.3125,1182.4375 C912.5313,1182.4375 913.6875,1182.1406 914.4375,1181.5938 C915.0156,1181.1875 915.3438,1180.7344 915.3438,1180.3438 C915.3438,1179.8906 914.9531,1179.5 914.4844,1179.5 C914.2656,1179.5 914.0625,1179.5781 913.875,1179.7656 C913.4219,1180.25 913.4219,1180.25 913.2344,1180.3438 C912.8125,1180.6094 912.125,1180.7344 911.3594,1180.7344 C909.3125,1180.7344 908.0156,1179.6406 908.0156,1177.9375 L908.0156,1176.8438 C908.0156,1175.0625 909.2656,1173.75 911,1173.75 C911.5781,1173.75 912.1875,1173.9063 912.6563,1174.1563 C913.1406,1174.4375 913.3125,1174.6563 913.4063,1175.0625 C913.4688,1175.4688 913.5,1175.5938 913.6406,1175.7188 C913.7813,1175.8594 914.0156,1175.9688 914.2344,1175.9688 C914.5,1175.9688 914.7656,1175.8281 914.9375,1175.6094 C915.0469,1175.4531 915.0781,1175.2656 915.0781,1174.8438 L915.0781,1173.4219 C915.0781,1172.9844 915.0625,1172.8594 914.9688,1172.7031 C914.8125,1172.4375 914.5313,1172.2969 914.2344,1172.2969 C913.9375,1172.2969 913.7344,1172.3906 913.5156,1172.7031 L913.3438,1172.625 Z " fill="#000000"/><text fill="#000000" font-family="sans-serif" font-size="12" lengthAdjust="spacing" textLength="47" x="925" y="1181.1074">ExpMov</text><line style="stroke:#A80036;stroke-width:1.5;" x1="897" x2="974" y1="1192.9531" y2="1192.9531"/><line style="stroke:#A80036;stroke-width:1.5;" x1="897" x2="974" y1="1200.9531" y2="1200.9531"/><!--MD5=[8a47e613ffff2e05cf206a13789fca05]
class ExpEnd--><rect fill="#FEFECE" filter="url(#f11dzo7mlaq1hx)" height="48" id="ExpEnd" style="stroke:#A80036;stroke-width:1.5;" width="76" x="1081.5" y="1160.9531"/><ellipse cx="1096.5" cy="1176.9531" fill="#ADD1B2" rx="11" ry="11" style="stroke:#A80036;stroke-width:1.0;"/><path d="M1098.8438,1172.625 C1097.9063,1172.1875 1097.3125,1172.0469 1096.4375,1172.0469 C1093.8125,1172.0469 1091.8125,1174.125 1091.8125,1176.8438 L1091.8125,1177.9688 C1091.8125,1180.5469 1093.9219,1182.4375 1096.8125,1182.4375 C1098.0313,1182.4375 1099.1875,1182.1406 1099.9375,1181.5938 C1100.5156,1181.1875 1100.8438,1180.7344 1100.8438,1180.3438 C1100.8438,1179.8906 1100.4531,1179.5 1099.9844,1179.5 C1099.7656,1179.5 1099.5625,1179.5781 1099.375,1179.7656 C1098.9219,1180.25 1098.9219,1180.25 1098.7344,1180.3438 C1098.3125,1180.6094 1097.625,1180.7344 1096.8594,1180.7344 C1094.8125,1180.7344 1093.5156,1179.6406 1093.5156,1177.9375 L1093.5156,1176.8438 C1093.5156,1175.0625 1094.7656,1173.75 1096.5,1173.75 C1097.0781,1173.75 1097.6875,1173.9063 1098.1563,1174.1563 C1098.6406,1174.4375 1098.8125,1174.6563 1098.9063,1175.0625 C1098.9688,1175.4688 1099,1175.5938 1099.1406,1175.7188 C1099.2813,1175.8594 1099.5156,1175.9688 1099.7344,1175.9688 C1100,1175.9688 1100.2656,1175.8281 1100.4375,1175.6094 C1100.5469,1175.4531 1100.5781,1175.2656 1100.5781,1174.8438 L1100.5781,1173.4219 C1100.5781,1172.9844 1100.5625,1172.8594 1100.4688,1172.7031 C1100.3125,1172.4375 1100.0313,1172.2969 1099.7344,1172.2969 C1099.4375,1172.2969 1099.2344,1172.3906 1099.0156,1172.7031 L1098.8438,1172.625 Z " fill="#000000"/><text fill="#000000" font-family="sans-serif" font-size="12" lengthAdjust="spacing" textLength="44" x="1110.5" y="1181.1074">ExpEnd</text><line style="stroke:#A80036;stroke-width:1.5;" x1="1082.5" x2="1156.5" y1="1192.9531" y2="1192.9531"/><line style="stroke:#A80036;stroke-width:1.5;" x1="1082.5" x2="1156.5" y1="1200.9531" y2="1200.9531"/><!--MD5=[9f80f09be4d3d9775eb4ed412d3244db]
class ExpUndo--><rect fill="#FEFECE" filter="url(#f11dzo7mlaq1hx)" height="48" id="ExpUndo" style="stroke:#A80036;stroke-width:1.5;" width="86" x="1192.5" y="1160.9531"/><ellipse cx="1207.5" cy="1176.9531" fill="#ADD1B2" rx="11" ry="11" style="stroke:#A80036;stroke-width:1.0;"/><path d="M1209.8438,1172.625 C1208.9063,1172.1875 1208.3125,1172.0469 1207.4375,1172.0469 C1204.8125,1172.0469 1202.8125,1174.125 1202.8125,1176.8438 L1202.8125,1177.9688 C1202.8125,1180.5469 1204.9219,1182.4375 1207.8125,1182.4375 C1209.0313,1182.4375 1210.1875,1182.1406 1210.9375,1181.5938 C1211.5156,1181.1875 1211.8438,1180.7344 1211.8438,1180.3438 C1211.8438,1179.8906 1211.4531,1179.5 1210.9844,1179.5 C1210.7656,1179.5 1210.5625,1179.5781 1210.375,1179.7656 C1209.9219,1180.25 1209.9219,1180.25 1209.7344,1180.3438 C1209.3125,1180.6094 1208.625,1180.7344 1207.8594,1180.7344 C1205.8125,1180.7344 1204.5156,1179.6406 1204.5156,1177.9375 L1204.5156,1176.8438 C1204.5156,1175.0625 1205.7656,1173.75 1207.5,1173.75 C1208.0781,1173.75 1208.6875,1173.9063 1209.1563,1174.1563 C1209.6406,1174.4375 1209.8125,1174.6563 1209.9063,1175.0625 C1209.9688,1175.4688 1210,1175.5938 1210.1406,1175.7188 C1210.2813,1175.8594 1210.5156,1175.9688 1210.7344,1175.9688 C1211,1175.9688 1211.2656,1175.8281 1211.4375,1175.6094 C1211.5469,1175.4531 1211.5781,1175.2656 1211.5781,1174.8438 L1211.5781,1173.4219 C1211.5781,1172.9844 1211.5625,1172.8594 1211.4688,1172.7031 C1211.3125,1172.4375 1211.0313,1172.2969 1210.7344,1172.2969 C1210.4375,1172.2969 1210.2344,1172.3906 1210.0156,1172.7031 L1209.8438,1172.625 Z " fill="#000000"/><text fill="#000000" font-family="sans-serif" font-size="12" lengthAdjust="spacing" textLength="54" x="1221.5" y="1181.1074">ExpUndo</text><line style="stroke:#A80036;stroke-width:1.5;" x1="1193.5" x2="1277.5" y1="1192.9531" y2="1192.9531"/><line style="stroke:#A80036;stroke-width:1.5;" x1="1193.5" x2="1277.5" y1="1200.9531" y2="1200.9531"/><!--MD5=[0bcedb77444dca5ae145cae03c6cf089]
class ExpRedo--><rect fill="#FEFECE" filter="url(#f11dzo7mlaq1hx)" height="48" id="ExpRedo" style="stroke:#A80036;stroke-width:1.5;" width="85" x="384" y="1160.9531"/><ellipse cx="399" cy="1176.9531" fill="#ADD1B2" rx="11" ry="11" style="stroke:#A80036;stroke-width:1.0;"/><path d="M401.3438,1172.625 C400.4063,1172.1875 399.8125,1172.0469 398.9375,1172.0469 C396.3125,1172.0469 394.3125,1174.125 394.3125,1176.8438 L394.3125,1177.9688 C394.3125,1180.5469 396.4219,1182.4375 399.3125,1182.4375 C400.5313,1182.4375 401.6875,1182.1406 402.4375,1181.5938 C403.0156,1181.1875 403.3438,1180.7344 403.3438,1180.3438 C403.3438,1179.8906 402.9531,1179.5 402.4844,1179.5 C402.2656,1179.5 402.0625,1179.5781 401.875,1179.7656 C401.4219,1180.25 401.4219,1180.25 401.2344,1180.3438 C400.8125,1180.6094 400.125,1180.7344 399.3594,1180.7344 C397.3125,1180.7344 396.0156,1179.6406 396.0156,1177.9375 L396.0156,1176.8438 C396.0156,1175.0625 397.2656,1173.75 399,1173.75 C399.5781,1173.75 400.1875,1173.9063 400.6563,1174.1563 C401.1406,1174.4375 401.3125,1174.6563 401.4063,1175.0625 C401.4688,1175.4688 401.5,1175.5938 401.6406,1175.7188 C401.7813,1175.8594 402.0156,1175.9688 402.2344,1175.9688 C402.5,1175.9688 402.7656,1175.8281 402.9375,1175.6094 C403.0469,1175.4531 403.0781,1175.2656 403.0781,1174.8438 L403.0781,1173.4219 C403.0781,1172.9844 403.0625,1172.8594 402.9688,1172.7031 C402.8125,1172.4375 402.5313,1172.2969 402.2344,1172.2969 C401.9375,1172.2969 401.7344,1172.3906 401.5156,1172.7031 L401.3438,1172.625 Z " fill="#000000"/><text fill="#000000" font-family="sans-serif" font-size="12" lengthAdjust="spacing" textLength="53" x="413" y="1181.1074">ExpRedo</text><line style="stroke:#A80036;stroke-width:1.5;" x1="385" x2="468" y1="1192.9531" y2="1192.9531"/><line style="stroke:#A80036;stroke-width:1.5;" x1="385" x2="468" y1="1200.9531" y2="1200.9531"/><!--MD5=[2f1fcb19473149ee29c70f4b629c18f1]
class ExpPutIn--><rect fill="#FEFECE" filter="url(#f11dzo7mlaq1hx)" height="48" id="ExpPutIn" style="stroke:#A80036;stroke-width:1.5;" width="81" x="588" y="1423.4531"/><ellipse cx="603" cy="1439.4531" fill="#ADD1B2" rx="11" ry="11" style="stroke:#A80036;stroke-width:1.0;"/><path d="M605.3438,1435.125 C604.4063,1434.6875 603.8125,1434.5469 602.9375,1434.5469 C600.3125,1434.5469 598.3125,1436.625 598.3125,1439.3438 L598.3125,1440.4688 C598.3125,1443.0469 600.4219,1444.9375 603.3125,1444.9375 C604.5313,1444.9375 605.6875,1444.6406 606.4375,1444.0938 C607.0156,1443.6875 607.3438,1443.2344 607.3438,1442.8438 C607.3438,1442.3906 606.9531,1442 606.4844,1442 C606.2656,1442 606.0625,1442.0781 605.875,1442.2656 C605.4219,1442.75 605.4219,1442.75 605.2344,1442.8438 C604.8125,1443.1094 604.125,1443.2344 603.3594,1443.2344 C601.3125,1443.2344 600.0156,1442.1406 600.0156,1440.4375 L600.0156,1439.3438 C600.0156,1437.5625 601.2656,1436.25 603,1436.25 C603.5781,1436.25 604.1875,1436.4063 604.6563,1436.6563 C605.1406,1436.9375 605.3125,1437.1563 605.4063,1437.5625 C605.4688,1437.9688 605.5,1438.0938 605.6406,1438.2188 C605.7813,1438.3594 606.0156,1438.4688 606.2344,1438.4688 C606.5,1438.4688 606.7656,1438.3281 606.9375,1438.1094 C607.0469,1437.9531 607.0781,1437.7656 607.0781,1437.3438 L607.0781,1435.9219 C607.0781,1435.4844 607.0625,1435.3594 606.9688,1435.2031 C606.8125,1434.9375 606.5313,1434.7969 606.2344,1434.7969 C605.9375,1434.7969 605.7344,1434.8906 605.5156,1435.2031 L605.3438,1435.125 Z " fill="#000000"/><text fill="#000000" font-family="sans-serif" font-size="12" lengthAdjust="spacing" textLength="49" x="617" y="1443.6074">ExpPutIn</text><line style="stroke:#A80036;stroke-width:1.5;" x1="589" x2="668" y1="1455.4531" y2="1455.4531"/><line style="stroke:#A80036;stroke-width:1.5;" x1="589" x2="668" y1="1463.4531" y2="1463.4531"/><!--MD5=[80b210d7a3b0c31b33d0c4d80bbef834]
class ExpMovIn--><rect fill="#FEFECE" filter="url(#f11dzo7mlaq1hx)" height="48" id="ExpMovIn" style="stroke:#A80036;stroke-width:1.5;" width="89" x="862" y="1423.4531"/><ellipse cx="877" cy="1439.4531" fill="#ADD1B2" rx="11" ry="11" style="stroke:#A80036;stroke-width:1.0;"/><path d="M879.3438,1435.125 C878.4063,1434.6875 877.8125,1434.5469 876.9375,1434.5469 C874.3125,1434.5469 872.3125,1436.625 872.3125,1439.3438 L872.3125,1440.4688 C872.3125,1443.0469 874.4219,1444.9375 877.3125,1444.9375 C878.5313,1444.9375 879.6875,1444.6406 880.4375,1444.0938 C881.0156,1443.6875 881.3438,1443.2344 881.3438,1442.8438 C881.3438,1442.3906 880.9531,1442 880.4844,1442 C880.2656,1442 880.0625,1442.0781 879.875,1442.2656 C879.4219,1442.75 879.4219,1442.75 879.2344,1442.8438 C878.8125,1443.1094 878.125,1443.2344 877.3594,1443.2344 C875.3125,1443.2344 874.0156,1442.1406 874.0156,1440.4375 L874.0156,1439.3438 C874.0156,1437.5625 875.2656,1436.25 877,1436.25 C877.5781,1436.25 878.1875,1436.4063 878.6563,1436.6563 C879.1406,1436.9375 879.3125,1437.1563 879.4063,1437.5625 C879.4688,1437.9688 879.5,1438.0938 879.6406,1438.2188 C879.7813,1438.3594 880.0156,1438.4688 880.2344,1438.4688 C880.5,1438.4688 880.7656,1438.3281 880.9375,1438.1094 C881.0469,1437.9531 881.0781,1437.7656 881.0781,1437.3438 L881.0781,1435.9219 C881.0781,1435.4844 881.0625,1435.3594 880.9688,1435.2031 C880.8125,1434.9375 880.5313,1434.7969 880.2344,1434.7969 C879.9375,1434.7969 879.7344,1434.8906 879.5156,1435.2031 L879.3438,1435.125 Z " fill="#000000"/><text fill="#000000" font-family="sans-serif" font-size="12" lengthAdjust="spacing" textLength="57" x="891" y="1443.6074">ExpMovIn</text><line style="stroke:#A80036;stroke-width:1.5;" x1="863" x2="950" y1="1455.4531" y2="1455.4531"/><line style="stroke:#A80036;stroke-width:1.5;" x1="863" x2="950" y1="1463.4531" y2="1463.4531"/><!--MD5=[41314a0efc36828092cff9ebad2fcafd]
class Group--><rect fill="#FEFECE" filter="url(#f11dzo7mlaq1hx)" height="48" id="Group" style="stroke:#A80036;stroke-width:1.5;" width="69" x="766" y="1637.9531"/><ellipse cx="781" cy="1653.9531" fill="#ADD1B2" rx="11" ry="11" style="stroke:#A80036;stroke-width:1.0;"/><path d="M783.3438,1649.625 C782.4063,1649.1875 781.8125,1649.0469 780.9375,1649.0469 C778.3125,1649.0469 776.3125,1651.125 776.3125,1653.8438 L776.3125,1654.9688 C776.3125,1657.5469 778.4219,1659.4375 781.3125,1659.4375 C782.5313,1659.4375 783.6875,1659.1406 784.4375,1658.5938 C785.0156,1658.1875 785.3438,1657.7344 785.3438,1657.3438 C785.3438,1656.8906 784.9531,1656.5 784.4844,1656.5 C784.2656,1656.5 784.0625,1656.5781 783.875,1656.7656 C783.4219,1657.25 783.4219,1657.25 783.2344,1657.3438 C782.8125,1657.6094 782.125,1657.7344 781.3594,1657.7344 C779.3125,1657.7344 778.0156,1656.6406 778.0156,1654.9375 L778.0156,1653.8438 C778.0156,1652.0625 779.2656,1650.75 781,1650.75 C781.5781,1650.75 782.1875,1650.9063 782.6563,1651.1563 C783.1406,1651.4375 783.3125,1651.6563 783.4063,1652.0625 C783.4688,1652.4688 783.5,1652.5938 783.6406,1652.7188 C783.7813,1652.8594 784.0156,1652.9688 784.2344,1652.9688 C784.5,1652.9688 784.7656,1652.8281 784.9375,1652.6094 C785.0469,1652.4531 785.0781,1652.2656 785.0781,1651.8438 L785.0781,1650.4219 C785.0781,1649.9844 785.0625,1649.8594 784.9688,1649.7031 C784.8125,1649.4375 784.5313,1649.2969 784.2344,1649.2969 C783.9375,1649.2969 783.7344,1649.3906 783.5156,1649.7031 L783.3438,1649.625 Z " fill="#000000"/><text fill="#000000" font-family="sans-serif" font-size="12" lengthAdjust="spacing" textLength="37" x="795" y="1658.1074">Group</text><line style="stroke:#A80036;stroke-width:1.5;" x1="767" x2="834" y1="1669.9531" y2="1669.9531"/><line style="stroke:#A80036;stroke-width:1.5;" x1="767" x2="834" y1="1677.9531" y2="1677.9531"/><!--MD5=[37a31ccd9fa96e92a230629dff379469]
class ExpTileRack--><rect fill="#FEFECE" filter="url(#f11dzo7mlaq1hx)" height="48" id="ExpTileRack" style="stroke:#A80036;stroke-width:1.5;" width="103" x="517" y="1637.9531"/><ellipse cx="532" cy="1653.9531" fill="#ADD1B2" rx="11" ry="11" style="stroke:#A80036;stroke-width:1.0;"/><path d="M534.3438,1649.625 C533.4063,1649.1875 532.8125,1649.0469 531.9375,1649.0469 C529.3125,1649.0469 527.3125,1651.125 527.3125,1653.8438 L527.3125,1654.9688 C527.3125,1657.5469 529.4219,1659.4375 532.3125,1659.4375 C533.5313,1659.4375 534.6875,1659.1406 535.4375,1658.5938 C536.0156,1658.1875 536.3438,1657.7344 536.3438,1657.3438 C536.3438,1656.8906 535.9531,1656.5 535.4844,1656.5 C535.2656,1656.5 535.0625,1656.5781 534.875,1656.7656 C534.4219,1657.25 534.4219,1657.25 534.2344,1657.3438 C533.8125,1657.6094 533.125,1657.7344 532.3594,1657.7344 C530.3125,1657.7344 529.0156,1656.6406 529.0156,1654.9375 L529.0156,1653.8438 C529.0156,1652.0625 530.2656,1650.75 532,1650.75 C532.5781,1650.75 533.1875,1650.9063 533.6563,1651.1563 C534.1406,1651.4375 534.3125,1651.6563 534.4063,1652.0625 C534.4688,1652.4688 534.5,1652.5938 534.6406,1652.7188 C534.7813,1652.8594 535.0156,1652.9688 535.2344,1652.9688 C535.5,1652.9688 535.7656,1652.8281 535.9375,1652.6094 C536.0469,1652.4531 536.0781,1652.2656 536.0781,1651.8438 L536.0781,1650.4219 C536.0781,1649.9844 536.0625,1649.8594 535.9688,1649.7031 C535.8125,1649.4375 535.5313,1649.2969 535.2344,1649.2969 C534.9375,1649.2969 534.7344,1649.3906 534.5156,1649.7031 L534.3438,1649.625 Z " fill="#000000"/><text fill="#000000" font-family="sans-serif" font-size="12" lengthAdjust="spacing" textLength="71" x="546" y="1658.1074">ExpTileRack</text><line style="stroke:#A80036;stroke-width:1.5;" x1="518" x2="619" y1="1669.9531" y2="1669.9531"/><line style="stroke:#A80036;stroke-width:1.5;" x1="518" x2="619" y1="1677.9531" y2="1677.9531"/><!--MD5=[157f632a1c2c78a7f335ec3abf02faa1]
class ExpTileGroup--><rect fill="#FEFECE" filter="url(#f11dzo7mlaq1hx)" height="48" id="ExpTileGroup" style="stroke:#A80036;stroke-width:1.5;" width="112" x="947.5" y="1637.9531"/><ellipse cx="962.5" cy="1653.9531" fill="#ADD1B2" rx="11" ry="11" style="stroke:#A80036;stroke-width:1.0;"/><path d="M964.8438,1649.625 C963.9063,1649.1875 963.3125,1649.0469 962.4375,1649.0469 C959.8125,1649.0469 957.8125,1651.125 957.8125,1653.8438 L957.8125,1654.9688 C957.8125,1657.5469 959.9219,1659.4375 962.8125,1659.4375 C964.0313,1659.4375 965.1875,1659.1406 965.9375,1658.5938 C966.5156,1658.1875 966.8438,1657.7344 966.8438,1657.3438 C966.8438,1656.8906 966.4531,1656.5 965.9844,1656.5 C965.7656,1656.5 965.5625,1656.5781 965.375,1656.7656 C964.9219,1657.25 964.9219,1657.25 964.7344,1657.3438 C964.3125,1657.6094 963.625,1657.7344 962.8594,1657.7344 C960.8125,1657.7344 959.5156,1656.6406 959.5156,1654.9375 L959.5156,1653.8438 C959.5156,1652.0625 960.7656,1650.75 962.5,1650.75 C963.0781,1650.75 963.6875,1650.9063 964.1563,1651.1563 C964.6406,1651.4375 964.8125,1651.6563 964.9063,1652.0625 C964.9688,1652.4688 965,1652.5938 965.1406,1652.7188 C965.2813,1652.8594 965.5156,1652.9688 965.7344,1652.9688 C966,1652.9688 966.2656,1652.8281 966.4375,1652.6094 C966.5469,1652.4531 966.5781,1652.2656 966.5781,1651.8438 L966.5781,1650.4219 C966.5781,1649.9844 966.5625,1649.8594 966.4688,1649.7031 C966.3125,1649.4375 966.0313,1649.2969 965.7344,1649.2969 C965.4375,1649.2969 965.2344,1649.3906 965.0156,1649.7031 L964.8438,1649.625 Z " fill="#000000"/><text fill="#000000" font-family="sans-serif" font-size="12" lengthAdjust="spacing" textLength="80" x="976.5" y="1658.1074">ExpTileGroup</text><line style="stroke:#A80036;stroke-width:1.5;" x1="948.5" x2="1058.5" y1="1669.9531" y2="1669.9531"/><line style="stroke:#A80036;stroke-width:1.5;" x1="948.5" x2="1058.5" y1="1677.9531" y2="1677.9531"/><!--MD5=[c2989632e4d8050e2a1798cd84c7d5ae]
class IPlayerCommand--><rect codeLine="124" fill="#FEFECE" filter="url(#f11dzo7mlaq1hx)" height="176.0469" id="IPlayerCommand" style="stroke:#A80036;stroke-width:1.5;" width="380" x="1313.5" y="1096.9531"/><ellipse cx="1448.25" cy="1112.9531" fill="#B4A7E5" rx="11" ry="11" style="stroke:#A80036;stroke-width:1.0;"/><path d="M1449.2031,1109.7344 L1450.9219,1109.7344 C1451.3125,1109.7344 1451.5,1109.7031 1451.625,1109.625 C1451.8906,1109.4688 1452.0313,1109.1875 1452.0313,1108.8906 C1452.0313,1108.625 1451.9219,1108.3594 1451.6875,1108.1875 C1451.5156,1108.0781 1451.375,1108.0469 1450.9219,1108.0469 L1445.7813,1108.0469 C1445.3438,1108.0469 1445.2188,1108.0625 1445.0625,1108.1563 C1444.8125,1108.3125 1444.6563,1108.6094 1444.6563,1108.8906 C1444.6563,1109.1719 1444.7969,1109.4219 1445.0156,1109.5938 C1445.1719,1109.7031 1445.3594,1109.7344 1445.7813,1109.7344 L1447.5,1109.7344 L1447.5,1116.25 L1445.7813,1116.25 C1445.3438,1116.25 1445.2188,1116.2656 1445.0625,1116.375 C1444.8125,1116.5313 1444.6563,1116.8125 1444.6563,1117.1094 C1444.6563,1117.3594 1444.7969,1117.625 1445.0156,1117.7813 C1445.1719,1117.9063 1445.375,1117.9531 1445.7813,1117.9531 L1450.9219,1117.9531 C1451.6719,1117.9531 1452.0313,1117.6719 1452.0313,1117.1094 C1452.0313,1116.8281 1451.9219,1116.5781 1451.6875,1116.4063 C1451.5156,1116.2813 1451.375,1116.25 1450.9219,1116.25 L1449.2031,1116.25 L1449.2031,1109.7344 Z " fill="#000000"/><text fill="#000000" font-family="sans-serif" font-size="12" font-style="italic" lengthAdjust="spacing" textLength="102" x="1468.75" y="1117.1074">IPlayerCommand</text><line style="stroke:#A80036;stroke-width:1.5;" x1="1314.5" x2="1692.5" y1="1128.9531" y2="1128.9531"/><line style="stroke:#A80036;stroke-width:1.5;" x1="1314.5" x2="1692.5" y1="1136.9531" y2="1136.9531"/><ellipse cx="1324.5" cy="1147.9531" fill="#84BE84" rx="3" ry="3" style="stroke:#038048;stroke-width:1.0;"/><text fill="#000000" font-family="sans-serif" font-size="11" lengthAdjust="spacing" textLength="187" x="1333.5" y="1151.1636">addTileToGroup(tile, groupIndex)</text><ellipse cx="1324.5" cy="1160.7578" fill="#84BE84" rx="3" ry="3" style="stroke:#038048;stroke-width:1.0;"/><text fill="#000000" font-family="sans-serif" font-size="11" lengthAdjust="spacing" textLength="169" x="1333.5" y="1163.9683">existGroup(targetGroup): bool</text><ellipse cx="1324.5" cy="1173.5625" fill="#84BE84" rx="3" ry="3" style="stroke:#038048;stroke-width:1.0;"/><text fill="#000000" font-family="sans-serif" font-size="11" lengthAdjust="spacing" textLength="142" x="1333.5" y="1176.7729">existTileInRack(tile): bool</text><ellipse cx="1324.5" cy="1186.3672" fill="#84BE84" rx="3" ry="3" style="stroke:#038048;stroke-width:1.0;"/><text fill="#000000" font-family="sans-serif" font-size="11" lengthAdjust="spacing" textLength="148" x="1333.5" y="1189.5776">existTileInTable(tile): bool</text><ellipse cx="1324.5" cy="1199.1719" fill="#84BE84" rx="3" ry="3" style="stroke:#038048;stroke-width:1.0;"/><text fill="#000000" font-family="sans-serif" font-size="11" lengthAdjust="spacing" textLength="269" x="1333.5" y="1202.3823">moveTileFromGroupToGroup(tile, origin, target)</text><ellipse cx="1324.5" cy="1211.9766" fill="#84BE84" rx="3" ry="3" style="stroke:#038048;stroke-width:1.0;"/><text fill="#000000" font-family="sans-serif" font-size="11" lengthAdjust="spacing" textLength="327" x="1333.5" y="1215.187">isAllowedToTileDown(List&lt;List&lt;string&gt;&gt; tileGroups): bool</text><ellipse cx="1324.5" cy="1224.7813" fill="#84BE84" rx="3" ry="3" style="stroke:#038048;stroke-width:1.0;"/><text fill="#000000" font-family="sans-serif" font-size="11" lengthAdjust="spacing" textLength="66" x="1333.5" y="1227.9917">finishTurn();</text><ellipse cx="1324.5" cy="1237.5859" fill="#84BE84" rx="3" ry="3" style="stroke:#038048;stroke-width:1.0;"/><text fill="#000000" font-family="sans-serif" font-size="11" lengthAdjust="spacing" textLength="308" x="1333.5" y="1240.7964">existsTileInGroup(string tileDescription, int group):bool</text><ellipse cx="1324.5" cy="1250.3906" fill="#84BE84" rx="3" ry="3" style="stroke:#038048;stroke-width:1.0;"/><text fill="#000000" font-family="sans-serif" font-size="11" lengthAdjust="spacing" textLength="116" x="1333.5" y="1253.6011">isValidGroups(): bool</text><ellipse cx="1324.5" cy="1263.1953" fill="#84BE84" rx="3" ry="3" style="stroke:#038048;stroke-width:1.0;"/><text fill="#000000" font-family="sans-serif" font-size="11" lengthAdjust="spacing" textLength="354" x="1333.5" y="1266.4058">isValidAddTilesInGroup(List&lt;string&gt; tiles, int groupIndex): bool</text><!--MD5=[18eee71c88ab61f27581b8cbdd3ef5ee]
class Color--><rect codeLine="140" fill="#FEFECE" filter="url(#f11dzo7mlaq1hx)" height="112.0234" id="Color" style="stroke:#A80036;stroke-width:1.5;" width="64" x="250.5" y="1391.4531"/><ellipse cx="265.5" cy="1407.4531" fill="#EB937F" rx="11" ry="11" style="stroke:#A80036;stroke-width:1.0;"/><path d="M264.2969,1408.3281 L265.75,1408.3281 L265.75,1408.4375 C265.75,1408.8438 265.7813,1409 265.8594,1409.1563 C266.0156,1409.4063 266.2969,1409.5625 266.5938,1409.5625 C266.8438,1409.5625 267.1094,1409.4219 267.2656,1409.2031 C267.3906,1409.0469 267.4219,1408.8906 267.4219,1408.4375 L267.4219,1406.5156 C267.4219,1406.3594 267.4219,1406.3125 267.4063,1406.1563 C267.3438,1405.6875 267.0313,1405.375 266.5781,1405.375 C266.3281,1405.375 266.0625,1405.5156 265.8906,1405.7344 C265.7813,1405.9063 265.75,1406.0625 265.75,1406.5156 L265.75,1406.6406 L264.2969,1406.6406 L264.2969,1404.2344 L268.2813,1404.2344 L268.2813,1405.0938 C268.2813,1405.5 268.3125,1405.6719 268.3906,1405.8281 C268.5625,1406.0781 268.8438,1406.2344 269.125,1406.2344 C269.3906,1406.2344 269.6563,1406.0938 269.8281,1405.875 C269.9375,1405.7031 269.9688,1405.5625 269.9688,1405.0938 L269.9688,1402.5469 L262.3438,1402.5469 C261.9063,1402.5469 261.7813,1402.5625 261.625,1402.6563 C261.375,1402.8125 261.2188,1403.1094 261.2188,1403.3906 C261.2188,1403.6719 261.3594,1403.9219 261.5781,1404.0938 C261.7344,1404.2031 261.9219,1404.2344 262.3438,1404.2344 L262.5938,1404.2344 L262.5938,1410.75 L262.3438,1410.75 C261.9375,1410.75 261.7813,1410.7656 261.625,1410.875 C261.375,1411.0469 261.2188,1411.3125 261.2188,1411.6094 C261.2188,1411.875 261.3594,1412.125 261.5781,1412.2813 C261.7188,1412.4063 261.9531,1412.4531 262.3438,1412.4531 L270.3438,1412.4531 L270.3438,1409.875 C270.3438,1409.4375 270.3125,1409.2969 270.2344,1409.1406 C270.0625,1408.8906 269.7813,1408.7344 269.5,1408.7344 C269.2344,1408.7344 268.9688,1408.8438 268.7969,1409.0938 C268.6875,1409.25 268.6563,1409.3906 268.6563,1409.875 L268.6563,1410.75 L264.2969,1410.75 L264.2969,1408.3281 Z " fill="#000000"/><text fill="#000000" font-family="sans-serif" font-size="12" lengthAdjust="spacing" textLength="32" x="279.5" y="1411.6074">Color</text><line style="stroke:#A80036;stroke-width:1.5;" x1="251.5" x2="313.5" y1="1423.4531" y2="1423.4531"/><text fill="#000000" font-family="sans-serif" font-size="11" lengthAdjust="spacing" textLength="26" x="256.5" y="1437.6636">RED,</text><text fill="#000000" font-family="sans-serif" font-size="11" lengthAdjust="spacing" textLength="41" x="256.5" y="1450.4683">GREEN,</text><text fill="#000000" font-family="sans-serif" font-size="11" lengthAdjust="spacing" textLength="40" x="256.5" y="1463.2729">BLACK,</text><text fill="#000000" font-family="sans-serif" font-size="11" lengthAdjust="spacing" textLength="49" x="256.5" y="1476.0776">YELLOW,</text><text fill="#000000" font-family="sans-serif" font-size="11" lengthAdjust="spacing" textLength="33" x="256.5" y="1488.8823">JOKER</text><line style="stroke:#A80036;stroke-width:1.5;" x1="251.5" x2="313.5" y1="1495.4766" y2="1495.4766"/><!--MD5=[c004fefde6801777d525be4b9ec6e06d]
class TileNumber--><rect codeLine="148" fill="#FEFECE" filter="url(#f11dzo7mlaq1hx)" height="227.2656" id="TileNumber" style="stroke:#A80036;stroke-width:1.5;" width="100" x="115.5" y="1333.9531"/><ellipse cx="130.5" cy="1349.9531" fill="#EB937F" rx="11" ry="11" style="stroke:#A80036;stroke-width:1.0;"/><path d="M129.2969,1350.8281 L130.75,1350.8281 L130.75,1350.9375 C130.75,1351.3438 130.7813,1351.5 130.8594,1351.6563 C131.0156,1351.9063 131.2969,1352.0625 131.5938,1352.0625 C131.8438,1352.0625 132.1094,1351.9219 132.2656,1351.7031 C132.3906,1351.5469 132.4219,1351.3906 132.4219,1350.9375 L132.4219,1349.0156 C132.4219,1348.8594 132.4219,1348.8125 132.4063,1348.6563 C132.3438,1348.1875 132.0313,1347.875 131.5781,1347.875 C131.3281,1347.875 131.0625,1348.0156 130.8906,1348.2344 C130.7813,1348.4063 130.75,1348.5625 130.75,1349.0156 L130.75,1349.1406 L129.2969,1349.1406 L129.2969,1346.7344 L133.2813,1346.7344 L133.2813,1347.5938 C133.2813,1348 133.3125,1348.1719 133.3906,1348.3281 C133.5625,1348.5781 133.8438,1348.7344 134.125,1348.7344 C134.3906,1348.7344 134.6563,1348.5938 134.8281,1348.375 C134.9375,1348.2031 134.9688,1348.0625 134.9688,1347.5938 L134.9688,1345.0469 L127.3438,1345.0469 C126.9063,1345.0469 126.7813,1345.0625 126.625,1345.1563 C126.375,1345.3125 126.2188,1345.6094 126.2188,1345.8906 C126.2188,1346.1719 126.3594,1346.4219 126.5781,1346.5938 C126.7344,1346.7031 126.9219,1346.7344 127.3438,1346.7344 L127.5938,1346.7344 L127.5938,1353.25 L127.3438,1353.25 C126.9375,1353.25 126.7813,1353.2656 126.625,1353.375 C126.375,1353.5469 126.2188,1353.8125 126.2188,1354.1094 C126.2188,1354.375 126.3594,1354.625 126.5781,1354.7813 C126.7188,1354.9063 126.9531,1354.9531 127.3438,1354.9531 L135.3438,1354.9531 L135.3438,1352.375 C135.3438,1351.9375 135.3125,1351.7969 135.2344,1351.6406 C135.0625,1351.3906 134.7813,1351.2344 134.5,1351.2344 C134.2344,1351.2344 133.9688,1351.3438 133.7969,1351.5938 C133.6875,1351.75 133.6563,1351.8906 133.6563,1352.375 L133.6563,1353.25 L129.2969,1353.25 L129.2969,1350.8281 Z " fill="#000000"/><text fill="#000000" font-family="sans-serif" font-size="12" lengthAdjust="spacing" textLength="68" x="144.5" y="1354.1074">TileNumber</text><line style="stroke:#A80036;stroke-width:1.5;" x1="116.5" x2="214.5" y1="1365.9531" y2="1365.9531"/><text fill="#000000" font-family="sans-serif" font-size="11" lengthAdjust="spacing" textLength="27" x="121.5" y="1380.1636">ONE,</text><text fill="#000000" font-family="sans-serif" font-size="11" lengthAdjust="spacing" textLength="30" x="121.5" y="1392.9683">TWO,</text><text fill="#000000" font-family="sans-serif" font-size="11" lengthAdjust="spacing" textLength="39" x="121.5" y="1405.7729">THREE,</text><text fill="#000000" font-family="sans-serif" font-size="11" lengthAdjust="spacing" textLength="33" x="121.5" y="1418.5776">FOUR,</text><text fill="#000000" font-family="sans-serif" font-size="11" lengthAdjust="spacing" textLength="27" x="121.5" y="1431.3823">FIVE,</text><text fill="#000000" font-family="sans-serif" font-size="11" lengthAdjust="spacing" textLength="22" x="121.5" y="1444.187">SIX,</text><text fill="#000000" font-family="sans-serif" font-size="11" lengthAdjust="spacing" textLength="41" x="121.5" y="1456.9917">SEVEN,</text><text fill="#000000" font-family="sans-serif" font-size="11" lengthAdjust="spacing" textLength="37" x="121.5" y="1469.7964">EIGHT,</text><text fill="#000000" font-family="sans-serif" font-size="11" lengthAdjust="spacing" textLength="29" x="121.5" y="1482.6011">NINE,</text><text fill="#000000" font-family="sans-serif" font-size="11" lengthAdjust="spacing" textLength="25" x="121.5" y="1495.4058">TEN,</text><text fill="#000000" font-family="sans-serif" font-size="11" lengthAdjust="spacing" textLength="46" x="121.5" y="1508.2104">ELEVEN,</text><text fill="#000000" font-family="sans-serif" font-size="11" lengthAdjust="spacing" textLength="49" x="121.5" y="1521.0151">TWELVE,</text><text fill="#000000" font-family="sans-serif" font-size="11" lengthAdjust="spacing" textLength="57" x="121.5" y="1533.8198">THIRTEEN,</text><text fill="#000000" font-family="sans-serif" font-size="11" lengthAdjust="spacing" textLength="33" x="121.5" y="1546.6245">JOKER</text><line style="stroke:#A80036;stroke-width:1.5;" x1="116.5" x2="214.5" y1="1553.2188" y2="1553.2188"/><!--MD5=[b9f1e39ad85d50fe6f3a071a4341c320]
link Game to Turn--><path codeLine="15" d="M355.9792,163.8353 C355.9792,163.8353 343.433,189.4031 337.282,201.9331 " fill="none" id="Game-Turn" style="stroke:#A80036;stroke-width:1.0;"/><polygon fill="#A80036" points="331.403,213.9131,338.9596,207.5966,333.6063,209.4247,331.7782,204.0714,331.403,213.9131" style="stroke:#A80036;stroke-width:1.0;"/><line style="stroke:#A80036;stroke-width:1.0;" x1="333.6063" x2="337.1305" y1="209.4247" y2="202.2481"/><polygon fill="#A80036" points="361.267,153.0631,355.0324,156.6866,355.9792,163.8353,362.2138,160.2118,361.267,153.0631" style="stroke:#A80036;stroke-width:1.0;"/><!--MD5=[efa3a547aebe9cdf6e687795d347cb49]
link Turn to Table--><path codeLine="16" d="M278.3311,415.1867 C278.3311,415.1867 263.981,549.1131 249.5,613.9531 C245.974,629.7431 241.306,646.2931 236.313,662.1731 " fill="none" id="Turn-Table" style="stroke:#A80036;stroke-width:1.0;"/><polygon fill="#A80036" points="232.253,674.7431,238.8278,667.4102,233.7912,669.9856,231.2158,664.949,232.253,674.7431" style="stroke:#A80036;stroke-width:1.0;"/><line style="stroke:#A80036;stroke-width:1.0;" x1="233.7912" x2="236.249" y1="669.9856" y2="662.3731"/><polygon fill="#A80036" points="279.386,403.2331,274.874,408.8583,278.3311,415.1867,282.8431,409.5615,279.386,403.2331" style="stroke:#A80036;stroke-width:1.0;"/><!--MD5=[d81713d91ad05be3b975338c4816ee0b]
link Turn to Player--><path codeLine="17" d="M355.7297,412.983 C355.7297,412.983 374.145,440.1331 382.715,452.7631 " fill="none" id="Turn-Player" style="stroke:#A80036;stroke-width:1.0;"/><polygon fill="#A80036" points="390.146,463.7231,388.4109,454.0283,387.3421,459.5833,381.7872,458.5145,390.146,463.7231" style="stroke:#A80036;stroke-width:1.0;"/><line style="stroke:#A80036;stroke-width:1.0;" x1="387.3421" x2="382.848" y1="459.5833" y2="452.9631"/><polygon fill="#A80036" points="348.992,403.0531,349.0509,410.264,355.7297,412.983,355.6708,405.7722,348.992,403.0531" style="stroke:#A80036;stroke-width:1.0;"/><text fill="#000000" font-family="sans-serif" font-size="13" lengthAdjust="spacing" textLength="24" x="360.2029" y="452.8903">2..4</text><!--MD5=[1393a2e41e728fa0604160e233291913]
link Table to Pounch--><path codeLine="18" d="M256.2557,835.4602 C256.2557,835.4602 289.605,889.9131 303.395,912.4301 " fill="none" id="Table-Pounch" style="stroke:#A80036;stroke-width:1.0;"/><polygon fill="#A80036" points="310.301,923.7061,309.0118,913.942,307.6897,919.4422,302.1895,918.1201,310.301,923.7061" style="stroke:#A80036;stroke-width:1.0;"/><line style="stroke:#A80036;stroke-width:1.0;" x1="307.6897" x2="303.5115" y1="919.4422" y2="912.6206"/><polygon fill="#A80036" points="249.988,825.2271,249.7109,832.4329,256.2557,835.4602,256.5329,828.2544,249.988,825.2271" style="stroke:#A80036;stroke-width:1.0;"/><!--MD5=[15f89c1ceb05658393b6721ae199a6fc]
link Table to TilesGroup--><path codeLine="19" d="M183.1229,836.8722 C183.1229,836.8722 173.725,874.6451 169.449,891.8321 " fill="none" id="Table-TilesGroup" style="stroke:#A80036;stroke-width:1.0;"/><polygon fill="#A80036" points="166.261,904.6451,172.3163,896.8777,167.4686,899.7932,164.5532,894.9455,166.261,904.6451" style="stroke:#A80036;stroke-width:1.0;"/><line style="stroke:#A80036;stroke-width:1.0;" x1="167.4686" x2="169.3995" y1="899.7932" y2="892.0301"/><polygon fill="#A80036" points="186.02,825.2271,180.6898,830.0839,183.1229,836.8722,188.4531,832.0153,186.02,825.2271" style="stroke:#A80036;stroke-width:1.0;"/><text fill="#000000" font-family="sans-serif" font-size="13" lengthAdjust="spacing" textLength="24" x="142.4756" y="893.9421">0..n</text><!--MD5=[0078e3c2ea2412208ee128da65ecf604]
link Player to Table--><path codeLine="20" d="M367.767,604.3631 C343.855,625.5431 317.02,649.3031 292.122,671.3531 " fill="none" id="Player-to-Table" style="stroke:#A80036;stroke-width:1.0;"/><polygon fill="#A80036" points="288.143,674.8831,297.5322,671.9093,291.8856,671.5676,292.2273,665.9211,288.143,674.8831" style="stroke:#A80036;stroke-width:1.0;"/><!--MD5=[f389fafe33db579e9069c7240804b3d4]
link Player to Tile--><path codeLine="21" d="M452.503,614.1831 C465.199,715.6611 474.821,900.5191 404.5,1035.9531 C387.296,1069.0871 359.09,1097.5171 330.008,1120.3451 " fill="none" id="Player-to-Tile" style="stroke:#A80036;stroke-width:1.0;"/><polygon fill="#A80036" points="325.712,1123.6731,335.2762,1121.3226,329.6644,1120.6106,330.3763,1114.9988,325.712,1123.6731" style="stroke:#A80036;stroke-width:1.0;"/><text fill="#000000" font-family="sans-serif" font-size="13" lengthAdjust="spacing" textLength="8" x="333.5119" y="1115.685">n</text><!--MD5=[6b6b9e8ceff4e9e58f06e15491e15318]
link Game to Player--><path codeLine="23" d="M398.262,153.0731 C406.988,232.5831 422.185,371.0631 431.774,458.4431 " fill="none" id="Game-to-Player" style="stroke:#A80036;stroke-width:1.0;"/><polygon fill="#A80036" points="432.34,463.6031,435.3125,454.2135,431.783,458.6342,427.3623,455.1048,432.34,463.6031" style="stroke:#A80036;stroke-width:1.0;"/><!--MD5=[30fc606c3aaccdfc50a554a4e039e7e2]
link Turn to GameMemento--><path codeLine="39" d="M217.502,403.0531 C200.714,426.1631 183.079,450.4331 167.468,471.9231 " fill="none" id="Turn-to-GameMemento" style="stroke:#A80036;stroke-width:1.0;stroke-dasharray:7.0,7.0;"/><polygon fill="#A80036" points="164.374,476.1831,172.8915,471.2382,167.3058,472.1329,166.4111,466.5472,164.374,476.1831" style="stroke:#A80036;stroke-width:1.0;"/><!--MD5=[5b8e264b023c2b1d9a27e21c2f27e2f5]
link TilesGroup to Tile--><path codeLine="88" d="M173.7972,1028.5449 C173.7972,1028.5449 187.074,1070.0581 193.604,1090.4761 " fill="none" id="TilesGroup-Tile" style="stroke:#A80036;stroke-width:1.0;"/><polygon fill="#A80036" points="197.628,1103.0591,198.6962,1093.2684,196.1048,1098.2968,191.0764,1095.7054,197.628,1103.0591" style="stroke:#A80036;stroke-width:1.0;"/><line style="stroke:#A80036;stroke-width:1.0;" x1="196.1048" x2="193.6685" y1="1098.2968" y2="1090.6771"/><polygon fill="#A80036" points="170.142,1017.1151,168.1597,1024.0484,173.7972,1028.5449,175.7795,1021.6116,170.142,1017.1151" style="stroke:#A80036;stroke-width:1.0;"/><text fill="#000000" font-family="sans-serif" font-size="13" lengthAdjust="spacing" textLength="32" x="162.0296" y="1092.439">3..13</text><!--MD5=[3db144784e332e51bc8119a8bdaeb34d]
link Player to CommandParser--><path codeLine="90" d="M513.039,565.4731 C628.008,605.9231 850.65,684.2631 964.202,724.2181 " fill="none" id="Player-to-CommandParser" style="stroke:#A80036;stroke-width:1.0;stroke-dasharray:7.0,7.0;"/><polygon fill="#A80036" points="969.193,725.9751,962.0293,719.2163,964.4761,724.3166,959.3757,726.7634,969.193,725.9751" style="stroke:#A80036;stroke-width:1.0;"/><!--MD5=[f13df8c52c8cec88f6fc5c569a887cd5]
link CommandParser to IExpression--><path codeLine="94" d="M1005.0991,782.9527 C1005.0991,782.9527 914.875,881.1691 878.536,920.7271 " fill="none" id="CommandParser-IExpression" style="stroke:#A80036;stroke-width:1.0;"/><polygon fill="#A80036" points="869.733,930.3081,878.7674,926.3865,873.1156,926.626,872.8761,920.9742,869.733,930.3081" style="stroke:#A80036;stroke-width:1.0;"/><line style="stroke:#A80036;stroke-width:1.0;" x1="873.1156" x2="878.5285" y1="926.626" y2="920.7351"/><polygon fill="#A80036" points="1013.22,774.1181,1006.2147,775.8285,1005.0991,782.9527,1012.1044,781.2424,1013.22,774.1181" style="stroke:#A80036;stroke-width:1.0;"/><!--MD5=[096ecb3730411aba92e81afcf53c60ac]
link CommandParser to CommandString--><path codeLine="95" d="M1034.5,774.1181 C1034.5,799.7501 1034.5,842.4671 1034.5,880.4871 " fill="none" id="CommandParser-to-CommandString" style="stroke:#A80036;stroke-width:1.0;stroke-dasharray:7.0,7.0;"/><polygon fill="#A80036" points="1034.5,885.5781,1038.5,876.5781,1034.5,880.5781,1030.5,876.5781,1034.5,885.5781" style="stroke:#A80036;stroke-width:1.0;"/><!--MD5=[819c118a0f3013d56be5834e8a4504c5]
link CommandParser to SubcommandString--><path codeLine="96" d="M1054.12,774.1181 C1083.91,809.2981 1140.96,876.6631 1177.57,919.8931 " fill="none" id="CommandParser-to-SubcommandString" style="stroke:#A80036;stroke-width:1.0;stroke-dasharray:7.0,7.0;"/><polygon fill="#A80036" points="1180.83,923.7401,1178.0818,914.2825,1177.605,919.9192,1171.9683,919.4424,1180.83,923.7401" style="stroke:#A80036;stroke-width:1.0;"/><!--MD5=[4a0ecf637b67ab535e85d488ee530d92]
reverse link IExpression to ExpPut--><path codeLine="98" d="M796.772,1005.8331 C779.579,1023.5991 760.565,1044.8731 745.5,1065.9531 C723.491,1096.7501 703.968,1136.1681 692.688,1160.7421 " fill="none" id="IExpression-backto-ExpPut" style="stroke:#A80036;stroke-width:1.0;"/><polygon fill="none" points="791.912,1000.7931,810.963,991.5171,801.855,1010.6491,791.912,1000.7931" style="stroke:#A80036;stroke-width:1.0;"/><!--MD5=[5643e186e89d595eb4798ed6be82af63]
reverse link IExpression to ExpMov--><path codeLine="99" d="M862.784,1010.3741 C882.315,1056.9951 911.01,1125.4921 925.837,1160.8871 " fill="none" id="IExpression-backto-ExpMov" style="stroke:#A80036;stroke-width:1.0;"/><polygon fill="none" points="856.314,1013.0441,855.042,991.8931,869.227,1007.6351,856.314,1013.0441" style="stroke:#A80036;stroke-width:1.0;"/><!--MD5=[06e7a441733990d1e92bc7952a77bf7d]
reverse link IExpression to ExpEnd--><path codeLine="100" d="M895.523,1003.2551 C912.417,1015.0261 931.635,1027.0541 950.5,1035.9531 C994.009,1056.4771 1016.91,1035.9261 1054.5,1065.9531 C1085.38,1090.6241 1103.82,1134.1471 1112.78,1160.8791 " fill="none" id="IExpression-backto-ExpEnd" style="stroke:#A80036;stroke-width:1.0;"/><polygon fill="none" points="891.306,1008.8451,879.188,991.4621,899.501,997.4941,891.306,1008.8451" style="stroke:#A80036;stroke-width:1.0;"/><!--MD5=[fb081799c32760bca28562633f6fb087]
reverse link IExpression to ExpUndo--><path codeLine="101" d="M894.823,1003.6011 C911.804,1015.4901 931.246,1027.4991 950.5,1035.9531 C1045.37,1077.6101 1092.47,1034.9751 1175.5,1096.9531 C1197.85,1113.6361 1214.81,1141.1791 1224.9,1160.8041 " fill="none" id="IExpression-backto-ExpUndo" style="stroke:#A80036;stroke-width:1.0;"/><polygon fill="none" points="890.475,1009.0941,878.447,991.6491,898.729,997.7851,890.475,1009.0941" style="stroke:#A80036;stroke-width:1.0;"/><!--MD5=[d75d8ca3e8c9a895ddb57c71fa0fe77a]
reverse link IExpression to ExpRedo--><path codeLine="102" d="M732.816,975.9271 C661.761,989.4401 570.349,1015.6441 503.5,1065.9531 C470.468,1090.8121 447.492,1134.2741 435.69,1160.9441 " fill="none" id="IExpression-backto-ExpRedo" style="stroke:#A80036;stroke-width:1.0;"/><polygon fill="none" points="731.83,968.9921,752.75,972.3631,734.293,982.7741,731.83,968.9921" style="stroke:#A80036;stroke-width:1.0;"/><!--MD5=[9126c56208a095631cb2180ca74f7f46]
link ExpPut to ExpPutIn--><path codeLine="104" d="M675.271,1220.8211 C675.271,1220.8211 646.271,1360.7261 635.959,1410.4701 " fill="none" id="ExpPut-ExpPutIn" style="stroke:#A80036;stroke-width:1.0;"/><polygon fill="#A80036" points="633.281,1423.3871,639.0246,1415.3864,634.2959,1418.4912,631.1911,1413.7626,633.281,1423.3871" style="stroke:#A80036;stroke-width:1.0;"/><line style="stroke:#A80036;stroke-width:1.0;" x1="634.2959" x2="635.92" y1="1418.4912" y2="1410.6576"/><polygon fill="#A80036" points="677.708,1209.0711,672.5728,1214.1338,675.271,1220.8211,680.4061,1215.7584,677.708,1209.0711" style="stroke:#A80036;stroke-width:1.0;"/><text fill="#000000" font-family="sans-serif" font-size="13" lengthAdjust="spacing" textLength="24" x="607.4311" y="1412.3822">1..n</text><!--MD5=[68d6fe17b6cf358c9fc50d22871783e2]
link ExpMov to ExpMovIn--><path codeLine="105" d="M931.5981,1220.9974 C931.5981,1220.9974 916.069,1360.4971 910.538,1410.1811 " fill="none" id="ExpMov-ExpMovIn" style="stroke:#A80036;stroke-width:1.0;"/><polygon fill="#A80036" points="909.068,1423.3871,914.0385,1414.8845,909.6208,1418.4178,906.0875,1414.0001,909.068,1423.3871" style="stroke:#A80036;stroke-width:1.0;"/><line style="stroke:#A80036;stroke-width:1.0;" x1="909.6208" x2="910.506" y1="1418.4178" y2="1410.4671"/><polygon fill="#A80036" points="932.926,1209.0711,928.2866,1214.5916,931.5981,1220.9974,936.2375,1215.4769,932.926,1209.0711" style="stroke:#A80036;stroke-width:1.0;"/><text fill="#000000" font-family="sans-serif" font-size="13" lengthAdjust="spacing" textLength="24" x="882.651" y="1412.3822">1..n</text><!--MD5=[d5ee97fc3e4c77399e86b060cc5562cc]
link ExpMovIn to Group--><path codeLine="107" d="M885.8101,1481.8207 C885.8101,1481.8207 844.127,1552.8811 826.5,1590.9531 C821.411,1601.9454 816.573,1614.2388 812.481,1625.4191 " fill="none" id="ExpMovIn-Group" style="stroke:#A80036;stroke-width:1.0;"/><polygon fill="#A80036" points="808.05,1637.8879,814.8331,1630.7472,809.7245,1633.1767,807.2951,1628.068,808.05,1637.8879" style="stroke:#A80036;stroke-width:1.0;"/><line style="stroke:#A80036;stroke-width:1.0;" x1="809.7245" x2="812.403" y1="1633.1767" y2="1625.6385"/><polygon fill="#A80036" points="892.041,1471.5651,885.507,1474.6159,885.8101,1481.8207,892.3441,1478.7699,892.041,1471.5651" style="stroke:#A80036;stroke-width:1.0;"/><text fill="#000000" font-family="sans-serif" font-size="13" lengthAdjust="spacing" textLength="35" x="827.5" y="1604.02">origin</text><!--MD5=[d5ee97fc3e4c77399e86b060cc5562cc]
link ExpMovIn to Group--><path codeLine="108" d="M904.4493,1483.6371 C904.4493,1483.6371 891.659,1570.3171 867.5,1607.9531 C861.69,1617.0038 853.796,1625.1797 845.464,1632.2502 " fill="none" id="ExpMovIn-Group-1" style="stroke:#A80036;stroke-width:1.0;"/><polygon fill="#A80036" points="835.195,1640.3108,844.7443,1637.9001,839.128,1637.2235,839.8046,1631.6073,835.195,1640.3108" style="stroke:#A80036;stroke-width:1.0;"/><line style="stroke:#A80036;stroke-width:1.0;" x1="839.128" x2="845.4205" y1="1637.2235" y2="1632.284"/><polygon fill="#A80036" points="905.499,1471.6831,900.9895,1477.3102,904.4493,1483.6371,908.9588,1478.01,905.499,1471.6831" style="stroke:#A80036;stroke-width:1.0;"/><text fill="#000000" font-family="sans-serif" font-size="13" lengthAdjust="spacing" textLength="39" x="876.5" y="1604.02">target</text><!--MD5=[67b1f84980e2e7571a62e3a8f7b900f1]
link ExpPutIn to ExpTileRack--><path codeLine="109" d="M618.7041,1483.1476 C618.7041,1483.1476 589.653,1586.0349 578.579,1625.2573 " fill="none" id="ExpPutIn-ExpTileRack" style="stroke:#A80036;stroke-width:1.0;"/><polygon fill="#A80036" points="575.027,1637.8359,581.322,1630.2614,576.3856,1633.024,573.623,1628.0877,575.027,1637.8359" style="stroke:#A80036;stroke-width:1.0;"/><line style="stroke:#A80036;stroke-width:1.0;" x1="576.3856" x2="578.56" y1="1633.024" y2="1625.325"/><polygon fill="#A80036" points="621.965,1471.5991,616.4851,1476.2864,618.7041,1483.1476,624.184,1478.4603,621.965,1471.5991" style="stroke:#A80036;stroke-width:1.0;"/><text fill="#000000" font-family="sans-serif" font-size="13" lengthAdjust="spacing" textLength="24" x="549.6245" y="1626.8179">1..n</text><!--MD5=[9e9053c511241bd4b6f6ec54fa2b2e9b]
link ExpPutIn to Group--><path codeLine="110" d="M638.1318,1483.1231 C638.1318,1483.1231 670.931,1572.3151 704.5,1607.9531 C718.155,1622.45 736.681,1633.9491 753.816,1642.4796 " fill="none" id="ExpPutIn-Group" style="stroke:#A80036;stroke-width:1.0;"/><polygon fill="#A80036" points="765.957,1648.1669,759.5035,1640.727,761.4291,1646.0461,756.1101,1647.9717,765.957,1648.1669" style="stroke:#A80036;stroke-width:1.0;"/><line style="stroke:#A80036;stroke-width:1.0;" x1="761.4291" x2="754.185" y1="1646.0461" y2="1642.6525"/><polygon fill="#A80036" points="634.608,1471.6521,632.5463,1478.5622,638.1318,1483.1231,640.1936,1476.213,634.608,1471.6521" style="stroke:#A80036;stroke-width:1.0;"/><text fill="#000000" font-family="sans-serif" font-size="13" lengthAdjust="spacing" textLength="39" x="705.5" y="1604.02">target</text><!--MD5=[7d5d2c3a4cb139735461dace7f33d8a1]
reverse link IExpression to ExpPutIn--><path codeLine="112" d="M740.542,1000.3131 C698.272,1021.8661 653.559,1053.3671 629.5,1096.9531 C569.388,1205.8521 604.908,1364.4601 621.446,1423.3331 " fill="none" id="IExpression-backto-ExpPutIn" style="stroke:#A80036;stroke-width:1.0;"/><polygon fill="none" points="737.7,993.9121,758.756,991.5351,743.778,1006.5241,737.7,993.9121" style="stroke:#A80036;stroke-width:1.0;"/><!--MD5=[ffb3864fc0a377a77d4c1c05ac485fc9]
reverse link IExpression to ExpTileRack--><path codeLine="113" d="M734.12,991.6901 C680.918,1012.2071 621.342,1045.3381 588.5,1096.9531 C474.495,1276.1261 539.204,1556.2071 561.726,1637.88 " fill="none" id="IExpression-backto-ExpTileRack" style="stroke:#A80036;stroke-width:1.0;"/><polygon fill="none" points="731.806,985.0831,752.994,984.8201,736.595,998.2391,731.806,985.0831" style="stroke:#A80036;stroke-width:1.0;"/><!--MD5=[eee5a03b9fd8b1329d47b112658e04a9]
reverse link IExpression to Group--><path codeLine="114" d="M839.518,1011.5831 C831.182,1150.3131 807.86,1538.4691 801.9,1637.6462 " fill="none" id="IExpression-backto-Group" style="stroke:#A80036;stroke-width:1.0;"/><polygon fill="none" points="832.535,1011.0861,840.722,991.5421,846.51,1011.9261,832.535,1011.0861" style="stroke:#A80036;stroke-width:1.0;"/><!--MD5=[2f71001e161c1e2e74590ae136f3e8eb]
reverse link IExpression to ExpMovIn--><path codeLine="115" d="M847.562,1011.6711 C853.98,1073.1431 865.754,1180.9261 878.5,1272.9531 C885.972,1326.9011 896.637,1389.9691 902.41,1423.2101 " fill="none" id="IExpression-backto-ExpMovIn" style="stroke:#A80036;stroke-width:1.0;"/><polygon fill="none" points="840.58,1012.2111,845.485,991.5971,854.506,1010.7701,840.58,1012.2111" style="stroke:#A80036;stroke-width:1.0;"/><!--MD5=[0485e186ac4b35d9dc5b18a62153820c]
reverse link IExpression to ExpTileGroup--><path codeLine="116" d="M909.437,1003.1851 C940.762,1026.4671 974.968,1058.5991 992.5,1096.9531 C1080.34,1289.1241 1027.93,1557.9721 1009.28,1637.7622 " fill="none" id="IExpression-backto-ExpTileGroup" style="stroke:#A80036;stroke-width:1.0;"/><polygon fill="none" points="905.218,1008.7751,892.94,991.5051,913.308,997.3491,905.218,1008.7751" style="stroke:#A80036;stroke-width:1.0;"/><!--MD5=[b953b995dc37563aadddd3a479b6c497]
link ExpMovIn to ExpTileGroup--><path codeLine="118" d="M922.0473,1482.5159 C922.0473,1482.5159 969.564,1586.6085 987.531,1625.9686 " fill="none" id="ExpMovIn-ExpTileGroup" style="stroke:#A80036;stroke-width:1.0;"/><polygon fill="#A80036" points="992.948,1637.8359,992.8494,1627.9876,990.8717,1633.2874,985.5718,1631.3097,992.948,1637.8359" style="stroke:#A80036;stroke-width:1.0;"/><line style="stroke:#A80036;stroke-width:1.0;" x1="990.8717" x2="987.549" y1="1633.2874" y2="1626.0097"/><polygon fill="#A80036" points="917.065,1471.5991,915.9172,1478.7183,922.0473,1482.5159,923.1951,1475.3967,917.065,1471.5991" style="stroke:#A80036;stroke-width:1.0;"/><text fill="#000000" font-family="sans-serif" font-size="13" lengthAdjust="spacing" textLength="24" x="963.1691" y="1626.8179">1..n</text><!--MD5=[f6e07edd0a7b900de4c0f2edfebc1b52]
reverse link IPlayerCommand to Player--><path codeLine="120" d="M1477.68,1077.4891 C1459.51,1017.2711 1430.77,942.8751 1388.5,885.9531 C1297.49,763.4031 1256.3,738.4751 1117.5,674.9531 C911.53,580.6931 640.683,552.0331 513.019,543.4831 " fill="none" id="IPlayerCommand-backto-Player" style="stroke:#A80036;stroke-width:1.0;"/><polygon fill="none" points="1484.46,1075.7521,1483.33,1096.9111,1471.02,1079.6611,1484.46,1075.7521" style="stroke:#A80036;stroke-width:1.0;"/><!--MD5=[c9fbd235d77e40527809add511bbaf88]
link CommandParser to IPlayerCommand--><path codeLine="121" d="M1099.55,772.7231 C1157.77,794.5771 1243.03,832.6601 1303.5,885.9531 C1369.23,943.8881 1423.1,1028.0941 1458.3,1092.2281 " fill="none" id="CommandParser-to-IPlayerCommand" style="stroke:#A80036;stroke-width:1.0;"/><polygon fill="#A80036" points="1460.8,1096.8111,1459.9934,1086.9954,1458.4019,1092.4237,1452.9736,1090.8323,1460.8,1096.8111" style="stroke:#A80036;stroke-width:1.0;"/><!--MD5=[a2f306db583b923597602ef4e090e065]
link IExpression to IPlayerCommand--><path codeLine="122" d="M877.173,991.6461 C897.303,1007.2961 923.882,1025.3871 950.5,1035.9531 C1030.78,1067.8171 1057.48,1050.7611 1142.5,1065.9531 C1211.23,1078.2341 1229.77,1076.4371 1296.5,1096.9531 C1300.52,1098.1881 1304.56,1099.4731 1308.63,1100.8021 " fill="none" id="IExpression-to-IPlayerCommand" style="stroke:#A80036;stroke-width:1.0;stroke-dasharray:7.0,7.0;"/><polygon fill="#A80036" points="1313.41,1102.3831,1306.123,1095.7575,1308.6633,1100.8118,1303.6089,1103.3522,1313.41,1102.3831" style="stroke:#A80036;stroke-width:1.0;"/><!--MD5=[dc28bb7b4236631df7f29adde3c9e4be]
link Tile to Color--><path codeLine="137" d="M244.4146,1278.2967 C244.4146,1278.2967 260.249,1348.2111 267.078,1378.3601 " fill="none" id="Tile-Color" style="stroke:#A80036;stroke-width:1.0;"/><polygon fill="#A80036" points="270.016,1391.3341,271.9292,1381.6729,268.9116,1386.4576,264.1268,1383.44,270.016,1391.3341" style="stroke:#A80036;stroke-width:1.0;"/><line style="stroke:#A80036;stroke-width:1.0;" x1="268.9116" x2="267.1445" y1="1386.4576" y2="1378.6551"/><polygon fill="#A80036" points="241.764,1266.5931,239.1881,1273.3285,244.4146,1278.2967,246.9905,1271.5614,241.764,1266.5931" style="stroke:#A80036;stroke-width:1.0;"/><!--MD5=[71310245f25663e561ea5d5a7d1566fc]
link Tile to TileNumber--><path codeLine="138" d="M202.9378,1278.3063 C202.9378,1278.3063 196.558,1306.9581 193.454,1320.9011 " fill="none" id="Tile-TileNumber" style="stroke:#A80036;stroke-width:1.0;"/><polygon fill="#A80036" points="190.612,1333.6661,196.4727,1325.7508,191.6989,1328.7857,188.664,1324.0118,190.612,1333.6661" style="stroke:#A80036;stroke-width:1.0;"/><line style="stroke:#A80036;stroke-width:1.0;" x1="191.6989" x2="193.437" y1="1328.7857" y2="1320.9771"/><polygon fill="#A80036" points="205.546,1266.5931,200.3375,1271.5803,202.9378,1278.3063,208.1463,1273.3191,205.546,1266.5931" style="stroke:#A80036;stroke-width:1.0;"/><!--MD5=[bc05a2d9d6c308947634196ac0067bff]
@startuml
title diagrama de clases de diseño



class Game {
  +set(GameMemento)
  +executeAction(string input)
  +getMemento()
  +takeTurn()
  +changeTurn()
  +hasWinner()
}


Game *- -> Turn
Turn *- -> Table
Turn *- -> "2..4" Player
Table *- -> Pounch
Table *- -> "0..n" TilesGroup
Player - -> Table
Player - -> "n" Tile

Game - -> Player

class Turn {
   -currentPlayer
   -turnsAfterEmptyPounch
   +take(): Player
   +change()
   +isEnd(): bool
   +getWinnerByPoints(): Player
   +hasWinnerByPoints(): bool
   +save(): SnapShot
   +restore(Snapshot)
   +getMemento(): GameMemento
   +restore(GameMemento)
}

Turn ..> GameMemento

class Table {
  +extract()
  +addTileToGroup(tile, groupIndex)
  +isValidInsertion(tile, groupIndex)
  +moveTileFromOriginToTarget(tile, originGroup, targetGroup)
  +isValidGroups(): bool
  +isEmptyPounch(): bool
  +hasGroup(indexGroup): bool
  +existTileInTable(tile): bool
}

class Pounch {
  +extract()
  +isEmpty(): bool
}

class Player {
  +extractTile()
  +executeAction()
  +isWinner()
  +getPoints()
  +isResume()
  +isEnd()
  +getLastAction()
  +executeAction(input)
}

abstract class TilesGroup {
   +addTile(tile)
   +isValid()
   +removeTile(Tile)
   +hasIndex(indexGroup):bool
   +getTile(tile): Tile
}

class Tile {
  +getNumber()
  +isNumberLessThan(tile)
  +isNumberGreaterThan(tile)
  +isColorEqualsTo(tile)
  +isNumberDistinctTo(tile)
  +isNumberLessOrEqualThan(tile)
  +isColorDistinct(tile)
  +isNumberEqualTo(tile)
  +clone(tile)
}

TilesGroup *- -> "3..13" Tile

Player ..> CommandParser
interface IExpression {
   +interpret(IPlayerCommand)
}
CommandParser *- -> IExpression
CommandParser ..> CommandString
CommandParser ..> SubcommandString

IExpression <|- - ExpPut
IExpression <|- - ExpMov
IExpression <|- - ExpEnd
IExpression <|- - ExpUndo
IExpression <|- - ExpRedo

ExpPut *- -> "1..n" ExpPutIn
ExpMov *- -> "1..n" ExpMovIn

ExpMovIn *- -> Group: origin
ExpMovIn *- -> Group: target
ExpPutIn *- -> "1..n" ExpTileRack
ExpPutIn *- -> Group: target

IExpression <|- - ExpPutIn
IExpression <|- - ExpTileRack
IExpression <|- - Group
IExpression <|- - ExpMovIn
IExpression <|- - ExpTileGroup

ExpMovIn *- -> "1..n" ExpTileGroup

IPlayerCommand <|- - Player
CommandParser - -> IPlayerCommand
IExpression ..> IPlayerCommand

interface IPlayerCommand {
  +addTileToGroup(tile, groupIndex) 
  +existGroup(targetGroup): bool
  +existTileInRack(tile): bool
  +existTileInTable(tile): bool
  +moveTileFromGroupToGroup(tile, origin, target)
  +isAllowedToTileDown(List<List<string>> tileGroups): bool
  +finishTurn();
  +existsTileInGroup(string tileDescription, int group):bool
  +isValidGroups(): bool
  +isValidAddTilesInGroup(List<string> tiles, int groupIndex): bool
}

Tile *- -> Color
Tile *- -> TileNumber

enum Color {
  RED,
  GREEN,
  BLACK,
  YELLOW,
  JOKER
}

enum TileNumber {
  ONE,
  TWO,
  THREE,
  FOUR,
  FIVE,
  SIX,
  SEVEN,
  EIGHT,
  NINE, 
  TEN,
  ELEVEN,
  TWELVE,
  THIRTEEN,
  JOKER
}

enum CommandString {
   PUT = "PUT",
   MOV = "MOV";
   END = "END";
   HELP = "HELP";
   UNDO = "UNDO";
   REDO = "REDO";
   RESUME = "RESUME";
   EXIT = "EXIT";
}
enum SubcommandString {
   IN = "IN",
   FROM = "FROM"
}


class GameMemento {
  +getPlayersNumber(): int
  +getCurrentPlayer(): int
  +getTurnsAfterEmptyPounch(): int
  +getPlayerState(playerIndex): string
  +getTilesPounch(): string
  +getTilesGroup(): string
}
@enduml

PlantUML version 1.2021.10beta2(Unknown compile time)
(GPL source distribution)
Java Runtime: Java(TM) SE Runtime Environment
JVM: Java HotSpot(TM) 64-Bit Server VM
Default Encoding: UTF-8
Language: en
Country: US
--></g></svg>