<?xml version="1.0" encoding="UTF-8" standalone="no"?><svg xmlns="http://www.w3.org/2000/svg" xmlns:xlink="http://www.w3.org/1999/xlink" contentScriptType="application/ecmascript" contentStyleType="text/css" height="1795px" preserveAspectRatio="none" style="width:1530px;height:1795px;background:#FFFFFF;" version="1.1" viewBox="0 0 1530 1795" width="1530px" zoomAndPan="magnify"><defs><filter height="300%" id="f1cpep478fqcam" width="300%" x="-1" y="-1"><feGaussianBlur result="blurOut" stdDeviation="2.0"/><feColorMatrix in="blurOut" result="blurOut2" type="matrix" values="0 0 0 0 0 0 0 0 0 0 0 0 0 0 0 0 0 0 .4 0"/><feOffset dx="4.0" dy="4.0" in="blurOut2" result="blurOut3"/><feBlend in="SourceGraphic" in2="blurOut3" mode="normal"/></filter></defs><g><text fill="#000000" font-family="sans-serif" font-size="18" lengthAdjust="spacing" textLength="272" x="622.75" y="16.708">diagrama de clases de diseño</text><!--MD5=[947f430ecf68564e20f6ee2978cd69df]
class Rummy--><rect codeLine="3" fill="#FEFECE" filter="url(#f1cpep478fqcam)" height="60.8047" id="Rummy" style="stroke:#A80036;stroke-width:1.5;" width="75" x="262" y="27.9531"/><ellipse cx="277" cy="43.9531" fill="#ADD1B2" rx="11" ry="11" style="stroke:#A80036;stroke-width:1.0;"/><path d="M279.3438,39.625 C278.4063,39.1875 277.8125,39.0469 276.9375,39.0469 C274.3125,39.0469 272.3125,41.125 272.3125,43.8438 L272.3125,44.9688 C272.3125,47.5469 274.4219,49.4375 277.3125,49.4375 C278.5313,49.4375 279.6875,49.1406 280.4375,48.5938 C281.0156,48.1875 281.3438,47.7344 281.3438,47.3438 C281.3438,46.8906 280.9531,46.5 280.4844,46.5 C280.2656,46.5 280.0625,46.5781 279.875,46.7656 C279.4219,47.25 279.4219,47.25 279.2344,47.3438 C278.8125,47.6094 278.125,47.7344 277.3594,47.7344 C275.3125,47.7344 274.0156,46.6406 274.0156,44.9375 L274.0156,43.8438 C274.0156,42.0625 275.2656,40.75 277,40.75 C277.5781,40.75 278.1875,40.9063 278.6563,41.1563 C279.1406,41.4375 279.3125,41.6563 279.4063,42.0625 C279.4688,42.4688 279.5,42.5938 279.6406,42.7188 C279.7813,42.8594 280.0156,42.9688 280.2344,42.9688 C280.5,42.9688 280.7656,42.8281 280.9375,42.6094 C281.0469,42.4531 281.0781,42.2656 281.0781,41.8438 L281.0781,40.4219 C281.0781,39.9844 281.0625,39.8594 280.9688,39.7031 C280.8125,39.4375 280.5313,39.2969 280.2344,39.2969 C279.9375,39.2969 279.7344,39.3906 279.5156,39.7031 L279.3438,39.625 Z " fill="#000000"/><text fill="#000000" font-family="sans-serif" font-size="12" lengthAdjust="spacing" textLength="43" x="291" y="48.1074">Rummy</text><line style="stroke:#A80036;stroke-width:1.5;" x1="263" x2="336" y1="59.9531" y2="59.9531"/><line style="stroke:#A80036;stroke-width:1.5;" x1="263" x2="336" y1="67.9531" y2="67.9531"/><ellipse cx="273" cy="78.9531" fill="#84BE84" rx="3" ry="3" style="stroke:#038048;stroke-width:1.0;"/><text fill="#000000" font-family="sans-serif" font-size="11" lengthAdjust="spacing" textLength="32" x="282" y="82.1636">play()</text><!--MD5=[ad92134faa169d2e61065c0841e9c284]
class SnapShotHistory--><rect codeLine="174" fill="#FEFECE" filter="url(#f1cpep478fqcam)" height="86.4141" id="SnapShotHistory" style="stroke:#A80036;stroke-width:1.5;" width="201" x="45" y="149.9531"/><ellipse cx="91.25" cy="165.9531" fill="#ADD1B2" rx="11" ry="11" style="stroke:#A80036;stroke-width:1.0;"/><path d="M93.5938,161.625 C92.6563,161.1875 92.0625,161.0469 91.1875,161.0469 C88.5625,161.0469 86.5625,163.125 86.5625,165.8438 L86.5625,166.9688 C86.5625,169.5469 88.6719,171.4375 91.5625,171.4375 C92.7813,171.4375 93.9375,171.1406 94.6875,170.5938 C95.2656,170.1875 95.5938,169.7344 95.5938,169.3438 C95.5938,168.8906 95.2031,168.5 94.7344,168.5 C94.5156,168.5 94.3125,168.5781 94.125,168.7656 C93.6719,169.25 93.6719,169.25 93.4844,169.3438 C93.0625,169.6094 92.375,169.7344 91.6094,169.7344 C89.5625,169.7344 88.2656,168.6406 88.2656,166.9375 L88.2656,165.8438 C88.2656,164.0625 89.5156,162.75 91.25,162.75 C91.8281,162.75 92.4375,162.9063 92.9063,163.1563 C93.3906,163.4375 93.5625,163.6563 93.6563,164.0625 C93.7188,164.4688 93.75,164.5938 93.8906,164.7188 C94.0313,164.8594 94.2656,164.9688 94.4844,164.9688 C94.75,164.9688 95.0156,164.8281 95.1875,164.6094 C95.2969,164.4531 95.3281,164.2656 95.3281,163.8438 L95.3281,162.4219 C95.3281,161.9844 95.3125,161.8594 95.2188,161.7031 C95.0625,161.4375 94.7813,161.2969 94.4844,161.2969 C94.1875,161.2969 93.9844,161.3906 93.7656,161.7031 L93.5938,161.625 Z " fill="#000000"/><text fill="#000000" font-family="sans-serif" font-size="12" lengthAdjust="spacing" textLength="100" x="111.75" y="170.1074">SnapShotHistory</text><line style="stroke:#A80036;stroke-width:1.5;" x1="46" x2="245" y1="181.9531" y2="181.9531"/><rect fill="none" height="6" style="stroke:#C82930;stroke-width:1.0;" width="6" x="53" y="189.9531"/><text fill="#000000" font-family="sans-serif" font-size="11" lengthAdjust="spacing" textLength="40" x="65" y="196.1636">pointer</text><line style="stroke:#A80036;stroke-width:1.5;" x1="46" x2="245" y1="202.7578" y2="202.7578"/><ellipse cx="56" cy="213.7578" fill="#84BE84" rx="3" ry="3" style="stroke:#038048;stroke-width:1.0;"/><text fill="#000000" font-family="sans-serif" font-size="11" lengthAdjust="spacing" textLength="84" x="65" y="216.9683">backup(player)</text><ellipse cx="56" cy="226.5625" fill="#84BE84" rx="3" ry="3" style="stroke:#038048;stroke-width:1.0;"/><text fill="#000000" font-family="sans-serif" font-size="11" lengthAdjust="spacing" textLength="175" x="65" y="229.7729">restoreAccordingAction(player)</text><!--MD5=[dd91eae41778c45e12552e5329e240e8]
class Turn--><rect codeLine="18" fill="#FEFECE" filter="url(#f1cpep478fqcam)" height="176.0469" id="Turn" style="stroke:#A80036;stroke-width:1.5;" width="183" x="189" y="296.9531"/><ellipse cx="263.25" cy="312.9531" fill="#ADD1B2" rx="11" ry="11" style="stroke:#A80036;stroke-width:1.0;"/><path d="M265.5938,308.625 C264.6563,308.1875 264.0625,308.0469 263.1875,308.0469 C260.5625,308.0469 258.5625,310.125 258.5625,312.8438 L258.5625,313.9688 C258.5625,316.5469 260.6719,318.4375 263.5625,318.4375 C264.7813,318.4375 265.9375,318.1406 266.6875,317.5938 C267.2656,317.1875 267.5938,316.7344 267.5938,316.3438 C267.5938,315.8906 267.2031,315.5 266.7344,315.5 C266.5156,315.5 266.3125,315.5781 266.125,315.7656 C265.6719,316.25 265.6719,316.25 265.4844,316.3438 C265.0625,316.6094 264.375,316.7344 263.6094,316.7344 C261.5625,316.7344 260.2656,315.6406 260.2656,313.9375 L260.2656,312.8438 C260.2656,311.0625 261.5156,309.75 263.25,309.75 C263.8281,309.75 264.4375,309.9063 264.9063,310.1563 C265.3906,310.4375 265.5625,310.6563 265.6563,311.0625 C265.7188,311.4688 265.75,311.5938 265.8906,311.7188 C266.0313,311.8594 266.2656,311.9688 266.4844,311.9688 C266.75,311.9688 267.0156,311.8281 267.1875,311.6094 C267.2969,311.4531 267.3281,311.2656 267.3281,310.8438 L267.3281,309.4219 C267.3281,308.9844 267.3125,308.8594 267.2188,308.7031 C267.0625,308.4375 266.7813,308.2969 266.4844,308.2969 C266.1875,308.2969 265.9844,308.3906 265.7656,308.7031 L265.5938,308.625 Z " fill="#000000"/><text fill="#000000" font-family="sans-serif" font-size="12" lengthAdjust="spacing" textLength="26" x="283.75" y="317.1074">Turn</text><line style="stroke:#A80036;stroke-width:1.5;" x1="190" x2="371" y1="328.9531" y2="328.9531"/><rect fill="none" height="6" style="stroke:#C82930;stroke-width:1.0;" width="6" x="197" y="336.9531"/><text fill="#000000" font-family="sans-serif" font-size="11" lengthAdjust="spacing" textLength="75" x="209" y="343.1636">currentPlayer</text><rect fill="none" height="6" style="stroke:#C82930;stroke-width:1.0;" width="6" x="197" y="349.7578"/><text fill="#000000" font-family="sans-serif" font-size="11" lengthAdjust="spacing" textLength="132" x="209" y="355.9683">turnsAfterEmptyPounch</text><line style="stroke:#A80036;stroke-width:1.5;" x1="190" x2="371" y1="362.5625" y2="362.5625"/><ellipse cx="200" cy="373.5625" fill="#84BE84" rx="3" ry="3" style="stroke:#038048;stroke-width:1.0;"/><text fill="#000000" font-family="sans-serif" font-size="11" lengthAdjust="spacing" textLength="75" x="209" y="376.7729">take(): Player</text><ellipse cx="200" cy="386.3672" fill="#84BE84" rx="3" ry="3" style="stroke:#038048;stroke-width:1.0;"/><text fill="#000000" font-family="sans-serif" font-size="11" lengthAdjust="spacing" textLength="50" x="209" y="389.5776">change()</text><ellipse cx="200" cy="399.1719" fill="#84BE84" rx="3" ry="3" style="stroke:#038048;stroke-width:1.0;"/><text fill="#000000" font-family="sans-serif" font-size="11" lengthAdjust="spacing" textLength="69" x="209" y="402.3823">isEnd(): bool</text><ellipse cx="200" cy="411.9766" fill="#84BE84" rx="3" ry="3" style="stroke:#038048;stroke-width:1.0;"/><text fill="#000000" font-family="sans-serif" font-size="11" lengthAdjust="spacing" textLength="36" x="209" y="415.187">write()</text><ellipse cx="200" cy="424.7813" fill="#84BE84" rx="3" ry="3" style="stroke:#038048;stroke-width:1.0;"/><text fill="#000000" font-family="sans-serif" font-size="11" lengthAdjust="spacing" textLength="157" x="209" y="427.9917">getWinnerByPoints(): Player</text><ellipse cx="200" cy="437.5859" fill="#84BE84" rx="3" ry="3" style="stroke:#038048;stroke-width:1.0;"/><text fill="#000000" font-family="sans-serif" font-size="11" lengthAdjust="spacing" textLength="147" x="209" y="440.7964">hasWinnerByPoints(): bool</text><ellipse cx="200" cy="450.3906" fill="#84BE84" rx="3" ry="3" style="stroke:#038048;stroke-width:1.0;"/><text fill="#000000" font-family="sans-serif" font-size="11" lengthAdjust="spacing" textLength="98" x="209" y="453.6011">save(): SnapShot</text><ellipse cx="200" cy="463.1953" fill="#84BE84" rx="3" ry="3" style="stroke:#038048;stroke-width:1.0;"/><text fill="#000000" font-family="sans-serif" font-size="11" lengthAdjust="spacing" textLength="102" x="209" y="466.4058">restore(Snapshot)</text><!--MD5=[c0b936abb008b3271898d4186b5531e4]
class Table--><rect codeLine="32" fill="#FEFECE" filter="url(#f1cpep478fqcam)" height="163.2422" id="Table" style="stroke:#A80036;stroke-width:1.5;" width="365" x="7" y="757.9531"/><ellipse cx="168.75" cy="773.9531" fill="#ADD1B2" rx="11" ry="11" style="stroke:#A80036;stroke-width:1.0;"/><path d="M171.0938,769.625 C170.1563,769.1875 169.5625,769.0469 168.6875,769.0469 C166.0625,769.0469 164.0625,771.125 164.0625,773.8438 L164.0625,774.9688 C164.0625,777.5469 166.1719,779.4375 169.0625,779.4375 C170.2813,779.4375 171.4375,779.1406 172.1875,778.5938 C172.7656,778.1875 173.0938,777.7344 173.0938,777.3438 C173.0938,776.8906 172.7031,776.5 172.2344,776.5 C172.0156,776.5 171.8125,776.5781 171.625,776.7656 C171.1719,777.25 171.1719,777.25 170.9844,777.3438 C170.5625,777.6094 169.875,777.7344 169.1094,777.7344 C167.0625,777.7344 165.7656,776.6406 165.7656,774.9375 L165.7656,773.8438 C165.7656,772.0625 167.0156,770.75 168.75,770.75 C169.3281,770.75 169.9375,770.9063 170.4063,771.1563 C170.8906,771.4375 171.0625,771.6563 171.1563,772.0625 C171.2188,772.4688 171.25,772.5938 171.3906,772.7188 C171.5313,772.8594 171.7656,772.9688 171.9844,772.9688 C172.25,772.9688 172.5156,772.8281 172.6875,772.6094 C172.7969,772.4531 172.8281,772.2656 172.8281,771.8438 L172.8281,770.4219 C172.8281,769.9844 172.8125,769.8594 172.7188,769.7031 C172.5625,769.4375 172.2813,769.2969 171.9844,769.2969 C171.6875,769.2969 171.4844,769.3906 171.2656,769.7031 L171.0938,769.625 Z " fill="#000000"/><text fill="#000000" font-family="sans-serif" font-size="12" lengthAdjust="spacing" textLength="33" x="189.25" y="778.1074">Table</text><line style="stroke:#A80036;stroke-width:1.5;" x1="8" x2="371" y1="789.9531" y2="789.9531"/><line style="stroke:#A80036;stroke-width:1.5;" x1="8" x2="371" y1="797.9531" y2="797.9531"/><ellipse cx="18" cy="808.9531" fill="#84BE84" rx="3" ry="3" style="stroke:#038048;stroke-width:1.0;"/><text fill="#000000" font-family="sans-serif" font-size="11" lengthAdjust="spacing" textLength="48" x="27" y="812.1636">extract()</text><ellipse cx="18" cy="821.7578" fill="#84BE84" rx="3" ry="3" style="stroke:#038048;stroke-width:1.0;"/><text fill="#000000" font-family="sans-serif" font-size="11" lengthAdjust="spacing" textLength="187" x="27" y="824.9683">addTileToGroup(tile, groupIndex)</text><ellipse cx="18" cy="834.5625" fill="#84BE84" rx="3" ry="3" style="stroke:#038048;stroke-width:1.0;"/><text fill="#000000" font-family="sans-serif" font-size="11" lengthAdjust="spacing" textLength="183" x="27" y="837.7729">isValidInsertion(tile, groupIndex)</text><ellipse cx="18" cy="847.3672" fill="#84BE84" rx="3" ry="3" style="stroke:#038048;stroke-width:1.0;"/><text fill="#000000" font-family="sans-serif" font-size="11" lengthAdjust="spacing" textLength="339" x="27" y="850.5776">moveTileFromOriginToTarget(tile, originGroup, targetGroup)</text><ellipse cx="18" cy="860.1719" fill="#84BE84" rx="3" ry="3" style="stroke:#038048;stroke-width:1.0;"/><text fill="#000000" font-family="sans-serif" font-size="11" lengthAdjust="spacing" textLength="116" x="27" y="863.3823">isValidGroups(): bool</text><ellipse cx="18" cy="872.9766" fill="#84BE84" rx="3" ry="3" style="stroke:#038048;stroke-width:1.0;"/><text fill="#000000" font-family="sans-serif" font-size="11" lengthAdjust="spacing" textLength="36" x="27" y="876.187">write()</text><ellipse cx="18" cy="885.7813" fill="#84BE84" rx="3" ry="3" style="stroke:#038048;stroke-width:1.0;"/><text fill="#000000" font-family="sans-serif" font-size="11" lengthAdjust="spacing" textLength="124" x="27" y="888.9917">isEmptyPounch(): bool</text><ellipse cx="18" cy="898.5859" fill="#84BE84" rx="3" ry="3" style="stroke:#038048;stroke-width:1.0;"/><text fill="#000000" font-family="sans-serif" font-size="11" lengthAdjust="spacing" textLength="159" x="27" y="901.7964">hasGroup(indexGroup): bool</text><ellipse cx="18" cy="911.3906" fill="#84BE84" rx="3" ry="3" style="stroke:#038048;stroke-width:1.0;"/><text fill="#000000" font-family="sans-serif" font-size="11" lengthAdjust="spacing" textLength="148" x="27" y="914.6011">existTileInTable(tile): bool</text><!--MD5=[2cb47ba637a0d19583e6199456f6ad0b]
class Player--><rect codeLine="49" fill="#FEFECE" filter="url(#f1cpep478fqcam)" height="163.2422" id="Player" style="stroke:#A80036;stroke-width:1.5;" width="150" x="350.5" y="533.9531"/><ellipse cx="403.25" cy="549.9531" fill="#ADD1B2" rx="11" ry="11" style="stroke:#A80036;stroke-width:1.0;"/><path d="M405.5938,545.625 C404.6563,545.1875 404.0625,545.0469 403.1875,545.0469 C400.5625,545.0469 398.5625,547.125 398.5625,549.8438 L398.5625,550.9688 C398.5625,553.5469 400.6719,555.4375 403.5625,555.4375 C404.7813,555.4375 405.9375,555.1406 406.6875,554.5938 C407.2656,554.1875 407.5938,553.7344 407.5938,553.3438 C407.5938,552.8906 407.2031,552.5 406.7344,552.5 C406.5156,552.5 406.3125,552.5781 406.125,552.7656 C405.6719,553.25 405.6719,553.25 405.4844,553.3438 C405.0625,553.6094 404.375,553.7344 403.6094,553.7344 C401.5625,553.7344 400.2656,552.6406 400.2656,550.9375 L400.2656,549.8438 C400.2656,548.0625 401.5156,546.75 403.25,546.75 C403.8281,546.75 404.4375,546.9063 404.9063,547.1563 C405.3906,547.4375 405.5625,547.6563 405.6563,548.0625 C405.7188,548.4688 405.75,548.5938 405.8906,548.7188 C406.0313,548.8594 406.2656,548.9688 406.4844,548.9688 C406.75,548.9688 407.0156,548.8281 407.1875,548.6094 C407.2969,548.4531 407.3281,548.2656 407.3281,547.8438 L407.3281,546.4219 C407.3281,545.9844 407.3125,545.8594 407.2188,545.7031 C407.0625,545.4375 406.7813,545.2969 406.4844,545.2969 C406.1875,545.2969 405.9844,545.3906 405.7656,545.7031 L405.5938,545.625 Z " fill="#000000"/><text fill="#000000" font-family="sans-serif" font-size="12" lengthAdjust="spacing" textLength="36" x="423.75" y="554.1074">Player</text><line style="stroke:#A80036;stroke-width:1.5;" x1="351.5" x2="499.5" y1="565.9531" y2="565.9531"/><line style="stroke:#A80036;stroke-width:1.5;" x1="351.5" x2="499.5" y1="573.9531" y2="573.9531"/><ellipse cx="361.5" cy="584.9531" fill="#84BE84" rx="3" ry="3" style="stroke:#038048;stroke-width:1.0;"/><text fill="#000000" font-family="sans-serif" font-size="11" lengthAdjust="spacing" textLength="69" x="370.5" y="588.1636">extractTile()</text><ellipse cx="361.5" cy="597.7578" fill="#84BE84" rx="3" ry="3" style="stroke:#038048;stroke-width:1.0;"/><text fill="#000000" font-family="sans-serif" font-size="11" lengthAdjust="spacing" textLength="91" x="370.5" y="600.9683">executeAction()</text><ellipse cx="361.5" cy="610.5625" fill="#84BE84" rx="3" ry="3" style="stroke:#038048;stroke-width:1.0;"/><text fill="#000000" font-family="sans-serif" font-size="11" lengthAdjust="spacing" textLength="57" x="370.5" y="613.7729">isWinner()</text><ellipse cx="361.5" cy="623.3672" fill="#84BE84" rx="3" ry="3" style="stroke:#038048;stroke-width:1.0;"/><text fill="#000000" font-family="sans-serif" font-size="11" lengthAdjust="spacing" textLength="60" x="370.5" y="626.5776">getPoints()</text><ellipse cx="361.5" cy="636.1719" fill="#84BE84" rx="3" ry="3" style="stroke:#038048;stroke-width:1.0;"/><text fill="#000000" font-family="sans-serif" font-size="11" lengthAdjust="spacing" textLength="36" x="370.5" y="639.3823">write()</text><ellipse cx="361.5" cy="648.9766" fill="#84BE84" rx="3" ry="3" style="stroke:#038048;stroke-width:1.0;"/><text fill="#000000" font-family="sans-serif" font-size="11" lengthAdjust="spacing" textLength="64" x="370.5" y="652.187">isResume()</text><ellipse cx="361.5" cy="661.7813" fill="#84BE84" rx="3" ry="3" style="stroke:#038048;stroke-width:1.0;"/><text fill="#000000" font-family="sans-serif" font-size="11" lengthAdjust="spacing" textLength="124" x="370.5" y="664.9917">writeCongratulations()</text><ellipse cx="361.5" cy="674.5859" fill="#84BE84" rx="3" ry="3" style="stroke:#038048;stroke-width:1.0;"/><text fill="#000000" font-family="sans-serif" font-size="11" lengthAdjust="spacing" textLength="38" x="370.5" y="677.7964">isEnd()</text><ellipse cx="361.5" cy="687.3906" fill="#84BE84" rx="3" ry="3" style="stroke:#038048;stroke-width:1.0;"/><text fill="#000000" font-family="sans-serif" font-size="11" lengthAdjust="spacing" textLength="85" x="370.5" y="690.6011">getLastAction()</text><!--MD5=[dc7c7e128afb943b6ff798915202b1a3]
class Pounch--><rect codeLine="44" fill="#FEFECE" filter="url(#f1cpep478fqcam)" height="73.6094" id="Pounch" style="stroke:#A80036;stroke-width:1.5;" width="110" x="262.5" y="1019.9531"/><ellipse cx="293.7" cy="1035.9531" fill="#ADD1B2" rx="11" ry="11" style="stroke:#A80036;stroke-width:1.0;"/><path d="M296.0438,1031.625 C295.1063,1031.1875 294.5125,1031.0469 293.6375,1031.0469 C291.0125,1031.0469 289.0125,1033.125 289.0125,1035.8438 L289.0125,1036.9688 C289.0125,1039.5469 291.1219,1041.4375 294.0125,1041.4375 C295.2313,1041.4375 296.3875,1041.1406 297.1375,1040.5938 C297.7156,1040.1875 298.0438,1039.7344 298.0438,1039.3438 C298.0438,1038.8906 297.6531,1038.5 297.1844,1038.5 C296.9656,1038.5 296.7625,1038.5781 296.575,1038.7656 C296.1219,1039.25 296.1219,1039.25 295.9344,1039.3438 C295.5125,1039.6094 294.825,1039.7344 294.0594,1039.7344 C292.0125,1039.7344 290.7156,1038.6406 290.7156,1036.9375 L290.7156,1035.8438 C290.7156,1034.0625 291.9656,1032.75 293.7,1032.75 C294.2781,1032.75 294.8875,1032.9063 295.3563,1033.1563 C295.8406,1033.4375 296.0125,1033.6563 296.1063,1034.0625 C296.1688,1034.4688 296.2,1034.5938 296.3406,1034.7188 C296.4813,1034.8594 296.7156,1034.9688 296.9344,1034.9688 C297.2,1034.9688 297.4656,1034.8281 297.6375,1034.6094 C297.7469,1034.4531 297.7781,1034.2656 297.7781,1033.8438 L297.7781,1032.4219 C297.7781,1031.9844 297.7625,1031.8594 297.6688,1031.7031 C297.5125,1031.4375 297.2313,1031.2969 296.9344,1031.2969 C296.6375,1031.2969 296.4344,1031.3906 296.2156,1031.7031 L296.0438,1031.625 Z " fill="#000000"/><text fill="#000000" font-family="sans-serif" font-size="12" lengthAdjust="spacing" textLength="42" x="311.3" y="1040.1074">Pounch</text><line style="stroke:#A80036;stroke-width:1.5;" x1="263.5" x2="371.5" y1="1051.9531" y2="1051.9531"/><line style="stroke:#A80036;stroke-width:1.5;" x1="263.5" x2="371.5" y1="1059.9531" y2="1059.9531"/><ellipse cx="273.5" cy="1070.9531" fill="#84BE84" rx="3" ry="3" style="stroke:#038048;stroke-width:1.0;"/><text fill="#000000" font-family="sans-serif" font-size="11" lengthAdjust="spacing" textLength="48" x="282.5" y="1074.1636">extract()</text><ellipse cx="273.5" cy="1083.7578" fill="#84BE84" rx="3" ry="3" style="stroke:#038048;stroke-width:1.0;"/><text fill="#000000" font-family="sans-serif" font-size="11" lengthAdjust="spacing" textLength="84" x="282.5" y="1086.9683">isEmpty(): bool</text><!--MD5=[3bdfdc669000278f0162822a74784876]
class TilesGroup--><rect codeLine="61" fill="#FEFECE" filter="url(#f1cpep478fqcam)" height="124.8281" id="TilesGroup" style="stroke:#A80036;stroke-width:1.5;" width="179" x="48" y="994.4531"/><ellipse cx="101.75" cy="1010.4531" fill="#A9DCDF" rx="11" ry="11" style="stroke:#A80036;stroke-width:1.0;"/><path d="M103.8281,1012.2656 L104.2188,1013.25 L103.8281,1013.25 C103.375,1013.25 103.2656,1013.2656 103.1094,1013.375 C102.8594,1013.5313 102.7031,1013.8125 102.7031,1014.1094 C102.7031,1014.375 102.8438,1014.625 103.0625,1014.7813 C103.2031,1014.9063 103.4063,1014.9531 103.8281,1014.9531 L106.1875,1014.9531 C106.5469,1014.9531 106.7656,1014.9219 106.9063,1014.8281 C107.1563,1014.6875 107.3125,1014.3906 107.3125,1014.1094 C107.3125,1013.8281 107.1719,1013.5781 106.9531,1013.4219 C106.7813,1013.2813 106.625,1013.25 106.1563,1013.25 L102.7656,1005.0469 L99.0938,1005.0469 C98.6406,1005.0469 98.5156,1005.0625 98.3594,1005.1563 C98.1094,1005.3281 97.9531,1005.6094 97.9531,1005.8906 C97.9531,1006.1719 98.0938,1006.4219 98.3125,1006.5938 C98.4844,1006.7031 98.6563,1006.7344 99.0938,1006.7344 L100.1719,1006.7344 L97.5313,1013.25 C97.1094,1013.25 96.9531,1013.2656 96.7969,1013.375 C96.5469,1013.5313 96.3906,1013.8125 96.3906,1014.1094 C96.3906,1014.6719 96.7656,1014.9531 97.5156,1014.9531 L99.7813,1014.9531 C100.1406,1014.9531 100.3594,1014.9219 100.4844,1014.8281 C100.75,1014.6875 100.8906,1014.3906 100.8906,1014.1094 C100.8906,1013.8281 100.7656,1013.5781 100.5469,1013.4063 C100.375,1013.2813 100.2344,1013.25 99.7813,1013.25 L99.3906,1013.25 L99.7813,1012.2656 L103.8281,1012.2656 Z M103.125,1010.5625 L100.4531,1010.5625 L101.7969,1007.2969 L103.125,1010.5625 Z " fill="#000000"/><text fill="#000000" font-family="sans-serif" font-size="12" font-style="italic" lengthAdjust="spacing" textLength="63" x="122.25" y="1014.6074">TilesGroup</text><line style="stroke:#A80036;stroke-width:1.5;" x1="49" x2="226" y1="1026.4531" y2="1026.4531"/><line style="stroke:#A80036;stroke-width:1.5;" x1="49" x2="226" y1="1034.4531" y2="1034.4531"/><ellipse cx="59" cy="1045.4531" fill="#84BE84" rx="3" ry="3" style="stroke:#038048;stroke-width:1.0;"/><text fill="#000000" font-family="sans-serif" font-size="11" lengthAdjust="spacing" textLength="68" x="68" y="1048.6636">addTile(tile)</text><ellipse cx="59" cy="1058.2578" fill="#84BE84" rx="3" ry="3" style="stroke:#038048;stroke-width:1.0;"/><text fill="#000000" font-family="sans-serif" font-size="11" lengthAdjust="spacing" textLength="45" x="68" y="1061.4683">isValid()</text><ellipse cx="59" cy="1071.0625" fill="#84BE84" rx="3" ry="3" style="stroke:#038048;stroke-width:1.0;"/><text fill="#000000" font-family="sans-serif" font-size="11" lengthAdjust="spacing" textLength="95" x="68" y="1074.2729">removeTile(Tile)</text><ellipse cx="59" cy="1083.8672" fill="#84BE84" rx="3" ry="3" style="stroke:#038048;stroke-width:1.0;"/><text fill="#000000" font-family="sans-serif" font-size="11" lengthAdjust="spacing" textLength="153" x="68" y="1087.0776">hasIndex(indexGroup):bool</text><ellipse cx="59" cy="1096.6719" fill="#84BE84" rx="3" ry="3" style="stroke:#038048;stroke-width:1.0;"/><text fill="#000000" font-family="sans-serif" font-size="11" lengthAdjust="spacing" textLength="94" x="68" y="1099.8823">getTile(tile): Tile</text><ellipse cx="59" cy="1109.4766" fill="#84BE84" rx="3" ry="3" style="stroke:#038048;stroke-width:1.0;"/><text fill="#000000" font-family="sans-serif" font-size="11" lengthAdjust="spacing" textLength="36" x="68" y="1112.687">write()</text><!--MD5=[18e4d9ca2a6cdced7b66e5fef94ef6f6]
class Tile--><rect codeLine="70" fill="#FEFECE" filter="url(#f1cpep478fqcam)" height="163.2422" id="Tile" style="stroke:#A80036;stroke-width:1.5;" width="204" x="142.5" y="1199.4531"/><ellipse cx="229.75" cy="1215.4531" fill="#ADD1B2" rx="11" ry="11" style="stroke:#A80036;stroke-width:1.0;"/><path d="M232.0938,1211.125 C231.1563,1210.6875 230.5625,1210.5469 229.6875,1210.5469 C227.0625,1210.5469 225.0625,1212.625 225.0625,1215.3438 L225.0625,1216.4688 C225.0625,1219.0469 227.1719,1220.9375 230.0625,1220.9375 C231.2813,1220.9375 232.4375,1220.6406 233.1875,1220.0938 C233.7656,1219.6875 234.0938,1219.2344 234.0938,1218.8438 C234.0938,1218.3906 233.7031,1218 233.2344,1218 C233.0156,1218 232.8125,1218.0781 232.625,1218.2656 C232.1719,1218.75 232.1719,1218.75 231.9844,1218.8438 C231.5625,1219.1094 230.875,1219.2344 230.1094,1219.2344 C228.0625,1219.2344 226.7656,1218.1406 226.7656,1216.4375 L226.7656,1215.3438 C226.7656,1213.5625 228.0156,1212.25 229.75,1212.25 C230.3281,1212.25 230.9375,1212.4063 231.4063,1212.6563 C231.8906,1212.9375 232.0625,1213.1563 232.1563,1213.5625 C232.2188,1213.9688 232.25,1214.0938 232.3906,1214.2188 C232.5313,1214.3594 232.7656,1214.4688 232.9844,1214.4688 C233.25,1214.4688 233.5156,1214.3281 233.6875,1214.1094 C233.7969,1213.9531 233.8281,1213.7656 233.8281,1213.3438 L233.8281,1211.9219 C233.8281,1211.4844 233.8125,1211.3594 233.7188,1211.2031 C233.5625,1210.9375 233.2813,1210.7969 232.9844,1210.7969 C232.6875,1210.7969 232.4844,1210.8906 232.2656,1211.2031 L232.0938,1211.125 Z " fill="#000000"/><text fill="#000000" font-family="sans-serif" font-size="12" lengthAdjust="spacing" textLength="21" x="250.25" y="1219.6074">Tile</text><line style="stroke:#A80036;stroke-width:1.5;" x1="143.5" x2="345.5" y1="1231.4531" y2="1231.4531"/><line style="stroke:#A80036;stroke-width:1.5;" x1="143.5" x2="345.5" y1="1239.4531" y2="1239.4531"/><ellipse cx="153.5" cy="1250.4531" fill="#84BE84" rx="3" ry="3" style="stroke:#038048;stroke-width:1.0;"/><text fill="#000000" font-family="sans-serif" font-size="11" lengthAdjust="spacing" textLength="72" x="162.5" y="1253.6636">getNumber()</text><ellipse cx="153.5" cy="1263.2578" fill="#84BE84" rx="3" ry="3" style="stroke:#038048;stroke-width:1.0;"/><text fill="#000000" font-family="sans-serif" font-size="11" lengthAdjust="spacing" textLength="134" x="162.5" y="1266.4683">isNumberLessThan(tile)</text><ellipse cx="153.5" cy="1276.0625" fill="#84BE84" rx="3" ry="3" style="stroke:#038048;stroke-width:1.0;"/><text fill="#000000" font-family="sans-serif" font-size="11" lengthAdjust="spacing" textLength="152" x="162.5" y="1279.2729">isNumberGreaterThan(tile)</text><ellipse cx="153.5" cy="1288.8672" fill="#84BE84" rx="3" ry="3" style="stroke:#038048;stroke-width:1.0;"/><text fill="#000000" font-family="sans-serif" font-size="11" lengthAdjust="spacing" textLength="115" x="162.5" y="1292.0776">isColorEqualsTo(tile)</text><ellipse cx="153.5" cy="1301.6719" fill="#84BE84" rx="3" ry="3" style="stroke:#038048;stroke-width:1.0;"/><text fill="#000000" font-family="sans-serif" font-size="11" lengthAdjust="spacing" textLength="136" x="162.5" y="1304.8823">isNumberDistinctTo(tile)</text><ellipse cx="153.5" cy="1314.4766" fill="#84BE84" rx="3" ry="3" style="stroke:#038048;stroke-width:1.0;"/><text fill="#000000" font-family="sans-serif" font-size="11" lengthAdjust="spacing" textLength="178" x="162.5" y="1317.687">isNumberLessOrEqualThan(tile)</text><ellipse cx="153.5" cy="1327.2813" fill="#84BE84" rx="3" ry="3" style="stroke:#038048;stroke-width:1.0;"/><text fill="#000000" font-family="sans-serif" font-size="11" lengthAdjust="spacing" textLength="106" x="162.5" y="1330.4917">isColorDistinct(tile)</text><ellipse cx="153.5" cy="1340.0859" fill="#84BE84" rx="3" ry="3" style="stroke:#038048;stroke-width:1.0;"/><text fill="#000000" font-family="sans-serif" font-size="11" lengthAdjust="spacing" textLength="125" x="162.5" y="1343.2964">isNumberEqualTo(tile)</text><ellipse cx="153.5" cy="1352.8906" fill="#84BE84" rx="3" ry="3" style="stroke:#038048;stroke-width:1.0;"/><text fill="#000000" font-family="sans-serif" font-size="11" lengthAdjust="spacing" textLength="57" x="162.5" y="1356.1011">clone(tile)</text><!--MD5=[ed26f6b12c6467a8f3040c59fc5b4465]
class CommandParser--><rect fill="#FEFECE" filter="url(#f1cpep478fqcam)" height="48" id="CommandParser" style="stroke:#A80036;stroke-width:1.5;" width="130" x="885.5" y="815.4531"/><ellipse cx="900.5" cy="831.4531" fill="#ADD1B2" rx="11" ry="11" style="stroke:#A80036;stroke-width:1.0;"/><path d="M902.8438,827.125 C901.9063,826.6875 901.3125,826.5469 900.4375,826.5469 C897.8125,826.5469 895.8125,828.625 895.8125,831.3438 L895.8125,832.4688 C895.8125,835.0469 897.9219,836.9375 900.8125,836.9375 C902.0313,836.9375 903.1875,836.6406 903.9375,836.0938 C904.5156,835.6875 904.8438,835.2344 904.8438,834.8438 C904.8438,834.3906 904.4531,834 903.9844,834 C903.7656,834 903.5625,834.0781 903.375,834.2656 C902.9219,834.75 902.9219,834.75 902.7344,834.8438 C902.3125,835.1094 901.625,835.2344 900.8594,835.2344 C898.8125,835.2344 897.5156,834.1406 897.5156,832.4375 L897.5156,831.3438 C897.5156,829.5625 898.7656,828.25 900.5,828.25 C901.0781,828.25 901.6875,828.4063 902.1563,828.6563 C902.6406,828.9375 902.8125,829.1563 902.9063,829.5625 C902.9688,829.9688 903,830.0938 903.1406,830.2188 C903.2813,830.3594 903.5156,830.4688 903.7344,830.4688 C904,830.4688 904.2656,830.3281 904.4375,830.1094 C904.5469,829.9531 904.5781,829.7656 904.5781,829.3438 L904.5781,827.9219 C904.5781,827.4844 904.5625,827.3594 904.4688,827.2031 C904.3125,826.9375 904.0313,826.7969 903.7344,826.7969 C903.4375,826.7969 903.2344,826.8906 903.0156,827.2031 L902.8438,827.125 Z " fill="#000000"/><text fill="#000000" font-family="sans-serif" font-size="12" lengthAdjust="spacing" textLength="98" x="914.5" y="835.6074">CommandParser</text><line style="stroke:#A80036;stroke-width:1.5;" x1="886.5" x2="1014.5" y1="847.4531" y2="847.4531"/><line style="stroke:#A80036;stroke-width:1.5;" x1="886.5" x2="1014.5" y1="855.4531" y2="855.4531"/><!--MD5=[a0f202f3fdecae7e3cf78223de49c9d8]
class IExpression--><rect codeLine="85" fill="#FEFECE" filter="url(#f1cpep478fqcam)" height="60.8047" id="IExpression" style="stroke:#A80036;stroke-width:1.5;" width="179" x="669" y="1026.4531"/><ellipse cx="719.75" cy="1042.4531" fill="#B4A7E5" rx="11" ry="11" style="stroke:#A80036;stroke-width:1.0;"/><path d="M720.7031,1039.2344 L722.4219,1039.2344 C722.8125,1039.2344 723,1039.2031 723.125,1039.125 C723.3906,1038.9688 723.5313,1038.6875 723.5313,1038.3906 C723.5313,1038.125 723.4219,1037.8594 723.1875,1037.6875 C723.0156,1037.5781 722.875,1037.5469 722.4219,1037.5469 L717.2813,1037.5469 C716.8438,1037.5469 716.7188,1037.5625 716.5625,1037.6563 C716.3125,1037.8125 716.1563,1038.1094 716.1563,1038.3906 C716.1563,1038.6719 716.2969,1038.9219 716.5156,1039.0938 C716.6719,1039.2031 716.8594,1039.2344 717.2813,1039.2344 L719,1039.2344 L719,1045.75 L717.2813,1045.75 C716.8438,1045.75 716.7188,1045.7656 716.5625,1045.875 C716.3125,1046.0313 716.1563,1046.3125 716.1563,1046.6094 C716.1563,1046.8594 716.2969,1047.125 716.5156,1047.2813 C716.6719,1047.4063 716.875,1047.4531 717.2813,1047.4531 L722.4219,1047.4531 C723.1719,1047.4531 723.5313,1047.1719 723.5313,1046.6094 C723.5313,1046.3281 723.4219,1046.0781 723.1875,1045.9063 C723.0156,1045.7813 722.875,1045.75 722.4219,1045.75 L720.7031,1045.75 L720.7031,1039.2344 Z " fill="#000000"/><text fill="#000000" font-family="sans-serif" font-size="12" font-style="italic" lengthAdjust="spacing" textLength="69" x="740.25" y="1046.6074">IExpression</text><line style="stroke:#A80036;stroke-width:1.5;" x1="670" x2="847" y1="1058.4531" y2="1058.4531"/><line style="stroke:#A80036;stroke-width:1.5;" x1="670" x2="847" y1="1066.4531" y2="1066.4531"/><ellipse cx="680" cy="1077.4531" fill="#84BE84" rx="3" ry="3" style="stroke:#038048;stroke-width:1.0;"/><text fill="#000000" font-family="sans-serif" font-size="11" lengthAdjust="spacing" textLength="153" x="689" y="1080.6636">interpret(IPlayerCommand)</text><!--MD5=[a8702ba2756e1a9e03637e958093e0e3]
class CommandString--><rect codeLine="157" fill="#FEFECE" filter="url(#f1cpep478fqcam)" height="150.4375" id="CommandString" style="stroke:#A80036;stroke-width:1.5;" width="134" x="883.5" y="981.9531"/><ellipse cx="901.65" cy="997.9531" fill="#EB937F" rx="11" ry="11" style="stroke:#A80036;stroke-width:1.0;"/><path d="M900.4469,998.8281 L901.9,998.8281 L901.9,998.9375 C901.9,999.3438 901.9313,999.5 902.0094,999.6563 C902.1656,999.9063 902.4469,1000.0625 902.7438,1000.0625 C902.9938,1000.0625 903.2594,999.9219 903.4156,999.7031 C903.5406,999.5469 903.5719,999.3906 903.5719,998.9375 L903.5719,997.0156 C903.5719,996.8594 903.5719,996.8125 903.5563,996.6563 C903.4938,996.1875 903.1813,995.875 902.7281,995.875 C902.4781,995.875 902.2125,996.0156 902.0406,996.2344 C901.9313,996.4063 901.9,996.5625 901.9,997.0156 L901.9,997.1406 L900.4469,997.1406 L900.4469,994.7344 L904.4313,994.7344 L904.4313,995.5938 C904.4313,996 904.4625,996.1719 904.5406,996.3281 C904.7125,996.5781 904.9938,996.7344 905.275,996.7344 C905.5406,996.7344 905.8063,996.5938 905.9781,996.375 C906.0875,996.2031 906.1188,996.0625 906.1188,995.5938 L906.1188,993.0469 L898.4938,993.0469 C898.0563,993.0469 897.9313,993.0625 897.775,993.1563 C897.525,993.3125 897.3688,993.6094 897.3688,993.8906 C897.3688,994.1719 897.5094,994.4219 897.7281,994.5938 C897.8844,994.7031 898.0719,994.7344 898.4938,994.7344 L898.7438,994.7344 L898.7438,1001.25 L898.4938,1001.25 C898.0875,1001.25 897.9313,1001.2656 897.775,1001.375 C897.525,1001.5469 897.3688,1001.8125 897.3688,1002.1094 C897.3688,1002.375 897.5094,1002.625 897.7281,1002.7813 C897.8688,1002.9063 898.1031,1002.9531 898.4938,1002.9531 L906.4938,1002.9531 L906.4938,1000.375 C906.4938,999.9375 906.4625,999.7969 906.3844,999.6406 C906.2125,999.3906 905.9313,999.2344 905.65,999.2344 C905.3844,999.2344 905.1188,999.3438 904.9469,999.5938 C904.8375,999.75 904.8063,999.8906 904.8063,1000.375 L904.8063,1001.25 L900.4469,1001.25 L900.4469,998.8281 Z " fill="#000000"/><text fill="#000000" font-family="sans-serif" font-size="12" lengthAdjust="spacing" textLength="95" x="916.35" y="1002.1074">CommandString</text><line style="stroke:#A80036;stroke-width:1.5;" x1="884.5" x2="1016.5" y1="1013.9531" y2="1013.9531"/><text fill="#000000" font-family="sans-serif" font-size="11" lengthAdjust="spacing" textLength="72" x="889.5" y="1028.1636">PUT = "PUT",</text><text fill="#000000" font-family="sans-serif" font-size="11" lengthAdjust="spacing" textLength="82" x="889.5" y="1040.9683">MOV = "MOV";</text><text fill="#000000" font-family="sans-serif" font-size="11" lengthAdjust="spacing" textLength="78" x="889.5" y="1053.7729">END = "END";</text><text fill="#000000" font-family="sans-serif" font-size="11" lengthAdjust="spacing" textLength="84" x="889.5" y="1066.5776">HELP = "HELP";</text><text fill="#000000" font-family="sans-serif" font-size="11" lengthAdjust="spacing" textLength="98" x="889.5" y="1079.3823">UNDO = "UNDO";</text><text fill="#000000" font-family="sans-serif" font-size="11" lengthAdjust="spacing" textLength="94" x="889.5" y="1092.187">REDO = "REDO";</text><text fill="#000000" font-family="sans-serif" font-size="11" lengthAdjust="spacing" textLength="122" x="889.5" y="1104.9917">RESUME = "RESUME";</text><text fill="#000000" font-family="sans-serif" font-size="11" lengthAdjust="spacing" textLength="80" x="889.5" y="1117.7964">EXIT = "EXIT";</text><line style="stroke:#A80036;stroke-width:1.5;" x1="884.5" x2="1016.5" y1="1124.3906" y2="1124.3906"/><!--MD5=[dc87e4dbc95b7c20c16cda94435ab20d]
class SubcommandString--><rect codeLine="167" fill="#FEFECE" filter="url(#f1cpep478fqcam)" height="73.6094" id="SubcommandString" style="stroke:#A80036;stroke-width:1.5;" width="149" x="1053" y="1019.9531"/><ellipse cx="1068" cy="1035.9531" fill="#EB937F" rx="11" ry="11" style="stroke:#A80036;stroke-width:1.0;"/><path d="M1066.7969,1036.8281 L1068.25,1036.8281 L1068.25,1036.9375 C1068.25,1037.3438 1068.2813,1037.5 1068.3594,1037.6563 C1068.5156,1037.9063 1068.7969,1038.0625 1069.0938,1038.0625 C1069.3438,1038.0625 1069.6094,1037.9219 1069.7656,1037.7031 C1069.8906,1037.5469 1069.9219,1037.3906 1069.9219,1036.9375 L1069.9219,1035.0156 C1069.9219,1034.8594 1069.9219,1034.8125 1069.9063,1034.6563 C1069.8438,1034.1875 1069.5313,1033.875 1069.0781,1033.875 C1068.8281,1033.875 1068.5625,1034.0156 1068.3906,1034.2344 C1068.2813,1034.4063 1068.25,1034.5625 1068.25,1035.0156 L1068.25,1035.1406 L1066.7969,1035.1406 L1066.7969,1032.7344 L1070.7813,1032.7344 L1070.7813,1033.5938 C1070.7813,1034 1070.8125,1034.1719 1070.8906,1034.3281 C1071.0625,1034.5781 1071.3438,1034.7344 1071.625,1034.7344 C1071.8906,1034.7344 1072.1563,1034.5938 1072.3281,1034.375 C1072.4375,1034.2031 1072.4688,1034.0625 1072.4688,1033.5938 L1072.4688,1031.0469 L1064.8438,1031.0469 C1064.4063,1031.0469 1064.2813,1031.0625 1064.125,1031.1563 C1063.875,1031.3125 1063.7188,1031.6094 1063.7188,1031.8906 C1063.7188,1032.1719 1063.8594,1032.4219 1064.0781,1032.5938 C1064.2344,1032.7031 1064.4219,1032.7344 1064.8438,1032.7344 L1065.0938,1032.7344 L1065.0938,1039.25 L1064.8438,1039.25 C1064.4375,1039.25 1064.2813,1039.2656 1064.125,1039.375 C1063.875,1039.5469 1063.7188,1039.8125 1063.7188,1040.1094 C1063.7188,1040.375 1063.8594,1040.625 1064.0781,1040.7813 C1064.2188,1040.9063 1064.4531,1040.9531 1064.8438,1040.9531 L1072.8438,1040.9531 L1072.8438,1038.375 C1072.8438,1037.9375 1072.8125,1037.7969 1072.7344,1037.6406 C1072.5625,1037.3906 1072.2813,1037.2344 1072,1037.2344 C1071.7344,1037.2344 1071.4688,1037.3438 1071.2969,1037.5938 C1071.1875,1037.75 1071.1563,1037.8906 1071.1563,1038.375 L1071.1563,1039.25 L1066.7969,1039.25 L1066.7969,1036.8281 Z " fill="#000000"/><text fill="#000000" font-family="sans-serif" font-size="12" lengthAdjust="spacing" textLength="117" x="1082" y="1040.1074">SubcommandString</text><line style="stroke:#A80036;stroke-width:1.5;" x1="1054" x2="1201" y1="1051.9531" y2="1051.9531"/><text fill="#000000" font-family="sans-serif" font-size="11" lengthAdjust="spacing" textLength="52" x="1059" y="1066.1636">IN = "IN",</text><text fill="#000000" font-family="sans-serif" font-size="11" lengthAdjust="spacing" textLength="89" x="1059" y="1078.9683">FROM = "FROM"</text><line style="stroke:#A80036;stroke-width:1.5;" x1="1054" x2="1201" y1="1085.5625" y2="1085.5625"/><!--MD5=[f668058babd18269e61fdcabcf4b837a]
class ExpPut--><rect fill="#FEFECE" filter="url(#f1cpep478fqcam)" height="48" id="ExpPut" style="stroke:#A80036;stroke-width:1.5;" width="71" x="777" y="1256.9531"/><ellipse cx="792" cy="1272.9531" fill="#ADD1B2" rx="11" ry="11" style="stroke:#A80036;stroke-width:1.0;"/><path d="M794.3438,1268.625 C793.4063,1268.1875 792.8125,1268.0469 791.9375,1268.0469 C789.3125,1268.0469 787.3125,1270.125 787.3125,1272.8438 L787.3125,1273.9688 C787.3125,1276.5469 789.4219,1278.4375 792.3125,1278.4375 C793.5313,1278.4375 794.6875,1278.1406 795.4375,1277.5938 C796.0156,1277.1875 796.3438,1276.7344 796.3438,1276.3438 C796.3438,1275.8906 795.9531,1275.5 795.4844,1275.5 C795.2656,1275.5 795.0625,1275.5781 794.875,1275.7656 C794.4219,1276.25 794.4219,1276.25 794.2344,1276.3438 C793.8125,1276.6094 793.125,1276.7344 792.3594,1276.7344 C790.3125,1276.7344 789.0156,1275.6406 789.0156,1273.9375 L789.0156,1272.8438 C789.0156,1271.0625 790.2656,1269.75 792,1269.75 C792.5781,1269.75 793.1875,1269.9063 793.6563,1270.1563 C794.1406,1270.4375 794.3125,1270.6563 794.4063,1271.0625 C794.4688,1271.4688 794.5,1271.5938 794.6406,1271.7188 C794.7813,1271.8594 795.0156,1271.9688 795.2344,1271.9688 C795.5,1271.9688 795.7656,1271.8281 795.9375,1271.6094 C796.0469,1271.4531 796.0781,1271.2656 796.0781,1270.8438 L796.0781,1269.4219 C796.0781,1268.9844 796.0625,1268.8594 795.9688,1268.7031 C795.8125,1268.4375 795.5313,1268.2969 795.2344,1268.2969 C794.9375,1268.2969 794.7344,1268.3906 794.5156,1268.7031 L794.3438,1268.625 Z " fill="#000000"/><text fill="#000000" font-family="sans-serif" font-size="12" lengthAdjust="spacing" textLength="39" x="806" y="1277.1074">ExpPut</text><line style="stroke:#A80036;stroke-width:1.5;" x1="778" x2="847" y1="1288.9531" y2="1288.9531"/><line style="stroke:#A80036;stroke-width:1.5;" x1="778" x2="847" y1="1296.9531" y2="1296.9531"/><!--MD5=[9177be8ae58b8a1de6d6a4e2b3bf2d6d]
class ExpMov--><rect fill="#FEFECE" filter="url(#f1cpep478fqcam)" height="48" id="ExpMov" style="stroke:#A80036;stroke-width:1.5;" width="79" x="591" y="1256.9531"/><ellipse cx="606" cy="1272.9531" fill="#ADD1B2" rx="11" ry="11" style="stroke:#A80036;stroke-width:1.0;"/><path d="M608.3438,1268.625 C607.4063,1268.1875 606.8125,1268.0469 605.9375,1268.0469 C603.3125,1268.0469 601.3125,1270.125 601.3125,1272.8438 L601.3125,1273.9688 C601.3125,1276.5469 603.4219,1278.4375 606.3125,1278.4375 C607.5313,1278.4375 608.6875,1278.1406 609.4375,1277.5938 C610.0156,1277.1875 610.3438,1276.7344 610.3438,1276.3438 C610.3438,1275.8906 609.9531,1275.5 609.4844,1275.5 C609.2656,1275.5 609.0625,1275.5781 608.875,1275.7656 C608.4219,1276.25 608.4219,1276.25 608.2344,1276.3438 C607.8125,1276.6094 607.125,1276.7344 606.3594,1276.7344 C604.3125,1276.7344 603.0156,1275.6406 603.0156,1273.9375 L603.0156,1272.8438 C603.0156,1271.0625 604.2656,1269.75 606,1269.75 C606.5781,1269.75 607.1875,1269.9063 607.6563,1270.1563 C608.1406,1270.4375 608.3125,1270.6563 608.4063,1271.0625 C608.4688,1271.4688 608.5,1271.5938 608.6406,1271.7188 C608.7813,1271.8594 609.0156,1271.9688 609.2344,1271.9688 C609.5,1271.9688 609.7656,1271.8281 609.9375,1271.6094 C610.0469,1271.4531 610.0781,1271.2656 610.0781,1270.8438 L610.0781,1269.4219 C610.0781,1268.9844 610.0625,1268.8594 609.9688,1268.7031 C609.8125,1268.4375 609.5313,1268.2969 609.2344,1268.2969 C608.9375,1268.2969 608.7344,1268.3906 608.5156,1268.7031 L608.3438,1268.625 Z " fill="#000000"/><text fill="#000000" font-family="sans-serif" font-size="12" lengthAdjust="spacing" textLength="47" x="620" y="1277.1074">ExpMov</text><line style="stroke:#A80036;stroke-width:1.5;" x1="592" x2="669" y1="1288.9531" y2="1288.9531"/><line style="stroke:#A80036;stroke-width:1.5;" x1="592" x2="669" y1="1296.9531" y2="1296.9531"/><!--MD5=[8a47e613ffff2e05cf206a13789fca05]
class ExpEnd--><rect fill="#FEFECE" filter="url(#f1cpep478fqcam)" height="48" id="ExpEnd" style="stroke:#A80036;stroke-width:1.5;" width="76" x="954.5" y="1256.9531"/><ellipse cx="969.5" cy="1272.9531" fill="#ADD1B2" rx="11" ry="11" style="stroke:#A80036;stroke-width:1.0;"/><path d="M971.8438,1268.625 C970.9063,1268.1875 970.3125,1268.0469 969.4375,1268.0469 C966.8125,1268.0469 964.8125,1270.125 964.8125,1272.8438 L964.8125,1273.9688 C964.8125,1276.5469 966.9219,1278.4375 969.8125,1278.4375 C971.0313,1278.4375 972.1875,1278.1406 972.9375,1277.5938 C973.5156,1277.1875 973.8438,1276.7344 973.8438,1276.3438 C973.8438,1275.8906 973.4531,1275.5 972.9844,1275.5 C972.7656,1275.5 972.5625,1275.5781 972.375,1275.7656 C971.9219,1276.25 971.9219,1276.25 971.7344,1276.3438 C971.3125,1276.6094 970.625,1276.7344 969.8594,1276.7344 C967.8125,1276.7344 966.5156,1275.6406 966.5156,1273.9375 L966.5156,1272.8438 C966.5156,1271.0625 967.7656,1269.75 969.5,1269.75 C970.0781,1269.75 970.6875,1269.9063 971.1563,1270.1563 C971.6406,1270.4375 971.8125,1270.6563 971.9063,1271.0625 C971.9688,1271.4688 972,1271.5938 972.1406,1271.7188 C972.2813,1271.8594 972.5156,1271.9688 972.7344,1271.9688 C973,1271.9688 973.2656,1271.8281 973.4375,1271.6094 C973.5469,1271.4531 973.5781,1271.2656 973.5781,1270.8438 L973.5781,1269.4219 C973.5781,1268.9844 973.5625,1268.8594 973.4688,1268.7031 C973.3125,1268.4375 973.0313,1268.2969 972.7344,1268.2969 C972.4375,1268.2969 972.2344,1268.3906 972.0156,1268.7031 L971.8438,1268.625 Z " fill="#000000"/><text fill="#000000" font-family="sans-serif" font-size="12" lengthAdjust="spacing" textLength="44" x="983.5" y="1277.1074">ExpEnd</text><line style="stroke:#A80036;stroke-width:1.5;" x1="955.5" x2="1029.5" y1="1288.9531" y2="1288.9531"/><line style="stroke:#A80036;stroke-width:1.5;" x1="955.5" x2="1029.5" y1="1296.9531" y2="1296.9531"/><!--MD5=[2f1fcb19473149ee29c70f4b629c18f1]
class ExpPutIn--><rect fill="#FEFECE" filter="url(#f1cpep478fqcam)" height="48" id="ExpPutIn" style="stroke:#A80036;stroke-width:1.5;" width="81" x="756" y="1519.4531"/><ellipse cx="771" cy="1535.4531" fill="#ADD1B2" rx="11" ry="11" style="stroke:#A80036;stroke-width:1.0;"/><path d="M773.3438,1531.125 C772.4063,1530.6875 771.8125,1530.5469 770.9375,1530.5469 C768.3125,1530.5469 766.3125,1532.625 766.3125,1535.3438 L766.3125,1536.4688 C766.3125,1539.0469 768.4219,1540.9375 771.3125,1540.9375 C772.5313,1540.9375 773.6875,1540.6406 774.4375,1540.0938 C775.0156,1539.6875 775.3438,1539.2344 775.3438,1538.8438 C775.3438,1538.3906 774.9531,1538 774.4844,1538 C774.2656,1538 774.0625,1538.0781 773.875,1538.2656 C773.4219,1538.75 773.4219,1538.75 773.2344,1538.8438 C772.8125,1539.1094 772.125,1539.2344 771.3594,1539.2344 C769.3125,1539.2344 768.0156,1538.1406 768.0156,1536.4375 L768.0156,1535.3438 C768.0156,1533.5625 769.2656,1532.25 771,1532.25 C771.5781,1532.25 772.1875,1532.4063 772.6563,1532.6563 C773.1406,1532.9375 773.3125,1533.1563 773.4063,1533.5625 C773.4688,1533.9688 773.5,1534.0938 773.6406,1534.2188 C773.7813,1534.3594 774.0156,1534.4688 774.2344,1534.4688 C774.5,1534.4688 774.7656,1534.3281 774.9375,1534.1094 C775.0469,1533.9531 775.0781,1533.7656 775.0781,1533.3438 L775.0781,1531.9219 C775.0781,1531.4844 775.0625,1531.3594 774.9688,1531.2031 C774.8125,1530.9375 774.5313,1530.7969 774.2344,1530.7969 C773.9375,1530.7969 773.7344,1530.8906 773.5156,1531.2031 L773.3438,1531.125 Z " fill="#000000"/><text fill="#000000" font-family="sans-serif" font-size="12" lengthAdjust="spacing" textLength="49" x="785" y="1539.6074">ExpPutIn</text><line style="stroke:#A80036;stroke-width:1.5;" x1="757" x2="836" y1="1551.4531" y2="1551.4531"/><line style="stroke:#A80036;stroke-width:1.5;" x1="757" x2="836" y1="1559.4531" y2="1559.4531"/><!--MD5=[80b210d7a3b0c31b33d0c4d80bbef834]
class ExpMovIn--><rect fill="#FEFECE" filter="url(#f1cpep478fqcam)" height="48" id="ExpMovIn" style="stroke:#A80036;stroke-width:1.5;" width="89" x="586" y="1519.4531"/><ellipse cx="601" cy="1535.4531" fill="#ADD1B2" rx="11" ry="11" style="stroke:#A80036;stroke-width:1.0;"/><path d="M603.3438,1531.125 C602.4063,1530.6875 601.8125,1530.5469 600.9375,1530.5469 C598.3125,1530.5469 596.3125,1532.625 596.3125,1535.3438 L596.3125,1536.4688 C596.3125,1539.0469 598.4219,1540.9375 601.3125,1540.9375 C602.5313,1540.9375 603.6875,1540.6406 604.4375,1540.0938 C605.0156,1539.6875 605.3438,1539.2344 605.3438,1538.8438 C605.3438,1538.3906 604.9531,1538 604.4844,1538 C604.2656,1538 604.0625,1538.0781 603.875,1538.2656 C603.4219,1538.75 603.4219,1538.75 603.2344,1538.8438 C602.8125,1539.1094 602.125,1539.2344 601.3594,1539.2344 C599.3125,1539.2344 598.0156,1538.1406 598.0156,1536.4375 L598.0156,1535.3438 C598.0156,1533.5625 599.2656,1532.25 601,1532.25 C601.5781,1532.25 602.1875,1532.4063 602.6563,1532.6563 C603.1406,1532.9375 603.3125,1533.1563 603.4063,1533.5625 C603.4688,1533.9688 603.5,1534.0938 603.6406,1534.2188 C603.7813,1534.3594 604.0156,1534.4688 604.2344,1534.4688 C604.5,1534.4688 604.7656,1534.3281 604.9375,1534.1094 C605.0469,1533.9531 605.0781,1533.7656 605.0781,1533.3438 L605.0781,1531.9219 C605.0781,1531.4844 605.0625,1531.3594 604.9688,1531.2031 C604.8125,1530.9375 604.5313,1530.7969 604.2344,1530.7969 C603.9375,1530.7969 603.7344,1530.8906 603.5156,1531.2031 L603.3438,1531.125 Z " fill="#000000"/><text fill="#000000" font-family="sans-serif" font-size="12" lengthAdjust="spacing" textLength="57" x="615" y="1539.6074">ExpMovIn</text><line style="stroke:#A80036;stroke-width:1.5;" x1="587" x2="674" y1="1551.4531" y2="1551.4531"/><line style="stroke:#A80036;stroke-width:1.5;" x1="587" x2="674" y1="1559.4531" y2="1559.4531"/><!--MD5=[41314a0efc36828092cff9ebad2fcafd]
class Group--><rect fill="#FEFECE" filter="url(#f1cpep478fqcam)" height="48" id="Group" style="stroke:#A80036;stroke-width:1.5;" width="69" x="543" y="1733.9531"/><ellipse cx="558" cy="1749.9531" fill="#ADD1B2" rx="11" ry="11" style="stroke:#A80036;stroke-width:1.0;"/><path d="M560.3438,1745.625 C559.4063,1745.1875 558.8125,1745.0469 557.9375,1745.0469 C555.3125,1745.0469 553.3125,1747.125 553.3125,1749.8438 L553.3125,1750.9688 C553.3125,1753.5469 555.4219,1755.4375 558.3125,1755.4375 C559.5313,1755.4375 560.6875,1755.1406 561.4375,1754.5938 C562.0156,1754.1875 562.3438,1753.7344 562.3438,1753.3438 C562.3438,1752.8906 561.9531,1752.5 561.4844,1752.5 C561.2656,1752.5 561.0625,1752.5781 560.875,1752.7656 C560.4219,1753.25 560.4219,1753.25 560.2344,1753.3438 C559.8125,1753.6094 559.125,1753.7344 558.3594,1753.7344 C556.3125,1753.7344 555.0156,1752.6406 555.0156,1750.9375 L555.0156,1749.8438 C555.0156,1748.0625 556.2656,1746.75 558,1746.75 C558.5781,1746.75 559.1875,1746.9063 559.6563,1747.1563 C560.1406,1747.4375 560.3125,1747.6563 560.4063,1748.0625 C560.4688,1748.4688 560.5,1748.5938 560.6406,1748.7188 C560.7813,1748.8594 561.0156,1748.9688 561.2344,1748.9688 C561.5,1748.9688 561.7656,1748.8281 561.9375,1748.6094 C562.0469,1748.4531 562.0781,1748.2656 562.0781,1747.8438 L562.0781,1746.4219 C562.0781,1745.9844 562.0625,1745.8594 561.9688,1745.7031 C561.8125,1745.4375 561.5313,1745.2969 561.2344,1745.2969 C560.9375,1745.2969 560.7344,1745.3906 560.5156,1745.7031 L560.3438,1745.625 Z " fill="#000000"/><text fill="#000000" font-family="sans-serif" font-size="12" lengthAdjust="spacing" textLength="37" x="572" y="1754.1074">Group</text><line style="stroke:#A80036;stroke-width:1.5;" x1="544" x2="611" y1="1765.9531" y2="1765.9531"/><line style="stroke:#A80036;stroke-width:1.5;" x1="544" x2="611" y1="1773.9531" y2="1773.9531"/><!--MD5=[37a31ccd9fa96e92a230629dff379469]
class ExpTileRack--><rect fill="#FEFECE" filter="url(#f1cpep478fqcam)" height="48" id="ExpTileRack" style="stroke:#A80036;stroke-width:1.5;" width="103" x="811" y="1733.9531"/><ellipse cx="826" cy="1749.9531" fill="#ADD1B2" rx="11" ry="11" style="stroke:#A80036;stroke-width:1.0;"/><path d="M828.3438,1745.625 C827.4063,1745.1875 826.8125,1745.0469 825.9375,1745.0469 C823.3125,1745.0469 821.3125,1747.125 821.3125,1749.8438 L821.3125,1750.9688 C821.3125,1753.5469 823.4219,1755.4375 826.3125,1755.4375 C827.5313,1755.4375 828.6875,1755.1406 829.4375,1754.5938 C830.0156,1754.1875 830.3438,1753.7344 830.3438,1753.3438 C830.3438,1752.8906 829.9531,1752.5 829.4844,1752.5 C829.2656,1752.5 829.0625,1752.5781 828.875,1752.7656 C828.4219,1753.25 828.4219,1753.25 828.2344,1753.3438 C827.8125,1753.6094 827.125,1753.7344 826.3594,1753.7344 C824.3125,1753.7344 823.0156,1752.6406 823.0156,1750.9375 L823.0156,1749.8438 C823.0156,1748.0625 824.2656,1746.75 826,1746.75 C826.5781,1746.75 827.1875,1746.9063 827.6563,1747.1563 C828.1406,1747.4375 828.3125,1747.6563 828.4063,1748.0625 C828.4688,1748.4688 828.5,1748.5938 828.6406,1748.7188 C828.7813,1748.8594 829.0156,1748.9688 829.2344,1748.9688 C829.5,1748.9688 829.7656,1748.8281 829.9375,1748.6094 C830.0469,1748.4531 830.0781,1748.2656 830.0781,1747.8438 L830.0781,1746.4219 C830.0781,1745.9844 830.0625,1745.8594 829.9688,1745.7031 C829.8125,1745.4375 829.5313,1745.2969 829.2344,1745.2969 C828.9375,1745.2969 828.7344,1745.3906 828.5156,1745.7031 L828.3438,1745.625 Z " fill="#000000"/><text fill="#000000" font-family="sans-serif" font-size="12" lengthAdjust="spacing" textLength="71" x="840" y="1754.1074">ExpTileRack</text><line style="stroke:#A80036;stroke-width:1.5;" x1="812" x2="913" y1="1765.9531" y2="1765.9531"/><line style="stroke:#A80036;stroke-width:1.5;" x1="812" x2="913" y1="1773.9531" y2="1773.9531"/><!--MD5=[157f632a1c2c78a7f335ec3abf02faa1]
class ExpTileGroup--><rect fill="#FEFECE" filter="url(#f1cpep478fqcam)" height="48" id="ExpTileGroup" style="stroke:#A80036;stroke-width:1.5;" width="112" x="660.5" y="1733.9531"/><ellipse cx="675.5" cy="1749.9531" fill="#ADD1B2" rx="11" ry="11" style="stroke:#A80036;stroke-width:1.0;"/><path d="M677.8438,1745.625 C676.9063,1745.1875 676.3125,1745.0469 675.4375,1745.0469 C672.8125,1745.0469 670.8125,1747.125 670.8125,1749.8438 L670.8125,1750.9688 C670.8125,1753.5469 672.9219,1755.4375 675.8125,1755.4375 C677.0313,1755.4375 678.1875,1755.1406 678.9375,1754.5938 C679.5156,1754.1875 679.8438,1753.7344 679.8438,1753.3438 C679.8438,1752.8906 679.4531,1752.5 678.9844,1752.5 C678.7656,1752.5 678.5625,1752.5781 678.375,1752.7656 C677.9219,1753.25 677.9219,1753.25 677.7344,1753.3438 C677.3125,1753.6094 676.625,1753.7344 675.8594,1753.7344 C673.8125,1753.7344 672.5156,1752.6406 672.5156,1750.9375 L672.5156,1749.8438 C672.5156,1748.0625 673.7656,1746.75 675.5,1746.75 C676.0781,1746.75 676.6875,1746.9063 677.1563,1747.1563 C677.6406,1747.4375 677.8125,1747.6563 677.9063,1748.0625 C677.9688,1748.4688 678,1748.5938 678.1406,1748.7188 C678.2813,1748.8594 678.5156,1748.9688 678.7344,1748.9688 C679,1748.9688 679.2656,1748.8281 679.4375,1748.6094 C679.5469,1748.4531 679.5781,1748.2656 679.5781,1747.8438 L679.5781,1746.4219 C679.5781,1745.9844 679.5625,1745.8594 679.4688,1745.7031 C679.3125,1745.4375 679.0313,1745.2969 678.7344,1745.2969 C678.4375,1745.2969 678.2344,1745.3906 678.0156,1745.7031 L677.8438,1745.625 Z " fill="#000000"/><text fill="#000000" font-family="sans-serif" font-size="12" lengthAdjust="spacing" textLength="80" x="689.5" y="1754.1074">ExpTileGroup</text><line style="stroke:#A80036;stroke-width:1.5;" x1="661.5" x2="771.5" y1="1765.9531" y2="1765.9531"/><line style="stroke:#A80036;stroke-width:1.5;" x1="661.5" x2="771.5" y1="1773.9531" y2="1773.9531"/><!--MD5=[c2989632e4d8050e2a1798cd84c7d5ae]
class IPlayerCommand--><rect codeLine="116" fill="#FEFECE" filter="url(#f1cpep478fqcam)" height="176.0469" id="IPlayerCommand" style="stroke:#A80036;stroke-width:1.5;" width="380" x="1136.5" y="1192.9531"/><ellipse cx="1271.25" cy="1208.9531" fill="#B4A7E5" rx="11" ry="11" style="stroke:#A80036;stroke-width:1.0;"/><path d="M1272.2031,1205.7344 L1273.9219,1205.7344 C1274.3125,1205.7344 1274.5,1205.7031 1274.625,1205.625 C1274.8906,1205.4688 1275.0313,1205.1875 1275.0313,1204.8906 C1275.0313,1204.625 1274.9219,1204.3594 1274.6875,1204.1875 C1274.5156,1204.0781 1274.375,1204.0469 1273.9219,1204.0469 L1268.7813,1204.0469 C1268.3438,1204.0469 1268.2188,1204.0625 1268.0625,1204.1563 C1267.8125,1204.3125 1267.6563,1204.6094 1267.6563,1204.8906 C1267.6563,1205.1719 1267.7969,1205.4219 1268.0156,1205.5938 C1268.1719,1205.7031 1268.3594,1205.7344 1268.7813,1205.7344 L1270.5,1205.7344 L1270.5,1212.25 L1268.7813,1212.25 C1268.3438,1212.25 1268.2188,1212.2656 1268.0625,1212.375 C1267.8125,1212.5313 1267.6563,1212.8125 1267.6563,1213.1094 C1267.6563,1213.3594 1267.7969,1213.625 1268.0156,1213.7813 C1268.1719,1213.9063 1268.375,1213.9531 1268.7813,1213.9531 L1273.9219,1213.9531 C1274.6719,1213.9531 1275.0313,1213.6719 1275.0313,1213.1094 C1275.0313,1212.8281 1274.9219,1212.5781 1274.6875,1212.4063 C1274.5156,1212.2813 1274.375,1212.25 1273.9219,1212.25 L1272.2031,1212.25 L1272.2031,1205.7344 Z " fill="#000000"/><text fill="#000000" font-family="sans-serif" font-size="12" font-style="italic" lengthAdjust="spacing" textLength="102" x="1291.75" y="1213.1074">IPlayerCommand</text><line style="stroke:#A80036;stroke-width:1.5;" x1="1137.5" x2="1515.5" y1="1224.9531" y2="1224.9531"/><line style="stroke:#A80036;stroke-width:1.5;" x1="1137.5" x2="1515.5" y1="1232.9531" y2="1232.9531"/><ellipse cx="1147.5" cy="1243.9531" fill="#84BE84" rx="3" ry="3" style="stroke:#038048;stroke-width:1.0;"/><text fill="#000000" font-family="sans-serif" font-size="11" lengthAdjust="spacing" textLength="187" x="1156.5" y="1247.1636">addTileToGroup(tile, groupIndex)</text><ellipse cx="1147.5" cy="1256.7578" fill="#84BE84" rx="3" ry="3" style="stroke:#038048;stroke-width:1.0;"/><text fill="#000000" font-family="sans-serif" font-size="11" lengthAdjust="spacing" textLength="169" x="1156.5" y="1259.9683">existGroup(targetGroup): bool</text><ellipse cx="1147.5" cy="1269.5625" fill="#84BE84" rx="3" ry="3" style="stroke:#038048;stroke-width:1.0;"/><text fill="#000000" font-family="sans-serif" font-size="11" lengthAdjust="spacing" textLength="142" x="1156.5" y="1272.7729">existTileInRack(tile): bool</text><ellipse cx="1147.5" cy="1282.3672" fill="#84BE84" rx="3" ry="3" style="stroke:#038048;stroke-width:1.0;"/><text fill="#000000" font-family="sans-serif" font-size="11" lengthAdjust="spacing" textLength="148" x="1156.5" y="1285.5776">existTileInTable(tile): bool</text><ellipse cx="1147.5" cy="1295.1719" fill="#84BE84" rx="3" ry="3" style="stroke:#038048;stroke-width:1.0;"/><text fill="#000000" font-family="sans-serif" font-size="11" lengthAdjust="spacing" textLength="269" x="1156.5" y="1298.3823">moveTileFromGroupToGroup(tile, origin, target)</text><ellipse cx="1147.5" cy="1307.9766" fill="#84BE84" rx="3" ry="3" style="stroke:#038048;stroke-width:1.0;"/><text fill="#000000" font-family="sans-serif" font-size="11" lengthAdjust="spacing" textLength="327" x="1156.5" y="1311.187">isAllowedToTileDown(List&lt;List&lt;string&gt;&gt; tileGroups): bool</text><ellipse cx="1147.5" cy="1320.7813" fill="#84BE84" rx="3" ry="3" style="stroke:#038048;stroke-width:1.0;"/><text fill="#000000" font-family="sans-serif" font-size="11" lengthAdjust="spacing" textLength="66" x="1156.5" y="1323.9917">finishTurn();</text><ellipse cx="1147.5" cy="1333.5859" fill="#84BE84" rx="3" ry="3" style="stroke:#038048;stroke-width:1.0;"/><text fill="#000000" font-family="sans-serif" font-size="11" lengthAdjust="spacing" textLength="308" x="1156.5" y="1336.7964">existsTileInGroup(string tileDescription, int group):bool</text><ellipse cx="1147.5" cy="1346.3906" fill="#84BE84" rx="3" ry="3" style="stroke:#038048;stroke-width:1.0;"/><text fill="#000000" font-family="sans-serif" font-size="11" lengthAdjust="spacing" textLength="116" x="1156.5" y="1349.6011">isValidGroups(): bool</text><ellipse cx="1147.5" cy="1359.1953" fill="#84BE84" rx="3" ry="3" style="stroke:#038048;stroke-width:1.0;"/><text fill="#000000" font-family="sans-serif" font-size="11" lengthAdjust="spacing" textLength="354" x="1156.5" y="1362.4058">isValidAddTilesInGroup(List&lt;string&gt; tiles, int groupIndex): bool</text><!--MD5=[18eee71c88ab61f27581b8cbdd3ef5ee]
class Color--><rect codeLine="132" fill="#FEFECE" filter="url(#f1cpep478fqcam)" height="112.0234" id="Color" style="stroke:#A80036;stroke-width:1.5;" width="64" x="306.5" y="1487.4531"/><ellipse cx="321.5" cy="1503.4531" fill="#EB937F" rx="11" ry="11" style="stroke:#A80036;stroke-width:1.0;"/><path d="M320.2969,1504.3281 L321.75,1504.3281 L321.75,1504.4375 C321.75,1504.8438 321.7813,1505 321.8594,1505.1563 C322.0156,1505.4063 322.2969,1505.5625 322.5938,1505.5625 C322.8438,1505.5625 323.1094,1505.4219 323.2656,1505.2031 C323.3906,1505.0469 323.4219,1504.8906 323.4219,1504.4375 L323.4219,1502.5156 C323.4219,1502.3594 323.4219,1502.3125 323.4063,1502.1563 C323.3438,1501.6875 323.0313,1501.375 322.5781,1501.375 C322.3281,1501.375 322.0625,1501.5156 321.8906,1501.7344 C321.7813,1501.9063 321.75,1502.0625 321.75,1502.5156 L321.75,1502.6406 L320.2969,1502.6406 L320.2969,1500.2344 L324.2813,1500.2344 L324.2813,1501.0938 C324.2813,1501.5 324.3125,1501.6719 324.3906,1501.8281 C324.5625,1502.0781 324.8438,1502.2344 325.125,1502.2344 C325.3906,1502.2344 325.6563,1502.0938 325.8281,1501.875 C325.9375,1501.7031 325.9688,1501.5625 325.9688,1501.0938 L325.9688,1498.5469 L318.3438,1498.5469 C317.9063,1498.5469 317.7813,1498.5625 317.625,1498.6563 C317.375,1498.8125 317.2188,1499.1094 317.2188,1499.3906 C317.2188,1499.6719 317.3594,1499.9219 317.5781,1500.0938 C317.7344,1500.2031 317.9219,1500.2344 318.3438,1500.2344 L318.5938,1500.2344 L318.5938,1506.75 L318.3438,1506.75 C317.9375,1506.75 317.7813,1506.7656 317.625,1506.875 C317.375,1507.0469 317.2188,1507.3125 317.2188,1507.6094 C317.2188,1507.875 317.3594,1508.125 317.5781,1508.2813 C317.7188,1508.4063 317.9531,1508.4531 318.3438,1508.4531 L326.3438,1508.4531 L326.3438,1505.875 C326.3438,1505.4375 326.3125,1505.2969 326.2344,1505.1406 C326.0625,1504.8906 325.7813,1504.7344 325.5,1504.7344 C325.2344,1504.7344 324.9688,1504.8438 324.7969,1505.0938 C324.6875,1505.25 324.6563,1505.3906 324.6563,1505.875 L324.6563,1506.75 L320.2969,1506.75 L320.2969,1504.3281 Z " fill="#000000"/><text fill="#000000" font-family="sans-serif" font-size="12" lengthAdjust="spacing" textLength="32" x="335.5" y="1507.6074">Color</text><line style="stroke:#A80036;stroke-width:1.5;" x1="307.5" x2="369.5" y1="1519.4531" y2="1519.4531"/><text fill="#000000" font-family="sans-serif" font-size="11" lengthAdjust="spacing" textLength="26" x="312.5" y="1533.6636">RED,</text><text fill="#000000" font-family="sans-serif" font-size="11" lengthAdjust="spacing" textLength="41" x="312.5" y="1546.4683">GREEN,</text><text fill="#000000" font-family="sans-serif" font-size="11" lengthAdjust="spacing" textLength="40" x="312.5" y="1559.2729">BLACK,</text><text fill="#000000" font-family="sans-serif" font-size="11" lengthAdjust="spacing" textLength="49" x="312.5" y="1572.0776">YELLOW,</text><text fill="#000000" font-family="sans-serif" font-size="11" lengthAdjust="spacing" textLength="33" x="312.5" y="1584.8823">JOKER</text><line style="stroke:#A80036;stroke-width:1.5;" x1="307.5" x2="369.5" y1="1591.4766" y2="1591.4766"/><!--MD5=[c004fefde6801777d525be4b9ec6e06d]
class TileNumber--><rect codeLine="140" fill="#FEFECE" filter="url(#f1cpep478fqcam)" height="227.2656" id="TileNumber" style="stroke:#A80036;stroke-width:1.5;" width="100" x="171.5" y="1429.9531"/><ellipse cx="186.5" cy="1445.9531" fill="#EB937F" rx="11" ry="11" style="stroke:#A80036;stroke-width:1.0;"/><path d="M185.2969,1446.8281 L186.75,1446.8281 L186.75,1446.9375 C186.75,1447.3438 186.7813,1447.5 186.8594,1447.6563 C187.0156,1447.9063 187.2969,1448.0625 187.5938,1448.0625 C187.8438,1448.0625 188.1094,1447.9219 188.2656,1447.7031 C188.3906,1447.5469 188.4219,1447.3906 188.4219,1446.9375 L188.4219,1445.0156 C188.4219,1444.8594 188.4219,1444.8125 188.4063,1444.6563 C188.3438,1444.1875 188.0313,1443.875 187.5781,1443.875 C187.3281,1443.875 187.0625,1444.0156 186.8906,1444.2344 C186.7813,1444.4063 186.75,1444.5625 186.75,1445.0156 L186.75,1445.1406 L185.2969,1445.1406 L185.2969,1442.7344 L189.2813,1442.7344 L189.2813,1443.5938 C189.2813,1444 189.3125,1444.1719 189.3906,1444.3281 C189.5625,1444.5781 189.8438,1444.7344 190.125,1444.7344 C190.3906,1444.7344 190.6563,1444.5938 190.8281,1444.375 C190.9375,1444.2031 190.9688,1444.0625 190.9688,1443.5938 L190.9688,1441.0469 L183.3438,1441.0469 C182.9063,1441.0469 182.7813,1441.0625 182.625,1441.1563 C182.375,1441.3125 182.2188,1441.6094 182.2188,1441.8906 C182.2188,1442.1719 182.3594,1442.4219 182.5781,1442.5938 C182.7344,1442.7031 182.9219,1442.7344 183.3438,1442.7344 L183.5938,1442.7344 L183.5938,1449.25 L183.3438,1449.25 C182.9375,1449.25 182.7813,1449.2656 182.625,1449.375 C182.375,1449.5469 182.2188,1449.8125 182.2188,1450.1094 C182.2188,1450.375 182.3594,1450.625 182.5781,1450.7813 C182.7188,1450.9063 182.9531,1450.9531 183.3438,1450.9531 L191.3438,1450.9531 L191.3438,1448.375 C191.3438,1447.9375 191.3125,1447.7969 191.2344,1447.6406 C191.0625,1447.3906 190.7813,1447.2344 190.5,1447.2344 C190.2344,1447.2344 189.9688,1447.3438 189.7969,1447.5938 C189.6875,1447.75 189.6563,1447.8906 189.6563,1448.375 L189.6563,1449.25 L185.2969,1449.25 L185.2969,1446.8281 Z " fill="#000000"/><text fill="#000000" font-family="sans-serif" font-size="12" lengthAdjust="spacing" textLength="68" x="200.5" y="1450.1074">TileNumber</text><line style="stroke:#A80036;stroke-width:1.5;" x1="172.5" x2="270.5" y1="1461.9531" y2="1461.9531"/><text fill="#000000" font-family="sans-serif" font-size="11" lengthAdjust="spacing" textLength="27" x="177.5" y="1476.1636">ONE,</text><text fill="#000000" font-family="sans-serif" font-size="11" lengthAdjust="spacing" textLength="30" x="177.5" y="1488.9683">TWO,</text><text fill="#000000" font-family="sans-serif" font-size="11" lengthAdjust="spacing" textLength="39" x="177.5" y="1501.7729">THREE,</text><text fill="#000000" font-family="sans-serif" font-size="11" lengthAdjust="spacing" textLength="33" x="177.5" y="1514.5776">FOUR,</text><text fill="#000000" font-family="sans-serif" font-size="11" lengthAdjust="spacing" textLength="27" x="177.5" y="1527.3823">FIVE,</text><text fill="#000000" font-family="sans-serif" font-size="11" lengthAdjust="spacing" textLength="22" x="177.5" y="1540.187">SIX,</text><text fill="#000000" font-family="sans-serif" font-size="11" lengthAdjust="spacing" textLength="41" x="177.5" y="1552.9917">SEVEN,</text><text fill="#000000" font-family="sans-serif" font-size="11" lengthAdjust="spacing" textLength="37" x="177.5" y="1565.7964">EIGHT,</text><text fill="#000000" font-family="sans-serif" font-size="11" lengthAdjust="spacing" textLength="29" x="177.5" y="1578.6011">NINE,</text><text fill="#000000" font-family="sans-serif" font-size="11" lengthAdjust="spacing" textLength="25" x="177.5" y="1591.4058">TEN,</text><text fill="#000000" font-family="sans-serif" font-size="11" lengthAdjust="spacing" textLength="46" x="177.5" y="1604.2104">ELEVEN,</text><text fill="#000000" font-family="sans-serif" font-size="11" lengthAdjust="spacing" textLength="49" x="177.5" y="1617.0151">TWELVE,</text><text fill="#000000" font-family="sans-serif" font-size="11" lengthAdjust="spacing" textLength="57" x="177.5" y="1629.8198">THIRTEEN,</text><text fill="#000000" font-family="sans-serif" font-size="11" lengthAdjust="spacing" textLength="33" x="177.5" y="1642.6245">JOKER</text><line style="stroke:#A80036;stroke-width:1.5;" x1="172.5" x2="270.5" y1="1649.2188" y2="1649.2188"/><!--MD5=[20793cae0fd337cd42230e3c1d44e134]
class SnapShot--><rect codeLine="183" fill="#FEFECE" filter="url(#f1cpep478fqcam)" height="112.0234" id="SnapShot" style="stroke:#A80036;stroke-width:1.5;" width="209" x="22" y="559.4531"/><ellipse cx="93.75" cy="575.4531" fill="#ADD1B2" rx="11" ry="11" style="stroke:#A80036;stroke-width:1.0;"/><path d="M96.0938,571.125 C95.1563,570.6875 94.5625,570.5469 93.6875,570.5469 C91.0625,570.5469 89.0625,572.625 89.0625,575.3438 L89.0625,576.4688 C89.0625,579.0469 91.1719,580.9375 94.0625,580.9375 C95.2813,580.9375 96.4375,580.6406 97.1875,580.0938 C97.7656,579.6875 98.0938,579.2344 98.0938,578.8438 C98.0938,578.3906 97.7031,578 97.2344,578 C97.0156,578 96.8125,578.0781 96.625,578.2656 C96.1719,578.75 96.1719,578.75 95.9844,578.8438 C95.5625,579.1094 94.875,579.2344 94.1094,579.2344 C92.0625,579.2344 90.7656,578.1406 90.7656,576.4375 L90.7656,575.3438 C90.7656,573.5625 92.0156,572.25 93.75,572.25 C94.3281,572.25 94.9375,572.4063 95.4063,572.6563 C95.8906,572.9375 96.0625,573.1563 96.1563,573.5625 C96.2188,573.9688 96.25,574.0938 96.3906,574.2188 C96.5313,574.3594 96.7656,574.4688 96.9844,574.4688 C97.25,574.4688 97.5156,574.3281 97.6875,574.1094 C97.7969,573.9531 97.8281,573.7656 97.8281,573.3438 L97.8281,571.9219 C97.8281,571.4844 97.8125,571.3594 97.7188,571.2031 C97.5625,570.9375 97.2813,570.7969 96.9844,570.7969 C96.6875,570.7969 96.4844,570.8906 96.2656,571.2031 L96.0938,571.125 Z " fill="#000000"/><text fill="#000000" font-family="sans-serif" font-size="12" lengthAdjust="spacing" textLength="57" x="114.25" y="579.6074">SnapShot</text><line style="stroke:#A80036;stroke-width:1.5;" x1="23" x2="230" y1="591.4531" y2="591.4531"/><line style="stroke:#A80036;stroke-width:1.5;" x1="23" x2="230" y1="599.4531" y2="599.4531"/><ellipse cx="33" cy="610.4531" fill="#84BE84" rx="3" ry="3" style="stroke:#038048;stroke-width:1.0;"/><text fill="#000000" font-family="sans-serif" font-size="11" lengthAdjust="spacing" textLength="125" x="42" y="613.6636">getCurrentPlayer(): int</text><ellipse cx="33" cy="623.2578" fill="#84BE84" rx="3" ry="3" style="stroke:#038048;stroke-width:1.0;"/><text fill="#000000" font-family="sans-serif" font-size="11" lengthAdjust="spacing" textLength="183" x="42" y="626.4683">getTurnsAfterEmptyPounch(): int</text><ellipse cx="33" cy="636.0625" fill="#84BE84" rx="3" ry="3" style="stroke:#038048;stroke-width:1.0;"/><text fill="#000000" font-family="sans-serif" font-size="11" lengthAdjust="spacing" textLength="131" x="42" y="639.2729">getPlayerState(): string</text><ellipse cx="33" cy="648.8672" fill="#84BE84" rx="3" ry="3" style="stroke:#038048;stroke-width:1.0;"/><text fill="#000000" font-family="sans-serif" font-size="11" lengthAdjust="spacing" textLength="132" x="42" y="652.0776">getTilesPounch(): string</text><ellipse cx="33" cy="661.6719" fill="#84BE84" rx="3" ry="3" style="stroke:#038048;stroke-width:1.0;"/><text fill="#000000" font-family="sans-serif" font-size="11" lengthAdjust="spacing" textLength="126" x="42" y="664.8823">getTilesGroup(): string</text><!--MD5=[f4126240db6b9aed1821df88f3df1684]
link Rummy to SnapShotHistory--><path codeLine="7" d="M255.847,97.0249 C255.847,97.0249 221.491,126.5731 204.772,140.9531 " fill="none" id="Rummy-SnapShotHistory" style="stroke:#A80036;stroke-width:1.0;"/><polygon fill="#A80036" points="194.546,149.7531,203.9776,146.9167,198.3367,146.4926,198.7608,140.8517,194.546,149.7531" style="stroke:#A80036;stroke-width:1.0;"/><line style="stroke:#A80036;stroke-width:1.0;" x1="198.3367" x2="204.4005" y1="146.4926" y2="141.2731"/><polygon fill="#A80036" points="264.939,89.1931,257.7824,90.0783,255.847,97.0249,263.0036,96.1397,264.939,89.1931" style="stroke:#A80036;stroke-width:1.0;"/><!--MD5=[451e11c684c03e5bbe895efa5a38bf41]
link Rummy to Turn--><path codeLine="8" d="M297.0651,101.0928 C297.0651,101.0928 289.937,222.7731 286.368,283.7431 " fill="none" id="Rummy-Turn" style="stroke:#A80036;stroke-width:1.0;"/><polygon fill="#A80036" points="285.596,296.9231,290.123,288.1763,285.8927,291.9319,282.1371,287.7016,285.596,296.9231" style="stroke:#A80036;stroke-width:1.0;"/><line style="stroke:#A80036;stroke-width:1.0;" x1="285.8927" x2="286.356" y1="291.9319" y2="283.9431"/><polygon fill="#A80036" points="297.764,89.1131,293.4214,94.87,297.0651,101.0928,301.4078,95.3359,297.764,89.1131" style="stroke:#A80036;stroke-width:1.0;"/><!--MD5=[efa3a547aebe9cdf6e687795d347cb49]
link Turn to Table--><path codeLine="9" d="M277.6606,485.255 C277.6606,485.255 266.025,627.9731 248.5,696.9531 C244.4,713.0931 238.781,729.7931 232.631,745.8131 " fill="none" id="Turn-Table" style="stroke:#A80036;stroke-width:1.0;"/><polygon fill="#A80036" points="227.84,757.9131,234.8723,751.0177,229.6806,753.2643,227.4341,748.0726,227.84,757.9131" style="stroke:#A80036;stroke-width:1.0;"/><line style="stroke:#A80036;stroke-width:1.0;" x1="229.6806" x2="232.6255" y1="753.2643" y2="745.8281"/><polygon fill="#A80036" points="278.32,473.2731,273.9964,479.0443,277.6606,485.255,281.9843,479.4838,278.32,473.2731" style="stroke:#A80036;stroke-width:1.0;"/><!--MD5=[d81713d91ad05be3b975338c4816ee0b]
link Turn to Player--><path codeLine="10" d="M342.1565,483.1285 C342.1565,483.1285 359.253,510.0531 367.267,522.6831 " fill="none" id="Turn-Player" style="stroke:#A80036;stroke-width:1.0;"/><polygon fill="#A80036" points="374.237,533.6731,372.7886,523.9313,371.5565,529.4524,366.0354,528.2202,374.237,533.6731" style="stroke:#A80036;stroke-width:1.0;"/><line style="stroke:#A80036;stroke-width:1.0;" x1="371.5565" x2="367.271" y1="529.4524" y2="522.6931"/><polygon fill="#A80036" points="335.732,472.9931,335.5658,480.2023,342.1565,483.1285,342.3227,475.9193,335.732,472.9931" style="stroke:#A80036;stroke-width:1.0;"/><text fill="#000000" font-family="sans-serif" font-size="13" lengthAdjust="spacing" textLength="24" x="344.6026" y="522.7836">2..4</text><!--MD5=[1393a2e41e728fa0604160e233291913]
link Table to Pounch--><path codeLine="11" d="M243.4719,931.3215 C243.4719,931.3215 275.99,986.0671 289.304,1008.4831 " fill="none" id="Table-Pounch" style="stroke:#A80036;stroke-width:1.0;"/><polygon fill="#A80036" points="295.969,1019.7031,294.8122,1009.9224,293.4157,1015.4042,287.9339,1014.0077,295.969,1019.7031" style="stroke:#A80036;stroke-width:1.0;"/><line style="stroke:#A80036;stroke-width:1.0;" x1="293.4157" x2="289.33" y1="1015.4042" y2="1008.5256"/><polygon fill="#A80036" points="237.344,921.0041,236.9688,928.2055,243.4719,931.3215,243.8471,924.1202,237.344,921.0041" style="stroke:#A80036;stroke-width:1.0;"/><!--MD5=[15f89c1ceb05658393b6721ae199a6fc]
link Table to TilesGroup--><path codeLine="12" d="M167.2489,932.6695 C167.2489,932.6695 159.163,966.1751 155.434,981.6311 " fill="none" id="Table-TilesGroup" style="stroke:#A80036;stroke-width:1.0;"/><polygon fill="#A80036" points="152.367,994.3421,158.3669,986.5318,153.5401,989.4817,150.5902,984.6549,152.367,994.3421" style="stroke:#A80036;stroke-width:1.0;"/><line style="stroke:#A80036;stroke-width:1.0;" x1="153.5401" x2="155.416" y1="989.4817" y2="981.7046"/><polygon fill="#A80036" points="170.063,921.0041,164.7675,925.8988,167.2489,932.6695,172.5444,927.7749,170.063,921.0041" style="stroke:#A80036;stroke-width:1.0;"/><text fill="#000000" font-family="sans-serif" font-size="13" lengthAdjust="spacing" textLength="24" x="128.6985" y="983.32">0..n</text><!--MD5=[0078e3c2ea2412208ee128da65ecf604]
link Player to Table--><path codeLine="13" d="M350.341,689.9531 C337.13,702.6931 323.461,715.7531 310.5,727.9531 C301.355,736.5631 291.766,745.4831 282.159,754.3531 " fill="none" id="Player-to-Table" style="stroke:#A80036;stroke-width:1.0;"/><polygon fill="#A80036" points="278.333,757.8831,287.6582,754.7145,282.0058,754.4904,282.2299,748.838,278.333,757.8831" style="stroke:#A80036;stroke-width:1.0;"/><!--MD5=[f389fafe33db579e9069c7240804b3d4]
link Player to Tile--><path codeLine="14" d="M436.439,696.9631 C447.113,802.0551 453.592,989.3681 389.5,1131.9531 C379.2,1154.8681 363.727,1176.2961 346.67,1195.3421 " fill="none" id="Player-to-Tile" style="stroke:#A80036;stroke-width:1.0;"/><polygon fill="#A80036" points="343.239,1199.1191,352.2524,1195.1493,346.6019,1195.419,346.3322,1189.7686,343.239,1199.1191" style="stroke:#A80036;stroke-width:1.0;"/><text fill="#000000" font-family="sans-serif" font-size="13" lengthAdjust="spacing" textLength="8" x="343.3806" y="1188.5042">n</text><!--MD5=[dd0957d73d2943fb11bbf03f1954c801]
link Rummy to Player--><path codeLine="16" d="M311.017,89.0931 C314.703,98.6231 318.79,109.2231 322.5,118.9531 C352.628,197.9331 369.698,214.7731 389.5,296.9531 C408.081,374.0631 417.136,464.0831 421.51,528.5331 " fill="none" id="Rummy-to-Player" style="stroke:#A80036;stroke-width:1.0;stroke-dasharray:7.0,7.0;"/><polygon fill="#A80036" points="421.868,533.9031,425.268,524.6598,421.5395,528.9139,417.2853,525.1854,421.868,533.9031" style="stroke:#A80036;stroke-width:1.0;"/><!--MD5=[5b8e264b023c2b1d9a27e21c2f27e2f5]
link TilesGroup to Tile--><path codeLine="82" d="M172.3729,1130.3082 C172.3729,1130.3082 190.842,1168.6251 199.846,1187.3051 " fill="none" id="TilesGroup-Tile" style="stroke:#A80036;stroke-width:1.0;"/><polygon fill="#A80036" points="205.549,1199.1391,205.2445,1189.295,203.378,1194.635,198.0379,1192.7686,205.549,1199.1391" style="stroke:#A80036;stroke-width:1.0;"/><line style="stroke:#A80036;stroke-width:1.0;" x1="203.378" x2="199.9045" y1="1194.635" y2="1187.4276"/><polygon fill="#A80036" points="167.163,1119.4981,166.1646,1126.6398,172.3729,1130.3082,173.3713,1123.1665,167.163,1119.4981" style="stroke:#A80036;stroke-width:1.0;"/><text fill="#000000" font-family="sans-serif" font-size="13" lengthAdjust="spacing" textLength="32" x="168.8266" y="1188.5259">3..13</text><!--MD5=[3db144784e332e51bc8119a8bdaeb34d]
link Player to CommandParser--><path codeLine="84" d="M500.72,648.2631 C605.975,692.7731 795.054,772.7231 891.067,813.3221 " fill="none" id="Player-to-CommandParser" style="stroke:#A80036;stroke-width:1.0;stroke-dasharray:7.0,7.0;"/><polygon fill="#A80036" points="895.85,815.3441,889.118,808.1553,891.2447,813.3971,886.0028,815.5238,895.85,815.3441" style="stroke:#A80036;stroke-width:1.0;"/><!--MD5=[f13df8c52c8cec88f6fc5c569a887cd5]
link CommandParser to IExpression--><path codeLine="88" d="M921.9711,872.4755 C921.9711,872.4755 830.432,975.2171 793.853,1016.2731 " fill="none" id="CommandParser-IExpression" style="stroke:#A80036;stroke-width:1.0;"/><polygon fill="#A80036" points="785.008,1026.2011,793.9813,1022.1415,788.3338,1022.4676,788.0077,1016.8202,785.008,1026.2011" style="stroke:#A80036;stroke-width:1.0;"/><line style="stroke:#A80036;stroke-width:1.0;" x1="788.3338" x2="793.6555" y1="1022.4676" y2="1016.4946"/><polygon fill="#A80036" points="929.953,863.5151,922.9752,865.3347,921.9711,872.4755,928.9488,870.656,929.953,863.5151" style="stroke:#A80036;stroke-width:1.0;"/><!--MD5=[096ecb3730411aba92e81afcf53c60ac]
link CommandParser to CommandString--><path codeLine="89" d="M950.5,863.5151 C950.5,890.3251 950.5,936.0321 950.5,976.1741 " fill="none" id="CommandParser-to-CommandString" style="stroke:#A80036;stroke-width:1.0;stroke-dasharray:7.0,7.0;"/><polygon fill="#A80036" points="950.5,981.5451,954.5,972.5451,950.5,976.5451,946.5,972.5451,950.5,981.5451" style="stroke:#A80036;stroke-width:1.0;"/><!--MD5=[819c118a0f3013d56be5834e8a4504c5]
link CommandParser to SubcommandString--><path codeLine="90" d="M969.442,863.5151 C999.308,899.8781 1057.73,971.0031 1094.57,1015.8571 " fill="none" id="CommandParser-to-SubcommandString" style="stroke:#A80036;stroke-width:1.0;stroke-dasharray:7.0,7.0;"/><polygon fill="#A80036" points="1097.84,1019.8451,1095.2117,1010.3535,1094.6636,1015.9837,1089.0334,1015.4357,1097.84,1019.8451" style="stroke:#A80036;stroke-width:1.0;"/><!--MD5=[4a0ecf637b67ab535e85d488ee530d92]
reverse link IExpression to ExpPut--><path codeLine="92" d="M770.583,1107.6281 C781.915,1154.2151 798.357,1221.8081 806.889,1256.8871 " fill="none" id="IExpression-backto-ExpPut" style="stroke:#A80036;stroke-width:1.0;"/><polygon fill="none" points="763.708,1108.9811,765.783,1087.8931,777.311,1105.6721,763.708,1108.9811" style="stroke:#A80036;stroke-width:1.0;"/><!--MD5=[5643e186e89d595eb4798ed6be82af63]
reverse link IExpression to ExpMov--><path codeLine="93" d="M730.776,1104.8981 C720.295,1122.7321 708.294,1143.2501 697.5,1161.9531 C678.541,1194.8031 656.929,1233.0061 643.499,1256.8351 " fill="none" id="IExpression-backto-ExpMov" style="stroke:#A80036;stroke-width:1.0;"/><polygon fill="none" points="724.856,1101.1581,741.036,1087.4751,736.92,1108.2611,724.856,1101.1581" style="stroke:#A80036;stroke-width:1.0;"/><!--MD5=[06e7a441733990d1e92bc7952a77bf7d]
reverse link IExpression to ExpEnd--><path codeLine="94" d="M814.567,1099.1371 C830.681,1110.3071 848.502,1122.0421 865.5,1131.9531 C891.945,1147.3721 905.29,1140.8861 927.5,1161.9531 C955.839,1188.8331 974.865,1230.8581 984.669,1256.8301 " fill="none" id="IExpression-backto-ExpEnd" style="stroke:#A80036;stroke-width:1.0;"/><polygon fill="none" points="810.491,1104.8281,798.185,1087.5771,818.562,1093.3891,810.491,1104.8281" style="stroke:#A80036;stroke-width:1.0;"/><!--MD5=[9126c56208a095631cb2180ca74f7f46]
link ExpPut to ExpPutIn--><path codeLine="96" d="M810.3441,1317.0485 C810.3441,1317.0485 801.779,1456.4971 798.728,1506.1811 " fill="none" id="ExpPut-ExpPutIn" style="stroke:#A80036;stroke-width:1.0;"/><polygon fill="#A80036" points="797.917,1519.3871,802.4613,1510.6493,798.2236,1514.3965,794.4764,1510.1588,797.917,1519.3871" style="stroke:#A80036;stroke-width:1.0;"/><line style="stroke:#A80036;stroke-width:1.0;" x1="798.2236" x2="798.7135" y1="1514.3965" y2="1506.4121"/><polygon fill="#A80036" points="811.08,1305.0711,806.7196,1310.8145,810.3441,1317.0485,814.7045,1311.3051,811.08,1305.0711" style="stroke:#A80036;stroke-width:1.0;"/><text fill="#000000" font-family="sans-serif" font-size="13" lengthAdjust="spacing" textLength="24" x="771.2051" y="1508.3822">1..n</text><!--MD5=[68d6fe17b6cf358c9fc50d22871783e2]
link ExpMov to ExpMovIn--><path codeLine="97" d="M630.5,1317.0711 C630.5,1317.0711 630.5,1456.4971 630.5,1506.1811 " fill="none" id="ExpMov-ExpMovIn" style="stroke:#A80036;stroke-width:1.0;"/><polygon fill="#A80036" points="630.5,1519.3871,634.5,1510.3871,630.5,1514.3871,626.5,1510.3871,630.5,1519.3871" style="stroke:#A80036;stroke-width:1.0;"/><line style="stroke:#A80036;stroke-width:1.0;" x1="630.5" x2="630.5" y1="1514.3871" y2="1506.3871"/><polygon fill="#A80036" points="630.5,1305.0711,626.5,1311.0711,630.5,1317.0711,634.5,1311.0711,630.5,1305.0711" style="stroke:#A80036;stroke-width:1.0;"/><text fill="#000000" font-family="sans-serif" font-size="13" lengthAdjust="spacing" textLength="24" x="603.425" y="1508.3822">1..n</text><!--MD5=[d5ee97fc3e4c77399e86b060cc5562cc]
link ExpMovIn to Group--><path codeLine="99" d="M608.7645,1578.1763 C608.7645,1578.1763 570.48,1647.8041 561.5,1686.9531 C558.944,1698.0966 560.273,1710.2397 563.031,1721.236 " fill="none" id="ExpMovIn-Group" style="stroke:#A80036;stroke-width:1.0;"/><polygon fill="#A80036" points="566.939,1733.9361,568.1147,1724.1577,565.4683,1729.1573,560.4686,1726.5109,566.939,1733.9361" style="stroke:#A80036;stroke-width:1.0;"/><line style="stroke:#A80036;stroke-width:1.0;" x1="565.4683" x2="563.1155" y1="1729.1573" y2="1721.5111"/><polygon fill="#A80036" points="615.001,1567.9241,608.4654,1570.9714,608.7645,1578.1763,615.3001,1575.129,615.001,1567.9241" style="stroke:#A80036;stroke-width:1.0;"/><text fill="#000000" font-family="sans-serif" font-size="13" lengthAdjust="spacing" textLength="35" x="562.5" y="1700.02">origin</text><!--MD5=[d5ee97fc3e4c77399e86b060cc5562cc]
link ExpMovIn to Group--><path codeLine="100" d="M627.058,1579.555 C627.058,1579.555 615.595,1662.6851 602.5,1703.9531 C600.65,1709.7835 598.29,1715.7988 595.761,1721.5904 " fill="none" id="ExpMovIn-Group-1" style="stroke:#A80036;stroke-width:1.0;"/><polygon fill="#A80036" points="590.09,1733.7535,597.5185,1727.2869,592.2029,1729.2219,590.2679,1723.9063,590.09,1733.7535" style="stroke:#A80036;stroke-width:1.0;"/><line style="stroke:#A80036;stroke-width:1.0;" x1="592.2029" x2="595.584" y1="1729.2219" y2="1721.9714"/><polygon fill="#A80036" points="628.39,1567.6291,623.7487,1573.1481,627.058,1579.555,631.6993,1574.036,628.39,1567.6291" style="stroke:#A80036;stroke-width:1.0;"/><text fill="#000000" font-family="sans-serif" font-size="13" lengthAdjust="spacing" textLength="39" x="608.5" y="1700.02">target</text><!--MD5=[67b1f84980e2e7571a62e3a8f7b900f1]
link ExpPutIn to ExpTileRack--><path codeLine="101" d="M807.2483,1579.0591 C807.2483,1579.0591 839.231,1682.0349 851.413,1721.2573 " fill="none" id="ExpPutIn-ExpTileRack" style="stroke:#A80036;stroke-width:1.0;"/><polygon fill="#A80036" points="855.32,1733.8359,856.4703,1724.0545,853.8368,1729.061,848.8304,1726.4275,855.32,1733.8359" style="stroke:#A80036;stroke-width:1.0;"/><line style="stroke:#A80036;stroke-width:1.0;" x1="853.8368" x2="851.464" y1="1729.061" y2="1721.4209"/><polygon fill="#A80036" points="803.689,1567.5991,801.6487,1574.5156,807.2483,1579.0591,809.2887,1572.1427,803.689,1567.5991" style="stroke:#A80036;stroke-width:1.0;"/><text fill="#000000" font-family="sans-serif" font-size="13" lengthAdjust="spacing" textLength="24" x="826.4051" y="1722.8179">1..n</text><!--MD5=[9e9053c511241bd4b6f6ec54fa2b2e9b]
link ExpPutIn to Group--><path codeLine="102" d="M772.0372,1577.0285 C772.0372,1577.0285 701.09,1664.7921 656.5,1703.9531 C646.355,1712.8627 634.634,1721.4867 623.377,1729.0989 " fill="none" id="ExpPutIn-Group" style="stroke:#A80036;stroke-width:1.0;"/><polygon fill="#A80036" points="612.35,1736.347,622.0678,1734.7456,616.5281,1733.6004,617.6732,1728.0607,612.35,1736.347" style="stroke:#A80036;stroke-width:1.0;"/><line style="stroke:#A80036;stroke-width:1.0;" x1="616.5281" x2="623.2135" y1="1733.6004" y2="1729.2062"/><polygon fill="#A80036" points="779.363,1567.5241,772.532,1569.8344,772.0372,1577.0285,778.8682,1574.7182,779.363,1567.5241" style="stroke:#A80036;stroke-width:1.0;"/><text fill="#000000" font-family="sans-serif" font-size="13" lengthAdjust="spacing" textLength="39" x="674.5" y="1700.02">target</text><!--MD5=[7d5d2c3a4cb139735461dace7f33d8a1]
reverse link IExpression to ExpPutIn--><path codeLine="104" d="M755.503,1107.7581 C752.524,1169.3171 749.675,1277.1871 759.5,1368.9531 C765.353,1423.6171 781.032,1486.4021 789.989,1519.4071 " fill="none" id="IExpression-backto-ExpPutIn" style="stroke:#A80036;stroke-width:1.0;"/><polygon fill="none" points="748.519,1107.2571,756.562,1087.6531,762.5,1107.9931,748.519,1107.2571" style="stroke:#A80036;stroke-width:1.0;"/><!--MD5=[ffb3864fc0a377a77d4c1c05ac485fc9]
reverse link IExpression to ExpTileRack--><path codeLine="105" d="M812.295,1099.5591 C828.774,1111.0741 847.356,1122.8861 865.5,1131.9531 C942.191,1170.2751 998.371,1123.4031 1048.5,1192.9531 C1179.02,1374.0391 955.748,1652.2151 883.74,1733.748 " fill="none" id="IExpression-backto-ExpTileRack" style="stroke:#A80036;stroke-width:1.0;"/><polygon fill="none" points="808.112,1105.1731,795.989,1087.7941,816.304,1093.8201,808.112,1105.1731" style="stroke:#A80036;stroke-width:1.0;"/><!--MD5=[eee5a03b9fd8b1329d47b112658e04a9]
reverse link IExpression to Group--><path codeLine="106" d="M652.31,1096.2511 C610.093,1117.5771 566.411,1148.9181 544.5,1192.9531 C522.733,1236.7001 523.591,1581.7591 552.5,1703.9531 C554.913,1714.1505 559.431,1724.7218 563.97,1733.7154 " fill="none" id="IExpression-backto-Group" style="stroke:#A80036;stroke-width:1.0;"/><polygon fill="none" points="649.494,1089.8381,670.563,1087.5741,655.505,1102.4831,649.494,1089.8381" style="stroke:#A80036;stroke-width:1.0;"/><!--MD5=[2f71001e161c1e2e74590ae136f3e8eb]
reverse link IExpression to ExpMovIn--><path codeLine="107" d="M672.722,1097.4681 C635.012,1119.7331 594.572,1151.4911 573.5,1192.9531 C516.539,1305.0331 586.955,1461.0731 617.592,1519.3191 " fill="none" id="IExpression-backto-ExpMovIn" style="stroke:#A80036;stroke-width:1.0;"/><polygon fill="none" points="669.474,1091.2641,690.345,1087.6031,676.312,1103.4811,669.474,1091.2641" style="stroke:#A80036;stroke-width:1.0;"/><!--MD5=[0485e186ac4b35d9dc5b18a62153820c]
reverse link IExpression to ExpTileGroup--><path codeLine="108" d="M806.136,1102.1301 C828.812,1126.4481 853.543,1158.6171 865.5,1192.9531 C886.734,1253.9291 871.62,1624.9301 854.5,1656.9531 C835.947,1691.6563 799.424,1717.292 768.61,1733.915 " fill="none" id="IExpression-backto-ExpTileGroup" style="stroke:#A80036;stroke-width:1.0;"/><polygon fill="none" points="801.01,1106.9011,792.051,1087.6981,811.03,1097.1231,801.01,1106.9011" style="stroke:#A80036;stroke-width:1.0;"/><!--MD5=[b953b995dc37563aadddd3a479b6c497]
link ExpMovIn to ExpTileGroup--><path codeLine="110" d="M644.3691,1578.7226 C644.3691,1578.7226 686.351,1682.4573 702.249,1721.7407 " fill="none" id="ExpMovIn-ExpTileGroup" style="stroke:#A80036;stroke-width:1.0;"/><polygon fill="#A80036" points="707.144,1733.8359,707.4753,1723.9926,705.2682,1729.2011,700.0597,1726.994,707.144,1733.8359" style="stroke:#A80036;stroke-width:1.0;"/><line style="stroke:#A80036;stroke-width:1.0;" x1="705.2682" x2="702.2675" y1="1729.2011" y2="1721.7854"/><polygon fill="#A80036" points="639.867,1567.5991,638.4102,1574.6616,644.3691,1578.7226,645.8259,1571.6601,639.867,1567.5991" style="stroke:#A80036;stroke-width:1.0;"/><text fill="#000000" font-family="sans-serif" font-size="13" lengthAdjust="spacing" textLength="24" x="677.6715" y="1722.8179">1..n</text><!--MD5=[f6e07edd0a7b900de4c0f2edfebc1b52]
reverse link IPlayerCommand to Player--><path codeLine="112" d="M1325.74,1172.6031 C1321.3,1113.3171 1308.95,1040.1291 1277.5,981.9531 C1207.5,852.4481 1163.69,826.6731 1033.5,757.9531 C857.147,664.8631 620.208,632.4931 500.879,621.6431 " fill="none" id="IPlayerCommand-backto-Player" style="stroke:#A80036;stroke-width:1.0;"/><polygon fill="none" points="1332.75,1172.5511,1327,1192.9461,1318.78,1173.4171,1332.75,1172.5511" style="stroke:#A80036;stroke-width:1.0;"/><!--MD5=[c9fbd235d77e40527809add511bbaf88]
link CommandParser to IPlayerCommand--><path codeLine="113" d="M1015.69,859.5201 C1076.28,880.3761 1165.14,919.4311 1219.5,981.9531 C1246.89,1013.4641 1279.46,1112.5151 1301.4,1187.8511 " fill="none" id="CommandParser-to-IPlayerCommand" style="stroke:#A80036;stroke-width:1.0;"/><polygon fill="#A80036" points="1302.83,1192.7781,1304.1634,1183.0199,1301.4366,1187.9762,1296.4803,1185.2494,1302.83,1192.7781" style="stroke:#A80036;stroke-width:1.0;"/><!--MD5=[a2f306db583b923597602ef4e090e065]
link IExpression to IPlayerCommand--><path codeLine="114" d="M792.205,1087.6141 C812.149,1103.4571 838.692,1121.7491 865.5,1131.9531 C967.614,1170.8211 1005.454,1128.6021 1109.5,1161.9531 C1132.95,1169.4691 1156.8,1179.5511 1179.68,1190.6681 " fill="none" id="IExpression-to-IPlayerCommand" style="stroke:#A80036;stroke-width:1.0;stroke-dasharray:7.0,7.0;"/><polygon fill="#A80036" points="1184.25,1192.9051,1177.928,1185.3531,1179.76,1190.7051,1174.408,1192.5371,1184.25,1192.9051" style="stroke:#A80036;stroke-width:1.0;"/><!--MD5=[dc28bb7b4236631df7f29adde3c9e4be]
link Tile to Color--><path codeLine="129" d="M277.6701,1373.8811 C277.6701,1373.8811 303.095,1444.3371 314.055,1474.7091 " fill="none" id="Tile-Color" style="stroke:#A80036;stroke-width:1.0;"/><polygon fill="#A80036" points="318.611,1487.3341,319.3186,1477.5107,316.9138,1482.631,311.7935,1480.2262,318.611,1487.3341" style="stroke:#A80036;stroke-width:1.0;"/><line style="stroke:#A80036;stroke-width:1.0;" x1="316.9138" x2="314.198" y1="1482.631" y2="1475.1056"/><polygon fill="#A80036" points="273.598,1362.5931,271.8714,1369.5945,277.6701,1373.8811,279.3967,1366.8797,273.598,1362.5931" style="stroke:#A80036;stroke-width:1.0;"/><!--MD5=[71310245f25663e561ea5d5a7d1566fc]
link Tile to TileNumber--><path codeLine="130" d="M236.3238,1374.5466 C236.3238,1374.5466 233.83,1402.8041 232.617,1416.5381 " fill="none" id="Tile-TileNumber" style="stroke:#A80036;stroke-width:1.0;"/><polygon fill="#A80036" points="231.458,1429.6661,236.2346,1421.0531,231.8981,1424.6855,228.2657,1420.349,231.458,1429.6661" style="stroke:#A80036;stroke-width:1.0;"/><line style="stroke:#A80036;stroke-width:1.0;" x1="231.8981" x2="232.6015" y1="1424.6855" y2="1416.7166"/><polygon fill="#A80036" points="237.38,1362.5931,232.8674,1368.2178,236.3238,1374.5466,240.8364,1368.9219,237.38,1362.5931" style="stroke:#A80036;stroke-width:1.0;"/><!--MD5=[4ed8f434eba98f9789ead75f74d64d1e]
link Turn to SnapShot--><path codeLine="172" d="M221.84,472.9931 C203.359,500.4131 183.381,530.0531 166.511,555.0831 " fill="none" id="Turn-to-SnapShot" style="stroke:#A80036;stroke-width:1.0;stroke-dasharray:7.0,7.0;"/><polygon fill="#A80036" points="163.615,559.3831,171.9538,554.1425,166.403,555.2326,165.313,549.6817,163.615,559.3831" style="stroke:#A80036;stroke-width:1.0;"/><!--MD5=[8337605ebc84f7c39bd9790ef406ccf3]
link SnapShotHistory to SnapShot--><path codeLine="180" d="M143.0504,248.1809 C143.0504,248.1809 133.311,463.7131 129.577,546.3431 " fill="none" id="SnapShotHistory-SnapShot" style="stroke:#A80036;stroke-width:1.0;"/><polygon fill="#A80036" points="128.989,559.3631,133.3905,550.5525,129.2143,554.3682,125.3986,550.192,128.989,559.3631" style="stroke:#A80036;stroke-width:1.0;"/><line style="stroke:#A80036;stroke-width:1.0;" x1="129.2143" x2="129.576" y1="554.3682" y2="546.3781"/><polygon fill="#FFFFFF" points="143.591,236.1931,139.3247,242.0068,143.0504,248.1809,147.3166,242.3672,143.591,236.1931" style="stroke:#A80036;stroke-width:1.0;"/><text fill="#000000" font-family="sans-serif" font-size="13" lengthAdjust="spacing" textLength="24" x="103.7706" y="548.2896">1..n</text><!--MD5=[6b61e46a44579e3d3bc493aad02e667a]
link SnapShotHistory to Turn--><path codeLine="181" d="M175.461,236.1231 C187.305,252.7931 201.409,272.6431 215.378,292.3031 " fill="none" id="SnapShotHistory-to-Turn" style="stroke:#A80036;stroke-width:1.0;"/><polygon fill="#A80036" points="218.544,296.7531,216.5854,287.101,215.6452,292.6792,210.0671,291.739,218.544,296.7531" style="stroke:#A80036;stroke-width:1.0;"/><!--MD5=[eef65201f10a68ec7f8a7656b7b02137]
@startuml
title diagrama de clases de diseño

class Rummy {
  +play()
}

Rummy *- -> SnapShotHistory
Rummy *- -> Turn
Turn *- -> Table
Turn *- -> "2..4" Player
Table *- -> Pounch
Table *- -> "0..n" TilesGroup
Player - -> Table
Player - -> "n" Tile

Rummy ..> Player

class Turn {
   -currentPlayer
   -turnsAfterEmptyPounch
   +take(): Player
   +change()
   +isEnd(): bool
   +write()
   +getWinnerByPoints(): Player
   +hasWinnerByPoints(): bool
   +save(): SnapShot
   +restore(Snapshot)
   
}

class Table {
  +extract()
  +addTileToGroup(tile, groupIndex)
  +isValidInsertion(tile, groupIndex)
  +moveTileFromOriginToTarget(tile, originGroup, targetGroup)
  +isValidGroups(): bool
  +write()
  +isEmptyPounch(): bool
  +hasGroup(indexGroup): bool
  +existTileInTable(tile): bool
}

class Pounch {
  +extract()
  +isEmpty(): bool
}

class Player {
  +extractTile()
  +executeAction()
  +isWinner()
  +getPoints()
  +write()
  +isResume()
  +writeCongratulations()
  +isEnd()
  +getLastAction()
}

abstract class TilesGroup {
   +addTile(tile)
   +isValid()
   +removeTile(Tile)
   +hasIndex(indexGroup):bool
   +getTile(tile): Tile
   +write()
}

class Tile {
  +getNumber()
  +isNumberLessThan(tile)
  +isNumberGreaterThan(tile)
  +isColorEqualsTo(tile)
  +isNumberDistinctTo(tile)
  +isNumberLessOrEqualThan(tile)
  +isColorDistinct(tile)
  +isNumberEqualTo(tile)
  +clone(tile)
}

TilesGroup *- -> "3..13" Tile

Player ..> CommandParser
interface IExpression {
   +interpret(IPlayerCommand)
}
CommandParser *- -> IExpression
CommandParser ..> CommandString
CommandParser ..> SubcommandString

IExpression <|- - ExpPut
IExpression <|- - ExpMov
IExpression <|- - ExpEnd

ExpPut *- -> "1..n" ExpPutIn
ExpMov *- -> "1..n" ExpMovIn

ExpMovIn *- -> Group: origin
ExpMovIn *- -> Group: target
ExpPutIn *- -> "1..n" ExpTileRack
ExpPutIn *- -> Group: target

IExpression <|- - ExpPutIn
IExpression <|- - ExpTileRack
IExpression <|- - Group
IExpression <|- - ExpMovIn
IExpression <|- - ExpTileGroup

ExpMovIn *- -> "1..n" ExpTileGroup

IPlayerCommand <|- - Player
CommandParser - -> IPlayerCommand
IExpression ..> IPlayerCommand

interface IPlayerCommand {
  +addTileToGroup(tile, groupIndex) 
  +existGroup(targetGroup): bool
  +existTileInRack(tile): bool
  +existTileInTable(tile): bool
  +moveTileFromGroupToGroup(tile, origin, target)
  +isAllowedToTileDown(List<List<string>> tileGroups): bool
  +finishTurn();
  +existsTileInGroup(string tileDescription, int group):bool
  +isValidGroups(): bool
  +isValidAddTilesInGroup(List<string> tiles, int groupIndex): bool
}

Tile *- -> Color
Tile *- -> TileNumber

enum Color {
  RED,
  GREEN,
  BLACK,
  YELLOW,
  JOKER
}

enum TileNumber {
  ONE,
  TWO,
  THREE,
  FOUR,
  FIVE,
  SIX,
  SEVEN,
  EIGHT,
  NINE, 
  TEN,
  ELEVEN,
  TWELVE,
  THIRTEEN,
  JOKER
}

enum CommandString {
   PUT = "PUT",
   MOV = "MOV";
   END = "END";
   HELP = "HELP";
   UNDO = "UNDO";
   REDO = "REDO";
   RESUME = "RESUME";
   EXIT = "EXIT";
}
enum SubcommandString {
   IN = "IN",
   FROM = "FROM"
}

Turn ..> SnapShot

class SnapShotHistory {
   -pointer
   +backup(player)
   +restoreAccordingAction(player)
}

SnapShotHistory o- -> "1..n" SnapShot
SnapShotHistory - -> Turn 

class SnapShot {
  +getCurrentPlayer(): int
  +getTurnsAfterEmptyPounch(): int
  +getPlayerState(): string
  +getTilesPounch(): string
  +getTilesGroup(): string
}
@enduml

PlantUML version 1.2021.10beta2(Unknown compile time)
(GPL source distribution)
Java Runtime: Java(TM) SE Runtime Environment
JVM: Java HotSpot(TM) 64-Bit Server VM
Default Encoding: UTF-8
Language: en
Country: US
--></g></svg>